<svg xmlns="http://www.w3.org/2000/svg" viewBox="0 0 1254.82 1293.01"><defs><style>.cls-1{fill:#0f1a35;}.cls-2{fill:#152249;}.cls-3{fill:#1c2d56;}.cls-4{fill:#213660;}.cls-5{fill:#28416b;}.cls-6{fill:#2e4d7a;}.cls-7{fill:#385d89;}.cls-8{fill:#3f6c99;}.cls-9{fill:#4d86b5;}.cls-10{fill:#ff8f3b;}.cls-11{fill:#ffbd39;}.cls-12{fill:#ffd15f;}.cls-13{fill:#2c8419;}.cls-14{fill:#276d16;}.cls-15{fill:#8dd9ff;}.cls-16{fill:#5eadcc;}.cls-17{fill:#5affc8;}.cls-18{fill:#fc4444;}.cls-19{fill:#6d3db2;}.cls-20{fill:#5c3699;}.cls-21{fill:#fc7f2b;}.cls-22{fill:#e07127;}.cls-23{fill:#f9a547;}.cls-24{fill:#fff2c1;}.cls-25{fill:#0f152d;}.cls-26{fill:#fff;}.cls-27{fill:#84329b;}.cls-28{fill:#e5e5e5;}.cls-29{fill:#6a297f;}.cls-30{opacity:0.19;}.cls-31{fill:#505050;}.cls-32{fill:#0a0a0a;}.cls-33{fill:#0a0e1c;}</style></defs><title>cohete1</title><g id="Capa_2" data-name="Capa 2"><g id="Capa_10" data-name="Capa 10"><circle class="cls-1" cx="733.84" cy="772.03" r="520.98"/><circle class="cls-2" cx="733.84" cy="772.03" r="459.19"/><circle class="cls-3" cx="733.84" cy="772.03" r="406.09"/><circle class="cls-4" cx="733.84" cy="772.03" r="357.55"/><circle class="cls-5" cx="733.84" cy="772.03" r="304.43"/><circle class="cls-6" cx="733.84" cy="772.03" r="253.43"/><circle class="cls-7" cx="733.84" cy="772.03" r="202.09"/><circle class="cls-8" cx="733.84" cy="772.03" r="155.68"/><circle class="cls-9" cx="733.84" cy="772.03" r="112.17"/><circle class="cls-10" cx="733.84" cy="768.26" r="71.61"/><circle class="cls-11" cx="733.84" cy="768.26" r="62.41"/><circle class="cls-12" cx="733.84" cy="768.26" r="51.07"/><circle class="cls-13" cx="1109.61" cy="1007.09" r="32.54"/><path class="cls-14" d="M1086.82,1015.43a32.53,32.53,0,1,0,32.54-32.54A32.39,32.39,0,0,0,1086.82,1015.43Z"/><circle class="cls-15" cx="929.95" cy="1165.42" r="65.8"/><path class="cls-16" d="M894.15,1183.15a65.56,65.56,0,0,0,18.13,45.33,65.79,65.79,0,0,0,65.35-108.72,65.8,65.8,0,0,0-83.48,63.39Z"/><circle class="cls-17" cx="708.79" cy="518.6" r="11.32"/><circle class="cls-10" cx="908.49" cy="744.25" r="11.33"/><circle class="cls-18" cx="951.26" cy="541.43" r="15.7"/><circle class="cls-19" cx="1209.18" cy="717.19" r="15.7"/><path class="cls-20" d="M1214.66,702.49a15.68,15.68,0,1,0,10.22,14.7A15.69,15.69,0,0,0,1214.66,702.49Z"/><circle class="cls-21" cx="531.75" cy="990.95" r="21.87"/><path class="cls-22" d="M523.28,977.64a21.71,21.71,0,0,0-10.72,2.81A21.87,21.87,0,0,0,542.47,1010a21.88,21.88,0,0,0-19.19-32.37Z"/><path class="cls-23" d="M303.4,891.82S49.64,994.3,303.4,1292C557.15,994.3,303.4,891.82,303.4,891.82Z"/><path class="cls-24" d="M303.4,931.64s-137,55.32,0,216C440.37,987,303.4,931.64,303.4,931.64Z"/><path class="cls-25" d="M304.9,842H194.44v37.07a13.11,13.11,0,0,0,13.11,13.1h22l-15.63,34a10.93,10.93,0,0,0,9.93,15.5h159a10.93,10.93,0,0,0,9.94-15.5l-15.63-34h22a13.11,13.11,0,0,0,13.1-13.1V842Z"/><path class="cls-26" d="M121.52,613.53a5.83,5.83,0,0,0-10.28-1.67c-23,31.88-96.76,134.93-98,151.35-1.46,19-25.64,72-2,160.54a5.83,5.83,0,0,0,8.48,3.58l166.13-92.92a5.81,5.81,0,0,0,2.71-6.82Z"/><path class="cls-27" d="M189,828.18a5.86,5.86,0,0,1-2.7,6.89L19,929.45a5.89,5.89,0,0,1-8.57-3.57A296.89,296.89,0,0,1,0,862.11l169.19-96.05Z"/><path class="cls-28" d="M485.27,613a5.83,5.83,0,0,1,10.28-1.67c23.06,31.88,96.76,134.93,98,151.35,1.46,19,25.65,72,2,160.54a5.83,5.83,0,0,1-8.48,3.58L421,833.91a5.83,5.83,0,0,1-2.71-6.82Z"/><path class="cls-29" d="M417.77,827.68a5.85,5.85,0,0,0,2.71,6.89L587.76,929a5.9,5.9,0,0,0,8.58-3.57,297.45,297.45,0,0,0,10.45-63.77L437.6,765.56Z"/><path class="cls-30" d="M186.27,830.48l-67-214.06A5.82,5.82,0,0,0,109,614.75c-9.84,13.6-28.89,40.15-47.6,67.4C69,741.7,82.54,805.64,103.55,874.08a41.22,41.22,0,0,0,2.6,6.52l77.4-43.3A5.82,5.82,0,0,0,186.27,830.48Z"/><path class="cls-30" d="M420.59,829.92l67-214a5.82,5.82,0,0,1,10.27-1.68c9.84,13.6,28.89,40.15,47.6,67.4-7.62,59.56-21.16,123.5-42.16,191.94a43.1,43.1,0,0,1-2.6,6.51l-77.41-43.29A5.84,5.84,0,0,1,420.59,829.92Z"/><path class="cls-26" d="M303.85,2S-27.35,261.54,145.51,824.82a42.94,42.94,0,0,0,41.08,30.28H421.11a42.93,42.93,0,0,0,41.07-30.28C635,261.54,303.85,2,303.85,2Z"/><path class="cls-28" d="M303.85,2V855.1H421.11a42.93,42.93,0,0,0,41.07-30.28C635,261.54,303.85,2,303.85,2Z"/><path class="cls-27" d="M464.16,825.82q5.93-19.08,11.08-37.67H132.46q5.16,18.6,11.07,37.67a43.43,43.43,0,0,0,41.59,30.28H422.58A43.41,43.41,0,0,0,464.16,825.82Z"/><path class="cls-27" d="M307.23,181.45a504.42,504.42,0,0,0,123.59-15.29C372.28,54,303.39,0,303.39,0S235.22,53.43,176.87,164.41A504.39,504.39,0,0,0,307.23,181.45Z"/><circle class="cls-31" cx="303.85" cy="355.4" r="99.97"/><circle class="cls-27" cx="303.85" cy="355.4" r="90.98"/><path class="cls-29" d="M303.85,264.41a91,91,0,0,1,0,182Z"/><circle class="cls-32" cx="303.85" cy="355.4" r="70.69"/><path class="cls-33" d="M304.9,842h-1.5v99.64h79.5a10.93,10.93,0,0,0,9.94-15.5l-15.63-34h22a13.11,13.11,0,0,0,13.1-13.1V842Z"/><path class="cls-29" d="M303.4,788.15v68H422.13a43.41,43.41,0,0,0,41.58-30.28q5.93-19.08,11.08-37.67Z"/><path class="cls-29" d="M303.85.18V181.24c1.13,0,2.25,0,3.38,0A504.42,504.42,0,0,0,430.82,166C375.05,59.13,309.9,5.07,303.85.18Z"/><g id="una_tinta" data-name="una tinta"><path d="M410.15,690.37a1,1,0,0,0-.44-.86,2.39,2.39,0,0,0-1.32-.29H406.8v4.2h.8v-1.79h.78l.85,1.79h.9l-.95-1.92a1.18,1.18,0,0,0,.72-.38A1.11,1.11,0,0,0,410.15,690.37Zm-1.06.59a1.53,1.53,0,0,1-.82.16h-.67v-1.39h.65a1.58,1.58,0,0,1,.83.17.63.63,0,0,1,.26.55A.54.54,0,0,1,409.09,691Z"/><path d="M410.58,688.45a3.76,3.76,0,0,0-2.28-.77,3.71,3.71,0,0,0-1.63.36,3.6,3.6,0,0,0-1.28,1.05,3.93,3.93,0,0,0-.6,1.1,3.78,3.78,0,0,0-.2,1.2,3.7,3.7,0,0,0,1.08,2.6,3.93,3.93,0,0,0,1.21.82,3.68,3.68,0,0,0,1.42.29,3.53,3.53,0,0,0,1.39-.29,3.87,3.87,0,0,0,1.23-.81,3.66,3.66,0,0,0,.81-1.18,3.83,3.83,0,0,0,.27-1.43,3.7,3.7,0,0,0-1.42-2.94Zm.72,4.19a3.53,3.53,0,0,1-.69,1,3.46,3.46,0,0,1-1.08.7,3.36,3.36,0,0,1-1.26.24,3.06,3.06,0,0,1-1.22-.25,3.25,3.25,0,0,1-1.05-.71,3,3,0,0,1-.7-1,3,3,0,0,1-.25-1.22,3.31,3.31,0,0,1,.25-1.24,3.24,3.24,0,0,1,.73-1.07,3.09,3.09,0,0,1,1-.68,3.27,3.27,0,0,1,1.25-.24,3.36,3.36,0,0,1,1.25.25,3.06,3.06,0,0,1,1.75,1.75,3.29,3.29,0,0,1,.24,1.26A3.16,3.16,0,0,1,411.3,692.64Z"/><polygon points="313.3 566.61 343.82 597.52 312.9 628.04 303.75 618.76 325.39 597.4 304.02 575.76 313.3 566.61"/><polygon points="294.87 566.49 263.96 597.01 294.48 627.92 303.75 618.76 282.39 597.13 304.02 575.76 294.87 566.49"/><path d="M245,695.1h-8.9l-5.75-27.94-6,27.94h-9l-8.42-33.59h7.26l5.64,28.43L225.73,662h9.44l5.74,28,6-28.53h6.91Z"/><path d="M258,695.1V661.51h6.71V695.1Z"/><path d="M287.1,666.77V695.1h-6.72V666.77H269v-5.26h29.49v5.26Z"/><path d="M326.08,671.4h-6.86c-.39-3.41-2.29-5.55-5.79-5.55-2.68,0-4.73,1.26-4.73,4s1.8,4.23,7.16,5.5c7.4,1.7,10.71,5.11,10.71,10.51,0,6.33-5.79,9.93-12.41,9.93-8,0-13.29-3.55-13.92-10.61h6.86a6.68,6.68,0,0,0,7,5.6c3.06,0,5.5-1.66,5.5-4.24,0-2.82-1.75-4.48-6.72-5.64-6.86-1.66-11.19-4-11.19-10.22s5.59-9.84,12-9.84C321.7,660.83,325.35,665.41,326.08,671.4Z"/><path d="M332.11,695.1V661.51h6.72V695.1Z"/><path d="M361.22,666.77V695.1H354.5V666.77H343.11v-5.26H372.6v5.26Z"/><path d="M400.88,695.1H376.64V661.51h23.75v5.26h-17v8.86h15.82v5.3H383.36v8.86h17.52Z"/><polygon points="224.08 734.24 232.55 737.42 232.55 735.28 226.17 733 232.55 730.73 232.55 728.61 224.08 731.79 224.08 734.24"/><path d="M242.33,729.42c1.17,0,1.94.66,2.23,2.12h2a3.89,3.89,0,0,0-4.17-3.56c-2.5,0-4.63,1.82-4.63,5.07,0,3.4,1.89,5,4.39,5a4,4,0,0,0,4.35-3.41h-2a2.23,2.23,0,0,1-2.23,2c-1.33,0-2.41-1.1-2.41-3.69C239.85,730.52,241,729.42,242.33,729.42Z"/><path d="M252.4,728c-3.22,0-4.84,2.23-4.84,5s1.62,5,4.84,5,4.84-2.24,4.84-5S255.6,728,252.4,728Zm0,8.62c-1.75,0-2.76-1.44-2.76-3.6s1-3.58,2.76-3.58,2.73,1.42,2.73,3.58S254.12,736.6,252.4,736.6Z"/><path d="M265.79,729.16a3.72,3.72,0,0,0-.68-.63v0a4.24,4.24,0,0,0-2.21-.57c-2.47,0-4.62,1.69-4.62,5.18,0,2.81,1.56,4.87,4.29,4.87a4.31,4.31,0,0,0,2.5-.71,3.71,3.71,0,0,0,.72-.74v1.2h2V724.56h-2ZM263,736.6c-1.71,0-2.66-1.53-2.66-3.6,0-2.38,1.19-3.58,2.75-3.58,1.28,0,2.68.86,2.68,3.18v.51C265.79,735.66,264.52,736.6,263,736.6Z"/><rect x="270.32" y="728.23" width="1.98" height="9.55"/><path d="M271.31,724.9a1.15,1.15,0,1,0,0,2.29,1.15,1.15,0,1,0,0-2.29Z"/><path d="M279.88,728a3.61,3.61,0,0,0-2.39.72h0a4.38,4.38,0,0,0-.64.65v-1.14h-2v9.55h2V733.5c0-3,1.11-4.06,2.48-4.06a1.8,1.8,0,0,1,2,1.83c0,.49,0,.9,0,1.35v5.16h2v-5.37c0-.78,0-1.21-.06-1.7C283.1,729,281.92,728,279.88,728Z"/><path d="M292.55,729.12a7.82,7.82,0,0,0-.63-.55,4.29,4.29,0,0,0-2.27-.59c-2.46,0-4.62,1.65-4.62,5.14,0,2.81,1.6,4.82,4.35,4.82a4.14,4.14,0,0,0,2.45-.71s.4-.34.71-.63c0,.27,0,.55,0,.88a2.51,2.51,0,0,1-2.79,2.64c-1.47,0-2.36-.7-2.48-1.73l0-.16H285.3l0,.18c.19,2.05,1.65,3.2,4.4,3.2s4.68-1.45,4.79-4.35c0-.52,0-1.26,0-1.85v-7.18h-2Zm-2.77,7.39c-1.71,0-2.67-1.5-2.67-3.57,0-2.37,1.19-3.52,2.76-3.52,1.27,0,2.68.86,2.68,3.18V733C292.55,735.57,291.27,736.51,289.78,736.51Z"/><polygon points="309.92 736.04 308.02 728.25 305.61 728.25 303.75 736.02 301.79 728.23 299.56 728.23 302.6 737.78 304.89 737.78 306.79 730.07 308.68 737.78 310.95 737.78 313.99 728.23 311.89 728.23 309.92 736.04"/><rect x="315.3" y="728.23" width="1.98" height="9.55"/><path d="M316.29,724.9a1.15,1.15,0,1,0,0,2.29,1.15,1.15,0,1,0,0-2.29Z"/><path d="M322.17,726h-2v2.28h-1.35v1.39h1.35v5.18c0,.54,0,1,0,1.28.09,1.25.74,1.81,2.23,1.81a10.44,10.44,0,0,0,1.46-.1v-1.37c-1.3.12-1.66-.07-1.73-1,0-.25,0-.47,0-.79v-5h1.88V728.3h-1.88Z"/><path d="M330.89,728a3.62,3.62,0,0,0-2.32.69h0a4.85,4.85,0,0,0-.72.62v-4.81h-2v13.31h2V733.5c0-3,1.11-4,2.48-4.06a1.79,1.79,0,0,1,2,1.83c0,.49,0,.9,0,1.35v5.16h2v-5.37c0-.78,0-1.21-.06-1.7C334.1,729,332.94,728,330.89,728Zm-3.06,1.82h0v0Z"/><path d="M344.09,736.31l-2.63-8.08h-2.22l3.86,10-.15.34a1.92,1.92,0,0,1-1.94,1.5c-.2,0-.4,0-.63,0v1.46a5.21,5.21,0,0,0,.93,0c1.73,0,2.76-.9,3.64-3.17l3.88-10.16h-2.14Z"/><path d="M354,728c-3.22,0-4.84,2.23-4.84,5s1.62,5,4.84,5,4.84-2.24,4.84-5S357.22,728,354,728Zm0,8.62c-1.74,0-2.75-1.44-2.75-3.6s1-3.58,2.75-3.58,2.74,1.42,2.74,3.58S355.75,736.6,354,736.6Z"/><path d="M367,732.73c0,2.77-1.05,3.83-2.43,3.83a1.87,1.87,0,0,1-2.05-1.73,11.18,11.18,0,0,1-.07-1.31v-5.29h-2v5.69a9.94,9.94,0,0,0,.09,1.69c.21,1.31,1.36,2.42,3.34,2.42a3.78,3.78,0,0,0,2.41-.7,4.85,4.85,0,0,0,.67-.68v1.13h2v-9.55h-2Z"/><polygon points="375.22 728.61 375.22 730.75 381.61 733.02 375.22 735.3 375.22 737.42 383.69 734.24 383.69 731.79 375.22 728.61"/></g><path d="M337.05,554.49l.6-.61,0,0v.68l.05-.06H337Z"/><path d="M336.43,555.11l.62-.62,0,0v.65l.05,0h-.68Z"/></g></g></svg>