<svg xmlns="http://www.w3.org/2000/svg" xmlns:xlink="http://www.w3.org/1999/xlink" viewBox="0 0 1374.9 1158.88"><defs><style>.cls-1{fill:#642f0e;}.cls-2{fill:#e83a64;}.cls-3{fill:#57c0db;}.cls-4{fill:#75519c;}.cls-5{fill:#020202;}.cls-6{fill:#111110;}.cls-7{fill:#fff;}.cls-8{fill:#a9a9a9;}.cls-9{fill:#828282;}.cls-10{fill:#3d3d3d;}.cls-11{fill:#e0e0e0;}.cls-12{fill:#969696;}.cls-13{fill:#47ad3b;}.cls-14{fill:#e84a11;}.cls-15{fill:#ca1517;}.cls-16{fill:#3daa35;}.cls-17{fill:#3b3a8f;}.cls-18{fill:#dc9b0b;}.cls-19,.cls-22{fill:#2a160d;}.cls-20{clip-path:url(#clip-path);}.cls-21{opacity:0.14;}.cls-22{opacity:0.11;}.cls-23{opacity:0.29;}.cls-24{fill:#af191f;}.cls-25{fill:#c0850f;}.cls-26{fill:#cc4117;}.cls-27{fill:#308a36;}.cls-28{opacity:0.43;}</style><clipPath id="clip-path"><path class="cls-1" d="M948.3,513.24s-60,27-66.82,42.46C844.12,640.44,752.37,615,752.37,615s-134.53,43.65-74.18,154.48,208.9,86.82,208.9,86.82,216.39-24.44,230.31-207.34S948.3,513.24,948.3,513.24Zm-9.52,94.51a25.71,25.71,0,1,1,18.86-31.09A25.72,25.72,0,0,1,938.78,607.75Z"/></clipPath></defs><title>diseñar</title><g id="Capa_2" data-name="Capa 2"><g id="Capa_3" data-name="Capa 3"><path class="cls-2" d="M278.14,353.41c-4,3.17-4.64,7.49-4,12.19a30.15,30.15,0,0,0,4.16,12.18c1.91,3.12,3.31,6.56,2.65,10.21-1,5.51-5.5,9.12-11.19,9.59-8.73.72-14-6.28-11.37-15.21a17.79,17.79,0,0,0-.26-12c-1.48-3.69-4.29-6.07-8.23-6-8.72.11-15.23-4.16-21.37-9.66-3.69-3.3-7.57-6.44-12.57-7.69-7.08-1.75-12.93.71-18.32,5.08a41.65,41.65,0,0,1-9.47,6.27,22.62,22.62,0,0,1-6.21,1.78c-6.24.77-10.17-2.2-12.85-7.39-1.66-3.21-3.15-6.51-4.77-9.73-4.09-8.11-10.56-12.79-19.7-13.71-8.3-.83-16.55-1.16-23.58,4.37a36,36,0,0,0-9.13,10.48h0c-3.32,3.25-4.8,7.55-6.44,11.72-2.68,6.82-5.17,13.71-10.24,19.24a32.27,32.27,0,0,1-11.29,8.21c-8.61,3.64-17.33-.43-21.41-5.92-6-8-5.83-17.35.16-24.18a48.3,48.3,0,0,1,19.46-13.83c11.89-4.38,19.81-12.86,25.86-23.5a10.57,10.57,0,0,0-8-15.85c-4-.49-8.14-.9-11.9-2.5-8-3.4-10.8-12.25-6.58-20.29,1.72-3.28,3.53-6.52,5.14-9.85,2.89-6,2.5-11.67-1.62-17.06-2.53-3.32-5.9-4.23-9.8-3.85a40.46,40.46,0,0,0-8.14,2.05c-5.09,1.62-9.19.42-11.79-3.41-3.1-4.55-3.21-10.75-.14-14.45A11.06,11.06,0,0,1,63.48,227c3.25-.18,6.51,0,9.77-.1a11,11,0,0,0,8.1-3.79c3.22-3.59,3.44-8.59,0-11.9-3.06-2.92-6.51-5.44-9.77-8.16-7.27-6.06-7.68-18.12,1-23.51s10-13.72,8.63-23c-.79-5.3-2.5-10.23-6.2-14.18-4.47-4.75-10.61-5.63-16.63-6.19-6.57-.61-13.25-.24-19.61-2.3-9-2.94-15.62-7.93-16.59-17.51-1.31-13,10.95-24.85,23.61-22.44,7.22,1.38,12.7,5.83,17.22,11.51,3.36,4.24,5.74,9.28,10.18,12.62,6.88,5.19,14.26,7.45,22.47,3.12a10.53,10.53,0,0,0,5.65-7.21c1.7-7.17,3.87-14.18,9.17-19.65,4.11-4.24,8.67-7.46,15.09-7.28a74.67,74.67,0,0,1,12,1.55c7.6,1.45,11.46-1.73,11.6-9.41a69.78,69.78,0,0,0-.49-8.67c-.41-3.78-1-7.55-.65-11.37.36-3.5,1.16-6.82,4.38-8.9,3.43-2.23,10.08-1.71,13.14,1.26s5.72,6,8.51,9.09c6.51,7.14,17.37,5.53,23.54,1.84,3-1.78,5.43-4.2,8.2-6.22,7.95-5.79,16.12-5.21,22,2.61,8.79,11.72,20.19,13.88,33.53,10.85A46.76,46.76,0,0,0,278,62.75c6.32-4.41,8.67-11.08,10.12-18.23,1.29-6.37,2.05-12.84,3.87-19.12C295.83,12,309.68,8.83,319.61,13.6c10.32,5,12.88,16,6.36,26.71-3.74,6.14-9,10.83-14.24,15.51-5,4.45-9.32,9.17-10.78,16.1-2.4,11.39,4.08,20.16,15.68,20.64a80.69,80.69,0,0,1,12.42,1.16c8.69,1.75,14.63,8.66,15.6,17.79.42,4,.88,7.91,1.5,11.84,1.76,11.28,13.88,17.77,23.83,12.86a17,17,0,0,0,4-3.18c3-2.79,5.94-5.39,10.41-5.77,6.54-.56,10.93,6.26,11.4,10.58a22.66,22.66,0,0,1,.21,4.72c-.6,6.18-4.24,9.3-10.75,9.9-4.26.39-8.56.26-12.71,2.1-10,4.44-10.8,15.74-1.25,21.75a44.18,44.18,0,0,1,7.87,5.76c5.92,5.89,6.37,12.86,3.69,20.32-1.82,5-4.88,9.46-7.36,14.16A18.36,18.36,0,0,0,374,230.73c1.25,4.34,5.38,7,11.15,7.57a50.21,50.21,0,0,0,25.18-3.61c6-2.51,12.07-4.7,18.77-4.74,15-.1,25.07,12.74,21,27-2.1,7.45-8.77,12.44-17.67,13.39-9.09,1-17.3-1.93-25.42-5.45-10.78-4.66-21.83-5.46-33-1.68a24,24,0,0,0-16.36,22.42,45.07,45.07,0,0,0,.16,6.78c.59,4.44-.11,8.46-3,12-3.14,1.36-5.93,3.45-9.33,4.25-.64.15-1.16.77-1.74,1.17l-.19,0-.13.14c-1.73.17-2.42,1.52-3.19,2.78a2.32,2.32,0,0,0,0,3.27,2.72,2.72,0,0,0,1,2.2c.84,1.49,1.72,3,2.5,4.48,3.38,6.6,3,10.62-3.51,16-.35.29-.72.55-1.09.82l-3.82,2.05-.52.14a8.8,8.8,0,0,1-9.08-1.56c-1.49-1.2-2.6-2.72-3.94-4-2.06-2-4.36-4.08-7.47-3a13,13,0,0,0-7.7,6.33L305.24,342c-1.59,1.51-2.61,3.48-4.47,4.8-3.47,2.47-7.31,2.79-11.31,2.38C285,348.75,281.07,349.73,278.14,353.41Z"/><path class="cls-2" d="M364.16,343.66c9.41.51,17.53,3.43,22.08,12.51,2.93,5.84,2.39,11.52-2.12,16.3C373.33,383.9,360,383,351.34,369.85c-3.11-4.69-4.8-9.86-4.11-15.64.53-4.48,3.17-7.16,7.09-8.81A21.44,21.44,0,0,1,364.16,343.66Z"/><path class="cls-2" d="M14.63,168.71A19.65,19.65,0,0,1,25,171.14c6.75,3.67,7.61,10.67,1.8,15.56a23.22,23.22,0,0,1-15.92,5.81C5.29,192.35,1,188,.1,181.86a11.28,11.28,0,0,1,7.55-12.08A20.25,20.25,0,0,1,14.63,168.71Z"/><path class="cls-2" d="M151.14,405.53c-.07,4-.3,8.36-2.37,12.33-1.83,3.5-6,4.89-10.33,3.51a8,8,0,0,1-5.37-8.44c.59-4.55,2.9-8.3,5.64-11.84,1.94-2.52,4-4.89,7-6.2,2.52-1.09,3.57-.58,4.47,2S151.08,402.39,151.14,405.53Z"/><path class="cls-2" d="M257.75,13.15c0,.63,0,1.26,0,1.9-.16,4.14-1.82,6.28-5.23,6.71s-6.18-1.41-7.28-4.92c-1.28-4.07-2-8.17-.42-12.36A6.37,6.37,0,0,1,250.65,0c2.67-.22,3.89,1.52,5,3.46A19.54,19.54,0,0,1,257.75,13.15Z"/><path class="cls-2" d="M294.51,431.69c0,4.66-4.5,8.76-9.38,8.63a9,9,0,0,1-8.87-8.83c.06-4.24,5.06-8.3,10.18-8.29A8.23,8.23,0,0,1,294.51,431.69Z"/><path class="cls-2" d="M438.75,189.29a14.6,14.6,0,0,1-4.6-.42c-2.14-.61-4.32-1.29-4.56-4-.26-2.91.26-5.68,3-7.37a15.19,15.19,0,0,1,12.28-1.7c2.54.65,4.06,2.95,4.22,6s-1,5.29-3.7,6.26A15.46,15.46,0,0,1,438.75,189.29Z"/><path class="cls-2" d="M16.41,311.22c-4.57,0-7.23-2.62-7.18-7a9.6,9.6,0,0,1,9.82-9.46,7.44,7.44,0,0,1,7.37,7.4C26.42,306.93,21.66,311.24,16.41,311.22Z"/><path class="cls-2" d="M376.21,28.54c.06,3.23-1.38,5.91-3,8.52a5,5,0,0,1-5,2.52c-2.52-.29-3.72-2.25-4.39-4.32-1.37-4.26,3.33-10.83,7.81-11.21C375,23.77,376.28,25,376.21,28.54Z"/><path class="cls-2" d="M103.22,33.62a5.72,5.72,0,0,1,5.35,5.69c0,3.14-2.07,5.37-5.24,5.16-3.53-.24-5.87-1.38-5.62-5.26C97.93,35.88,100,33.61,103.22,33.62Z"/><path class="cls-3" d="M420.2,673.06c-1.53,4.89.4,8.81,3.54,12.34a30.44,30.44,0,0,0,10.32,7.72c3.33,1.49,6.43,3.54,7.94,6.93,2.28,5.11.6,10.63-3.82,14.22-6.81,5.53-15.1,2.72-18-6.13a17.79,17.79,0,0,0-6.95-9.73c-3.31-2.21-7-2.59-10.2-.32-7.14,5-14.93,5.16-23.09,4.08-4.91-.64-9.89-1-14.72.76-6.83,2.53-10.27,7.87-12.26,14.52A41.32,41.32,0,0,1,348.7,728a22.16,22.16,0,0,1-4.12,5c-4.71,4.16-9.63,3.93-14.78,1.15-3.18-1.71-6.26-3.59-9.43-5.33-7.95-4.38-15.93-4.6-24-.2-7.33,4-14.32,8.38-17,16.91a36.11,36.11,0,0,0-1.63,13.8v0c-.91,4.56.3,9,1.3,13.31,1.64,7.14,3.47,14.24,2.4,21.66a32.2,32.2,0,0,1-4.69,13.16c-5.05,7.86-14.54,9.42-21,7.18-9.43-3.25-14.61-11-13.51-20a48.26,48.26,0,0,1,8.26-22.4c7.34-10.33,9.09-21.8,8.08-34A10.57,10.57,0,0,0,243,729.59c-3.58,1.85-7.23,3.85-11.24,4.66-8.53,1.71-15.82-4-16.87-13-.43-3.67-.77-7.36-1.32-11-1-6.57-4.53-11-11-13.18-4-1.31-7.27-.16-10.27,2.36a40.57,40.57,0,0,0-5.56,6.28c-3.29,4.22-7.35,5.54-11.66,3.85-5.13-2-8.72-7.07-8.27-11.86a11.07,11.07,0,0,1,4.74-7.81c2.59-2,5.4-3.66,8-5.59a11,11,0,0,0,4.54-7.71c.64-4.78-2-9-6.73-9.8-4.18-.69-8.45-.82-12.67-1.23-9.42-.89-16.57-10.62-12.49-19.94s.53-17-5.86-23.87c-3.65-3.92-7.84-7-13.12-8.2-6.37-1.4-11.94,1.33-17.23,4.27C110.32,621,105,625,98.59,626.92c-9.12,2.68-17.36,2.27-23.57-5.09-8.41-10-5-26.69,6.82-31.85,6.74-2.94,13.78-2.35,20.72-.21,5.16,1.59,10,4.41,15.52,4.67,8.61.39,16-1.9,20.32-10.11a10.54,10.54,0,0,0,.59-9.14c-2.65-6.88-4.81-13.89-3.52-21.4,1-5.81,2.95-11,8.35-14.52a74,74,0,0,1,10.82-5.52c7.1-3.1,8.48-7.9,4.27-14.32a70.67,70.67,0,0,0-5.3-6.88c-2.47-2.89-5.12-5.65-7-9-1.68-3.09-2.89-6.28-1.41-9.82,1.58-3.77,7.36-7.1,11.56-6.37s8.12,1.74,12.16,2.7c9.39,2.22,17.45-5.24,20.46-11.77,1.45-3.14,2.12-6.53,3.26-9.76,3.3-9.27,10.37-13.4,19.62-10.26,13.87,4.72,24.5.07,33.81-10A46.62,46.62,0,0,0,256,433.22c2.74-7.21.91-14-1.93-20.76-2.53-6-5.56-11.76-7.6-18-4.36-13.28,5.3-23.69,16.19-25.36C274,367.4,282.33,375.09,283,387.6c.37,7.18-1.31,14-3,20.83-1.62,6.5-2.52,12.84.19,19.38,4.45,10.76,14.74,14.35,24.59,8.2A79.66,79.66,0,0,1,315.67,430c8.16-3.46,17-1.11,22.92,5.89,2.57,3,5.19,6,7.92,8.92,7.82,8.32,21.48,6.84,26.93-2.83A17,17,0,0,0,375,437c.89-4,1.86-7.8,5.34-10.63,5.08-4.15,12.56-1,15.38,2.3a22.51,22.51,0,0,1,2.84,3.78c3,5.44,1.75,10.07-3.29,14.24-3.3,2.72-6.92,5-9.3,8.9-5.76,9.31,0,19.1,11.24,18.66a44,44,0,0,1,9.74.32c8.21,1.52,12.52,7,14.51,14.69,1.35,5.19,1.32,10.56,1.93,15.85a18.37,18.37,0,0,0,6.79,12.53c3.48,2.87,8.38,2.72,13.47,0a50.13,50.13,0,0,0,18.76-17.19c3.5-5.43,7.31-10.69,12.81-14.51,12.33-8.54,27.89-3.63,32.63,10.44,2.47,7.34-.22,15.22-7,21s-15.37,8.17-24,9.85c-11.54,2.23-21.12,7.81-28.23,17.25a24,24,0,0,0-.85,27.74,42.58,42.58,0,0,0,4,5.51c3,3.33,4.68,7,4.31,11.58-1.82,2.89-2.94,6.2-5.31,8.78a6,6,0,0,0-.77,1.94l-.17.08,0,.19c-1.34,1.11-1.14,2.61-1.07,4.09a2.31,2.31,0,0,0,1.83,2.71,2.68,2.68,0,0,0,2.09,1.24c1.53.76,3.09,1.47,4.59,2.29,6.51,3.54,8.5,7.05,6.13,15.18-.13.43-.29.86-.44,1.28-.66,1.29-1.33,2.57-2,3.85l-.34.42a8.84,8.84,0,0,1-8.38,3.84c-1.91-.16-3.68-.79-5.53-1.11-2.82-.49-5.9-.91-7.87,1.73a13.06,13.06,0,0,0-2.78,9.57c.1,1,.19,2,.29,3-.47,2.14-.2,4.35-1,6.49-1.47,4-4.45,6.43-8,8.34C423.21,665.36,420.54,668.37,420.2,673.06Z"/><path class="cls-3" d="M485.71,616.47c8.05-4.89,16.4-7.07,25.28-2.14,5.72,3.17,8.48,8.17,7.46,14.65-2.46,15.53-14,22.26-28.54,16.34-5.22-2.12-9.53-5.42-12.23-10.59-2.08-4-1.42-7.7.88-11.27A21.44,21.44,0,0,1,485.71,616.47Z"/><path class="cls-3" d="M98.42,669.3a19.78,19.78,0,0,1,9.93-3.84c7.64-.77,12.31,4.51,10.26,11.83a23.22,23.22,0,0,1-9.85,13.78c-4.7,3-10.73,1.9-14.91-2.71a11.29,11.29,0,0,1-.58-14.23A20.23,20.23,0,0,1,98.42,669.3Z"/><path class="cls-3" d="M344.77,787.76c2.21,3.36,4.47,7.07,5,11.52.47,3.92-2.2,7.43-6.54,8.72a8,8,0,0,1-9.2-3.93c-2.08-4.09-2.29-8.49-2-13,.18-3.17.54-6.29,2.29-9.07,1.46-2.31,2.61-2.49,4.81-.88S343,785.2,344.77,787.76Z"/><path class="cls-3" d="M211.34,403.68c.35.52.72,1,1.06,1.56,2.21,3.52,2,6.22-.53,8.5s-5.89,2.33-8.78.05c-3.36-2.64-6.3-5.59-7.33-10a6.37,6.37,0,0,1,2.3-7c2.09-1.68,4.07-.94,6.05.06A19.6,19.6,0,0,1,211.34,403.68Z"/><path class="cls-3" d="M477.89,728.44c2.6,3.87,1.23,9.78-2.87,12.42a9,9,0,0,1-12.31-2.28c-2.33-3.53-.51-9.71,3.73-12.59A8.24,8.24,0,0,1,477.89,728.44Z"/><path class="cls-3" d="M460.16,446.94a14.31,14.31,0,0,1-4,2.24c-2.11.71-4.29,1.37-6-.7-1.86-2.26-3-4.84-1.72-7.76a15.22,15.22,0,0,1,9.18-8.33c2.47-.9,5,.13,6.88,2.57s2.12,5,.47,7.25A15.38,15.38,0,0,1,460.16,446.94Z"/><path class="cls-3" d="M180.32,785.94c-3.78,2.56-7.45,1.92-9.88-1.73a9.63,9.63,0,0,1,2.76-13.36,7.46,7.46,0,0,1,10.27,2C186.17,776.75,184.67,783,180.32,785.94Z"/><path class="cls-3" d="M317.82,349.53c1.86,2.63,2.19,5.66,2.28,8.75a5,5,0,0,1-2.71,4.91c-2.24,1.18-4.35.24-6.06-1.09-3.54-2.75-3.37-10.82.12-13.66C314.1,346.28,315.89,346.59,317.82,349.53Z"/><path class="cls-3" d="M95.32,507.78a5.71,5.71,0,0,1,7.63,1.69c1.78,2.58,1.32,5.59-1.42,7.21-3,1.8-5.62,2.17-7.6-1.17C92.23,512.64,92.64,509.6,95.32,507.78Z"/><path class="cls-4" d="M835.11,246c1.29,4.92,4.74,7.44,8.92,9.1a27.27,27.27,0,0,0,11.76,2.07c3.3-.19,6.7.2,9.56,2.46a12.8,12.8,0,0,1,4.24,14c-2.42,7.81-10.18,9.07-16.83,2.7-3-2.87-6.33-4.84-10.21-5.31-3.64-.45-6.63.86-7.95,4.25-2.93,7.52-8.81,11.1-15.59,13.81-4.08,1.63-8.08,3.5-10.87,7.2-3.95,5.23-3.89,11.37-2.06,18a44.41,44.41,0,0,1,2,11,22.09,22.09,0,0,1-.64,6.12c-1.51,5.7-5.39,7.68-10.72,7.58-3.29-.07-6.6-.32-9.89-.42-8.28-.25-14.49,3.12-18.44,10.5-3.59,6.72-6.72,13.62-4.48,22.18a40.49,40.49,0,0,0,5.71,12.65h0c1.6,4.35,4.73,7.61,7.69,10.93,4.84,5.44,9.82,10.76,12.74,17.65a35,35,0,0,1,3,13.46,15.17,15.17,0,0,1-12.44,15.56c-8.84,1.38-16.71-3-20.41-11.31a52.35,52.35,0,0,1-5-23c.42-12.19-4-22.88-10.93-33-4.42-6.46-12.77-6.56-16.2-.49-1.8,3.19-3.58,6.55-6.24,9-5.66,5.27-14.11,3.57-19.46-3.77-2.18-3-4.29-6-6.56-8.94-4.06-5.23-9-7.53-15-6.5-3.69.63-5.63,3.09-6.66,6.6a38.86,38.86,0,0,0-1.09,7.9c-.39,5.11-2.83,8.05-7,8.51A12.51,12.51,0,0,1,653.89,380a11.4,11.4,0,0,1-.31-8.86c1-2.86,2.29-5.56,3.32-8.4a11.38,11.38,0,0,0-.41-8.68c-1.92-4.42-6.07-6.92-10.08-5.48-3.54,1.27-6.87,3.05-10.3,4.58-7.65,3.42-18-1.81-19.57-11.68s-8.14-14.91-16.49-18c-4.76-1.76-9.53-2.59-14.16-1.25-5.57,1.62-8.45,6.47-11,11.36-2.8,5.33-4.8,11.22-8.75,15.71-5.63,6.37-12.13,9.68-20.58,6.08-11.44-4.87-17.24-20.85-10.81-30.55,3.67-5.54,9.35-8.17,15.72-9.4,4.75-.92,9.85-.63,14.21-2.88,6.78-3.49,11.26-8.75,10.45-17.77a11.82,11.82,0,0,0-4.15-8.16c-5.49-4.77-10.67-9.87-13.46-16.93-2.16-5.47-3.31-10.86-.93-16.27a64.35,64.35,0,0,1,5.49-9.58c3.87-5.83,2.51-10.6-3.94-14.27a68.77,68.77,0,0,0-7.51-3.59c-3.34-1.4-6.75-2.61-9.85-4.71-2.84-1.92-5.37-4.14-6-7.85-.69-4,2-9.41,5.63-10.65s7.08-2.11,10.65-3.08c8.29-2.26,10.7-12.29,9.72-19.27-.48-3.36-1.67-6.59-2.42-9.89-2.15-9.48,1.18-16.2,9.83-17.59,13-2.1,18.75-10.85,20.82-23.66a47.67,47.67,0,0,0,0-17.42c-1.54-7.44-6.37-12.53-11.92-17.08-4.95-4-10.17-7.69-14.85-12.14-10-9.54-7.87-22.83-.39-29.12,7.77-6.54,18-3.61,24.82,6.91,3.9,6,6,12.68,8.19,19.35,2,6.33,4.54,12.21,9.9,16.66,8.81,7.31,18.48,5.83,22.91-3.86a68,68,0,0,1,5.29-10.09c4.5-6.62,12.41-8.51,20.48-5.11,3.49,1.47,7,2.9,10.54,4.19,10.16,3.7,19.86-3.66,19.15-14.44a18.79,18.79,0,0,0-1.3-4.9c-1.33-3.83-2.5-7.57-1.27-11.56,1.79-5.85,9.09-6.46,12.91-4.86a22.59,22.59,0,0,1,4.07,2c5,3.37,6.4,7.93,4.65,13.77C701,65.35,699.38,69,699.5,73.37c.29,10.6,9.58,16.51,18,11.12a34.35,34.35,0,0,1,7.61-4.06c7-2.35,13.09.5,18.48,6.24,3.64,3.88,6.32,8.54,9.44,12.83a19.15,19.15,0,0,0,11.49,7.81c4.12.93,7.78-1.38,10.28-6a47.07,47.07,0,0,0,5.68-23.2c-.06-6.26.21-12.5,2.5-18.25,5.11-12.86,19.48-15.54,30.18-5.49,5.59,5.24,7.49,13.25,5.21,21.3-2.33,8.22-7.63,13.89-13.43,19.21A39.2,39.2,0,0,0,792,122.32a26.58,26.58,0,0,0,13.32,24.35,44.3,44.3,0,0,0,5.8,3,16,16,0,0,1,9.12,8.09c.06,3.3.87,6.66.36,9.94a6.67,6.67,0,0,0,.39,2l-.09.15.07.18c-.46,1.55.44,2.76,1.24,4a6.09,6.09,0,0,0,5,1.66c1.56,0,3.11-.09,4.66-.06,6.76.16,10,2.31,12.32,10.4.13.43.22.86.32,1.3.14,1.4.27,2.81.41,4.21l-.06.52c-.16,3.37-1.6,5.7-4.47,7a47.31,47.31,0,0,1-4.78,1.51c-2.41.83-5,1.84-5.14,5a14.25,14.25,0,0,0,2.69,9.51l1.72,2.45c.72,2,2,3.85,2.51,6,.88,4.11-.17,7.54-1.91,10.77A11.81,11.81,0,0,0,835.11,246Z"/><path class="cls-4" d="M856.7,168c3.69-7.81,9-13.4,18.24-13.1,6,.2,10.59,3.29,13.07,9.35,5.94,14.51.51,25.46-13.59,26.82a21.19,21.19,0,0,1-14.67-3.71c-3.6-2.53-5-6-5-10.14A20.3,20.3,0,0,1,856.7,168Z"/><path class="cls-4" d="M587.32,386a16.33,16.33,0,0,1,5.65-7.74c5.45-4.07,11.68-1.58,13.8,5.66,1.66,5.65,1.66,11.19-.6,16.29-2.07,4.7-7.24,6.41-12.75,4.29a12.43,12.43,0,0,1-7.61-12A19,19,0,0,1,587.32,386Z"/><path class="cls-4" d="M835.18,378.7c3.38,1.92,7,4.12,9.62,7.73a8.24,8.24,0,0,1-.61,10.45,6.78,6.78,0,0,1-9,.69c-3.64-2.6-6-6.31-8.07-10.29-1.45-2.82-2.75-5.68-2.81-8.86,0-2.65.74-3.31,3.23-2.9S832.51,377.3,835.18,378.7Z"/><path class="cls-4" d="M540,106.16c.53.29,1.08.57,1.6.88,3.46,2,4.69,4.46,3.87,7.58s-3.33,4.63-6.69,3.95c-3.89-.79-7.62-2-10.61-5.36a6.86,6.86,0,0,1-1.75-7.06c.74-2.38,2.63-2.62,4.65-2.63A18.17,18.17,0,0,1,540,106.16Z"/><path class="cls-4" d="M907.06,268.2a10,10,0,0,1,4.06,12,7.38,7.38,0,0,1-10.55,3.5c-3.57-2-5.28-8.17-3.49-12.54C898.65,267.34,903.11,266,907.06,268.2Z"/><path class="cls-4" d="M751.87,32.82a12.31,12.31,0,0,1-2,3.74c-1.25,1.55-2.59,3.09-4.93,2.06-2.56-1.12-4.73-2.85-5.22-5.94a14.23,14.23,0,0,1,2.82-11.29c1.44-1.87,3.91-2.11,6.55-.83s4.11,3.33,4,6.06A14.6,14.6,0,0,1,751.87,32.82Z"/><path class="cls-4" d="M708.6,450.3c-1.6,3.9-4.73,5-8.42,2.9a10.39,10.39,0,0,1-4.61-12.77,6.11,6.11,0,0,1,8.82-2.88C708.44,439.76,710.44,445.82,708.6,450.3Z"/><path class="cls-4" d="M594.08,12c2.74,1.44,4.52,3.92,6.15,6.55a5.14,5.14,0,0,1,.39,5.45c-1.12,2-3.2,2.14-5.18,1.75-4.08-.8-8-7.85-6.78-11.86C589.6,10.83,591.12,10.3,594.08,12Z"/><path class="cls-4" d="M503.68,247.74c1-2.41,4.11-3.32,6.67-1.93s3.83,4.24,2.55,6.86c-1.43,2.91-3.2,4.38-6.4,2.37C503.76,253.31,502.54,250.51,503.68,247.74Z"/><path class="cls-4" d="M844.14,91.43c6.2.33,11.54,2.25,14.54,8.24,1.93,3.85,1.58,7.59-1.39,10.73-7.11,7.53-15.88,6.91-21.59-1.72A15,15,0,0,1,833,98.38c.35-2.95,2.09-4.72,4.67-5.81A14,14,0,0,1,844.14,91.43Z"/><path class="cls-4" d="M506.09,163.16c6.2.33,11.55,2.26,14.55,8.24,1.93,3.85,1.57,7.59-1.4,10.74-7.11,7.52-15.88,6.9-21.59-1.73a15,15,0,0,1-2.71-10.3c.35-3,2.09-4.72,4.67-5.81A14.19,14.19,0,0,1,506.09,163.16Z"/><path class="cls-3" d="M440.5,670.53a12.92,12.92,0,0,1,4.19-5.62c4-3.11,8.45-1.79,9.87,3a15.21,15.21,0,0,1-.68,11.13c-1.56,3.33-5.32,4.82-9.26,3.71a7.42,7.42,0,0,1-5.31-7.73A13.28,13.28,0,0,1,440.5,670.53Z"/><path class="cls-3" d="M437.31,725.65a13,13,0,0,1,6.83,1.6c4.44,2.42,5,7,1.18,10.25a15.33,15.33,0,0,1-10.48,3.83c-3.68-.11-6.54-3-7.1-7a7.43,7.43,0,0,1,5-7.95A13.16,13.16,0,0,1,437.31,725.65Z"/><path class="cls-2" d="M90.66,461.88a9.37,9.37,0,0,1-3-.28c-1.41-.4-2.85-.85-3-2.61-.18-1.92.17-3.75,2-4.86A10,10,0,0,1,94.67,453c1.67.43,2.68,1.94,2.78,3.95s-.69,3.49-2.44,4.13A10.19,10.19,0,0,1,90.66,461.88Z"/><path class="cls-2" d="M438.94,103.49a9.68,9.68,0,0,1-3-.28c-1.41-.4-2.84-.85-3-2.61-.17-1.92.17-3.75,1.95-4.86A10,10,0,0,1,443,94.62c1.67.43,2.68,1.94,2.78,3.95s-.69,3.49-2.44,4.13A10.19,10.19,0,0,1,438.94,103.49Z"/></g><g id="Capa_2-2" data-name="Capa 2"><polygon class="cls-5" points="854.95 511.35 326.12 689.03 313.18 689.96 195.63 245.19 207.25 242.74 764.95 228.24 854.95 511.35"/><polygon class="cls-6" points="868.12 508.61 326.12 689.03 207.25 242.74 778.12 225.5 868.12 508.61"/><polygon class="cls-7" points="855.12 499.04 416.12 642.03 311.54 254.85 772.12 238.03 855.12 499.04"/><polygon class="cls-8" points="519.63 608.32 416.12 642.03 311.54 254.85 417.99 250.96 519.63 608.32"/><path class="cls-9" d="M331.81,446.9c1.24,10.78-5.39,20.19-15,21-9.81.87-19-7.52-20.27-18.74s5.83-20.67,15.69-21.08C321.9,427.7,330.57,436.12,331.81,446.9Z"/><path class="cls-10" d="M334.45,492.35c1.67,6.2-1.33,12.43-6.77,13.95s-11.42-2.36-13.13-8.7,1.46-12.62,7-14S332.79,486.16,334.45,492.35Z"/><path class="cls-10" d="M343.87,525.69c1.67,6.19-1.34,12.43-6.78,13.94s-11.41-2.35-13.12-8.7,1.45-12.62,7-14S342.2,519.49,343.87,525.69Z"/><path class="cls-10" d="M299.12,365.15c1.67,6.2-1.33,12.43-6.77,13.94s-11.42-2.35-13.13-8.69,1.46-12.62,7-14S297.45,359,299.12,365.15Z"/><path class="cls-10" d="M308.54,398.48c1.66,6.2-1.34,12.43-6.78,13.95s-11.42-2.36-13.13-8.7,1.46-12.62,7-14S306.87,392.29,308.54,398.48Z"/><path class="cls-11" d="M329.28,447.06c1.06,9.21-4.61,17.22-12.79,17.91-8.34.7-16.11-6.44-17.2-16s4.93-17.56,13.3-17.94S328.22,437.86,329.28,447.06Z"/><polygon class="cls-12" points="776.23 250.96 318.51 280.65 311.54 254.85 772.12 238.03 776.23 250.96"/><polygon class="cls-13" points="231.12 253 217.46 253.54 216.21 248.9 230.17 248.39 231.12 253"/><polygon class="cls-12" points="855.12 499.04 416.12 642.03 410.11 619.76 851.81 488.61 855.12 499.04"/></g><g id="Capa_5" data-name="Capa 5"><path class="cls-4" d="M532.15,335.9l-6.86,39.51S560.62,393,560.62,390.8s-7-40.52-7-40.52Z"/><path class="cls-14" d="M574.88,333.54l26.35,62.3s44.39,72.53,50.39,72.15,61.4-90.86,53-91.73-159-47.46-159-47.46l51.2-15.69Z"/><polygon class="cls-15" points="694.86 311.22 652.62 397.63 713.62 454.24 746.35 415.47 702.08 328.8 694.86 311.22"/><polygon class="cls-4" points="734.62 289.62 687.14 363.73 787.73 389.46 734.62 289.62"/><polygon class="cls-16" points="639.62 294.75 571.62 431.76 605.62 423.2 639.62 294.75"/><polygon class="cls-17" points="526.02 441.76 526.02 528.31 639.62 532.62 526.02 441.76"/><polygon class="cls-18" points="488.62 343.62 470.45 398.95 532.07 401.11 488.62 343.62"/><polygon class="cls-3" points="513.42 294.75 503.25 343.62 518.66 350.28 537.68 302.98 513.42 294.75"/><path class="cls-15" d="M457,294.75c-1.34,4.87,33.66,41.15,33.66,41.15l12.63-41.15Z"/><polygon class="cls-2" points="594.83 280.65 731.34 294.75 720.62 271.62 535.84 275.94 545.66 294.75 567.24 283.18 594.83 280.65"/><path class="cls-2" d="M787.73,438.19l-4.6,1.85-96,38.58,9.11,21,91.48-16.3-24.92-26.05L796.17,448s-1.45-27.26,0-24.84,23.45,34.07,23.45,34.07Z"/><polygon class="cls-3" points="809.62 465.02 796.17 488.61 814.62 488.61 809.62 465.02"/><path class="cls-16" d="M639.62,495c2,3.64,42,33.33,42,33.33l-12.93-41.12-29.07,1.42Z"/></g><g id="Capa_4" data-name="Capa 4"><path class="cls-6" d="M949.57,250.72l-221.72,95.5c-.44.19-.86.4-1.27.62-3.25,1.28-14.64,7-30.33,28.55,26.44,3.41,38.42-.94,41.58-2.42.44-.14.89-.31,1.32-.49L960.88,277a14.29,14.29,0,0,0,7.47-18.78h0A14.3,14.3,0,0,0,949.57,250.72Z"/><rect class="cls-10" x="764.1" y="338.34" width="14.29" height="9.5" transform="translate(-72.81 333.07) rotate(-23.3)"/><rect class="cls-10" x="780.58" y="331.24" width="14.29" height="9.5" transform="translate(-68.66 339.01) rotate(-23.3)"/></g><g id="Capa_6" data-name="Capa 6"><path class="cls-19" d="M957.29,526.12s-60,27-66.83,42.46c-37.35,84.74-129.1,59.28-129.1,59.28s-134.53,43.65-74.18,154.47,208.9,86.83,208.9,86.83,216.39-24.44,230.31-207.34S957.29,526.12,957.29,526.12Zm-9.52,94.51a25.71,25.71,0,1,1,18.86-31.09A25.72,25.72,0,0,1,947.77,620.63Z"/><path class="cls-1" d="M948.3,513.24s-60,27-66.82,42.46C844.12,640.44,752.37,615,752.37,615s-134.53,43.65-74.18,154.48,208.9,86.82,208.9,86.82,216.39-24.44,230.31-207.34S948.3,513.24,948.3,513.24Zm-9.52,94.51a25.71,25.71,0,1,1,18.86-31.09A25.72,25.72,0,0,1,938.78,607.75Z"/><g class="cls-20"><g class="cls-21"><path class="cls-22" d="M598.21,750.06c7.84-7,15.73-13.86,23.94-20.45,10.27-8.24,21-16,31.79-23.5,19.52-13.58,39.65-26.23,59.93-38.63,54.65-33.42,110.32-65.19,166.27-96.39,48.23-26.9,96.65-53.49,145-80.15,55.17-30.41,110.45-60.61,165.42-91.36.73-.4.83-4.92-.27-4.31q-82.66,45.8-165.45,91.35C970.92,516.38,916.9,546,863.2,576.15c-44.61,25.07-89,50.56-132.81,77-23.51,14.15-47,28.43-69.67,43.95q-13.07,9-25.78,18.38-9.54,7.06-18.64,14.66-9.24,7.35-17.82,15.44a8.29,8.29,0,0,0-.16,2.26A9.6,9.6,0,0,1,598.21,750.06Z"/><path class="cls-22" d="M592.48,782.32c9-9.29,18.12-18.37,27.84-27s20.06-17,30.56-24.91c21.09-15.88,43.26-30.29,65.66-44.23C769.89,653,824.42,621.71,879.22,591c53.72-30.14,107.72-59.8,161.64-89.58,60.88-33.62,121.67-67.42,182.71-100.77.19-.1-1.64-1.66-1.59-1.62-.13-.11-1.5-1.52-1.85-1.32-58.12,31.75-116,63.93-174,95.95C989.31,525,932.37,556.2,875.78,588c-52.48,29.5-104.69,59.52-155.94,91.11-22.48,13.85-44.71,28.11-66,43.71-10.63,7.78-21.05,15.85-31.07,24.4-11.84,10.11-22.87,21-33.72,32.14C589,779.39,592.33,782.47,592.48,782.32Z"/><path class="cls-22" d="M581.21,777.06c9.37-9.43,18.71-18.76,28.7-27.52,9.64-8.46,19.63-16.54,29.84-24.31,20.84-15.87,42.82-30.22,65-44.11,52.94-33.14,107.15-64.28,161.57-94.9,53.41-30,107.1-59.57,160.7-89.27l86.42-47.88q21.61-12,43.21-23.95c18.74-10.36,37.6-20.46,56.54-30.45,1.09-.58,0-4.79-.59-4.49-17.49,8.8-34.9,17.64-52,27.09q-21.57,11.88-43.08,23.9L1031.6,488.9C975.36,520.14,919,551.13,863,582.75,811,612.07,759.32,641.84,708.67,673.33c-22.18,13.8-44.12,28-65.13,43.55Q628.47,728,614.29,740.25l-11.87,10.44Q590.81,761.53,579.77,773C579.11,773.63,580.18,778.1,581.21,777.06Z"/><path class="cls-22" d="M592.18,751.74c9.83-8.75,19.51-17.71,29.72-26s20.68-16.3,31.42-23.94c21.5-15.3,43.89-29.36,66.43-43.09,51.91-31.6,104.62-61.87,157.66-91.53,53.87-30.12,108-59.79,162.06-89.58L1127,429.34c28.79-15.85,57.64-31.59,86-48.18.52-.3,1-1.41,1.27-1.87a12.34,12.34,0,0,1,1.1-2c-57.83,32.48-116.06,64.27-174.13,96.32-54,29.81-108.13,59.5-162,89.64-53,29.67-105.74,59.88-157.57,91.58-22.49,13.76-44.94,27.74-66.35,43.14q-12.83,9.22-25.25,19c-12.41,9.79-24,20.55-35.74,31.08a12.26,12.26,0,0,0-1.72,2.7C592.77,750.56,591.83,752.05,592.18,751.74Z"/><path class="cls-22" d="M588.31,774q10.41-10.71,21.16-21.08,11.44-10.82,23.61-20.82l-.72.58c8.29-6.6,16.59-13.15,25.12-19.44,10.46-7.71,21.29-15,32.15-22.09,21.44-14.06,43.33-27.43,65.33-40.6,49.2-29.45,99.06-57.79,149.13-85.71q72.38-40.35,145-80.31l78.11-43.21,43.43-24q8.72-4.83,17.45-9.63,13.86-7.86,28.33-14.55a2.26,2.26,0,0,0,.6-3.43c-.91-1.33-3-.66-4.18-.12A349.39,349.39,0,0,0,1175.44,407q-9.35,4.69-18.44,9.85-21.54,11.88-43,23.92l-85.55,47.74c-55.93,31.2-112,62.12-167.68,93.77q-41.17,23.4-82,47.4c-23.64,14-47.24,28-70.39,42.81-21.47,13.68-42.73,27.74-62.89,43.31q-14.44,11.15-28,23.34l-11,10.25q-10.05,9.76-19.21,20.37c-.7.78-.51,2.27-.34,3.22C587,773.45,587.56,774.79,588.31,774Z"/><path class="cls-22" d="M592.29,759.73l21.63-22.37,34.3-28.24c14.32-11.1,29.74-21.15,45-31,21.85-14.06,44.11-27.47,66.43-40.76,49.45-29.46,99.57-57.79,149.89-85.72q72.69-40.36,145.6-80.35l78.42-43.21c28.91-15.93,57.9-31.71,86.37-48.4a19.21,19.21,0,0,0,2.53-2c-.22.2,1.2-1.1.73-.84q-95.91,53.05-191.9,106c-62.2,34.35-124.55,68.44-186.3,103.6q-41.67,23.74-82.92,48.22C733,652,703.8,669.45,675.89,688.63c-13.52,9.29-26.75,18.94-39.63,29.12-10.61,8.4-15.36,12.7-25.28,21.67L599.34,750a122.46,122.46,0,0,0-10.58,12.58C589.71,761.45,591.33,760.87,592.29,759.73Z"/><path class="cls-22" d="M608,762c9.85-8.71,19.8-17.22,30.2-25.27s21.1-15.84,32-23.24c20.14-13.65,40.81-26.49,61.6-39.13C783.8,642.81,836.58,612.64,889.64,583c51.11-28.53,102.4-56.72,153.64-85q86.91-48,173.86-95.92c-.16.09-2.51-3.73-2.74-3.6q-82.68,45.34-165.14,91.11c-54.15,29.89-108.37,59.64-162.36,89.83-50.25,28.1-100.26,56.65-149.57,86.37-23.56,14.2-47.14,28.54-69.81,44.13q-13,9-25.77,18.39c-12.67,9.46-24.61,19.65-36.45,30.11C605.17,758.53,608.07,762,608,762Z"/><path class="cls-22" d="M594.42,772.55l11-11.46a242.2,242.2,0,0,1,41.76-35.72c10.77-7.52,21.17-15.51,32-22.91,20-13.62,40.44-26.44,61.08-39,51.84-31.57,104.49-61.76,157.45-91.39,50.85-28.45,101.9-56.54,152.87-84.79q43.2-23.94,86.39-47.9l34.49-19.15q13.2-7.41,26.56-14.53,15.95-8.42,31.47-17.61a16.61,16.61,0,0,1-2.24-.37c-.49-.06-1.74-.41-2.26-.17q-15.32,6.49-29.9,14.48-9.2,4.73-18.21,9.81-21.51,11.88-43,23.89-42.93,23.92-85.89,47.78C988.92,516.38,929.61,549,870.69,582.24,816.88,612.63,763.28,643.52,711,676.5c-11.14,7-22.24,14.14-33.08,21.62L665,707.18a220.92,220.92,0,0,0-24,18.88c-7.75,6.55-15.48,13.09-23,19.9-9.64,8.72-13.38,12.88-22.35,22.22a5.64,5.64,0,0,0-.72,2.15A14.17,14.17,0,0,1,594.42,772.55Z"/><path class="cls-22" d="M579.33,767.87a84.14,84.14,0,0,1,15.72-17.06q5.87-5.34,11.8-10.59c9.83-8.75,20.11-17,30.65-24.86,21.13-15.84,43.32-30.24,65.75-44.15,53.41-33.14,108-64.45,162.8-95.17,53.76-30.12,107.78-59.75,161.75-89.49L1115,438.5c31.8-17.53,63.66-34.87,95.06-53.1.64-.37.92-2.39,1.07-3,0,0,.46-1.54-.16-1.18q-21.95,12.3-44.07,24.26c-14.36,7.8-28.54,15.91-42.82,23.87-29,16.15-58.07,32.05-87.11,48.07-56.82,31.36-113.76,62.54-170.35,94.33-52.48,29.49-104.68,59.5-155.94,91.06-22.47,13.83-44.7,28.08-66,43.66-10.61,7.76-21.09,15.77-31.08,24.32l-11.68,10.46a105.35,105.35,0,0,0-21.49,22.48,9.4,9.4,0,0,0-1,3C579.49,766.51,579,768.3,579.33,767.87Z"/><path class="cls-22" d="M585.08,766.3q7.95-8.49,16.7-16.13l11.47-10.36q14.63-13.23,30.29-25.21c20.83-16,42.83-30.38,65-44.37,52.87-33.36,107.12-64.57,161.54-95.32,53.41-30.18,107.11-59.82,160.7-89.68L1117.3,437q21.65-12,43.29-24.09l17.39-9.62q18.88-10.33,38.51-19.2a5.37,5.37,0,0,0,2-2.54c.07-.13.72-1.75-.23-1.43a183,183,0,0,0-37.33,13.75,146.88,146.88,0,0,0-18.68,9.38c-14.37,7.9-28.59,16.08-42.85,24.17l-85.28,48.42c-58.58,33.24-117.44,66-175.88,99.51C804.84,606,751.67,637,700,670.44c-21.89,14.17-43.53,28.81-63.85,45.18-10,8.07-19.95,16.36-29.23,25.27l-.33.32q-10,11.1-20.77,21.47a6.62,6.62,0,0,0-1.64,3.18C584.21,766.43,584.58,766.81,585.08,766.3Z"/><path class="cls-22" d="M595.89,777.7q7.88-8.62,16.44-16.56,5.61-5.58,11.64-10.69,14.79-13.07,30.56-24.91c21.05-15.84,43.17-30.28,65.56-44.15,52.87-32.76,106.83-63.78,161.07-94.2,53.53-30,107.33-59.54,161.07-89.16l86.61-47.73c33.14-18.25,66.3-36.44,99.13-55.26.06,0-1.88-1.36-1.83-1.33-.14-.09-1.67-1.29-2-1.13-29.88,16.28-59.57,32.9-89.37,49.32l-86.59,47.71c-56.64,31.22-113.38,62.27-169.76,94-52.18,29.32-104.15,59.08-155.05,90.58-22.36,13.84-44.5,28-65.73,43.55-10.61,7.78-21,15.83-31,24.37l-11.79,10.41q-11.55,10.57-22.18,22A15.17,15.17,0,0,0,595.89,777.7Z"/><path class="cls-22" d="M587.56,766.05c9.81-9,19.55-18,29.82-26.4s20.68-16.36,31.41-24c21.5-15.34,43.89-29.42,66.42-43.17,51.89-31.67,104.61-61.94,157.65-91.63,53.86-30.15,108-59.84,162-89.67,57.93-32,116-63.68,173.72-96.08a9.25,9.25,0,0,0-.31-2.25s-.43-2.22-.43-2.22c-57.7,32.4-115.78,64.12-173.72,96.09-54.05,29.82-108.18,59.52-162,89.67-53,29.68-105.8,59.91-157.65,91.62-22.51,13.77-45,27.76-66.42,43.17q-12.84,9.24-25.28,19c-12.53,9.86-24.18,20.67-35.95,31.41a8.66,8.66,0,0,0,.34,2.24A17.27,17.27,0,0,1,587.56,766.05Z"/></g><g class="cls-23"><path class="cls-22" d="M890.79,719.45q17.54-7.16,35.1-14.21c-.21-1.89-.48-3.76-.82-5.63q-1.73-10.61-3.48-21.19T918,657.24c-.28-1.88-.62-3.74-1-5.6q-17.55,7.07-35.07,14.21c.27,1.88.57,3.75.89,5.63q1.74,10.59,3.49,21.18l3.51,21.18Q890.27,716.66,890.79,719.45Z"/><path class="cls-22" d="M804.24,610.76c40.55-17.46,81.14-34.8,122-51.57s81.54-33.15,122.47-49.32q1.6-2.34,3.07-4.79,5.65-9.12,11.29-18.27t11.24-18.29q1.53-2.4,2.91-4.89-61.4,24.25-122.48,49.31c-40.83,16.77-81.44,34.08-122,51.58q-1.62,2.34-3.07,4.79-5.67,9.12-11.3,18.26t-11.25,18.29C806.12,607.46,805.15,609.1,804.24,610.76Z"/><path class="cls-22" d="M775.68,916.26c153.86-72.64,310.32-140.11,470.18-198.5a15.58,15.58,0,0,0-3.93-4.17q-8-7.12-16.21-14.09t-16.41-13.84a15.34,15.34,0,0,0-4.71-3.25c-159.86,58.39-316.38,125.8-470.2,198.53q2.1,1.92,4.28,3.75,8.15,7,16.31,14t16.32,14C772.75,913.86,774.2,915.07,775.68,916.26Z"/><path class="cls-22" d="M799.38,631.55q100-44.67,201.25-86.41,48-19.77,96.24-39.07c34.5-13.88,69.25-27.12,103.81-40.87,1.49-1.17,3-2.35,4.45-3.55q8.37-6.72,16.73-13.45l16.72-13.48q2.24-1.77,4.42-3.59c-35.52,14.07-71.21,27.69-106.72,41.8q-48.27,19.19-96.29,39c-66.52,27.53-132.54,56.26-198.32,85.51q-2.25,1.75-4.45,3.55L820.5,614.47,803.79,628Q801.57,629.73,799.38,631.55Z"/><path class="cls-22" d="M574.88,748.41c40.43-18.58,80.81-37.27,121.47-55.35q65.1-28.93,130.76-56.64c40.64-17.21,81.52-33.82,122.43-50.39,43.42-17.58,87.18-34.29,130.74-51.54a8.07,8.07,0,0,0,2.9-5.08q3.45-10.17,6.44-20.49t5.77-20.68a8,8,0,0,0,.33-5.84c-40.64,16.09-81.47,31.69-122,48-43.85,17.65-87.62,35.48-131.15,53.91q-61.21,25.93-122,52.79c-43.6,19.28-86.87,39.27-130.17,59.21q-.9,2.7-1.68,5.44-3.07,10.29-6.13,20.58t-6.09,20.59C575.88,744.75,575.36,746.58,574.88,748.41Z"/><path class="cls-22" d="M466.05,927l39.4-12.88a230.07,230.07,0,0,0,32.44-14c10.45-5.25,20.73-10.82,31.15-16.15,25.19-12.88,50.89-24.76,76.51-36.75q82-38.38,165.09-74.46,78.12-34,157.11-65.89Q1007,691,1046.39,675.65c28.42-11,57-21.67,85.36-32.9a5.62,5.62,0,0,0,2.25-6.24,254.56,254.56,0,0,0-8.2-42.15,5.62,5.62,0,0,0-4.43-4.94c-25.44,10.07-51.08,19.63-76.6,29.51q-39.42,15.26-78.63,31.06-83.43,33.56-165.88,69.43-78.66,34.22-156.43,70.42c-25.85,12-51.79,24-77.3,36.77-10.33,5.17-20.48,10.66-30.72,16a204.51,204.51,0,0,1-28.67,13.26,380.77,380.77,0,0,1-51.47,17.81q-3.33,2.09-2.6,6.3a165.72,165.72,0,0,0,3.12,21.27,168.22,168.22,0,0,0,5.08,20.89A5.67,5.67,0,0,0,466.05,927Z"/><path class="cls-22" d="M538,894.71q32.17-7.73,63.51-18.31a353.94,353.94,0,0,0,40-17.1l15.78-7.15q13.86-6.61,27.63-13.43C723,820,761.06,801.25,799.33,782.85l-5.54,2.64c60.67-28.81,121.48-57.25,183.23-83.68q42.15-18,84.58-35.37c36.15-14.7,72.72-28.4,109.29-42l-7.78,2.88q23.46-8.52,47.1-16.52a7.7,7.7,0,0,0,6.28-6.7,121.59,121.59,0,0,0-6.4-42.47,7.71,7.71,0,0,0-8-4.56l-29,9.73q-16.8,5.91-33.49,12.1c-17.26,6.33-34.5,12.7-51.69,19.23-27.07,10.29-54.05,20.82-80.77,32-51.7,21.63-103.18,43.89-153.77,68q-67.15,32.05-134,64.84c-23,11.31-46.26,22.45-68.51,35.21L639.15,805l-18,8.44a272.56,272.56,0,0,1-36.19,13.15q-24.3,8-49.25,13.82c-2.71.87-4.14,2.84-4.29,5.88a191.82,191.82,0,0,0,1.83,42.91Q533.8,893.75,538,894.71Z"/><path class="cls-22" d="M647,864.42l21.47-7.23Q682,851.67,695,844.85c11.07-5.61,22.08-11.33,33.19-16.87,25.36-12.66,51-24.72,76.69-36.77q81.35-38.21,163.78-74,78-33.95,156.84-65.8,39.39-15.89,79-31.31c29.18-11.34,58.51-22.3,87.68-33.65a14.23,14.23,0,0,0,2.14-5.32q3-10.29,5.85-20.66t5.51-20.75a14.51,14.51,0,0,0,.87-5.67c-26.24,10.21-52.61,20.09-78.88,30.25s-52.73,20.62-79,31.18Q1065.32,628.92,983,664.78q-78.07,34-155.22,70c-25.71,12-51.43,24.06-76.89,36.6-11.14,5.48-22.17,11.16-33.22,16.82q-12.57,6.9-25.75,12.51A173,173,0,0,1,661.38,812a13,13,0,0,0-2.2,5.3q-3.06,10.29-5.87,20.65t-5.49,20.76A13.2,13.2,0,0,0,647,864.42Z"/><path class="cls-22" d="M470.73,778.71a246.43,246.43,0,0,0,61.19,5.7,66.79,66.79,0,0,0,18-.13,93.06,93.06,0,0,0,23.13-6l16.58-8.57,15.53-9.07q12.06-6.89,24.6-12.86c14.22-7,28.63-13.59,43-20.2,54.8-25.14,109.77-49.85,165.18-73.61,55.11-23.64,110.24-47.14,165.84-69.59,29.1-11.75,58.16-23.57,87.36-35.06q17.5-6.87,35-13.67,13.07-5,26-10.27a151.91,151.91,0,0,0,24-11.25,28.72,28.72,0,0,0,7.79-10.74q6.16-11,11.57-22.44c-.18.4,9-17.66.79-14.35-26.08,10.53-52.44,20.35-78.66,30.51q-39.59,15.34-79,31.23-78.9,31.76-157,65.53-73.79,32-146.83,65.69c-25.8,11.94-51.76,23.66-77.3,36.16-13.71,6.72-27.09,13.94-40.13,21.89a148.15,148.15,0,0,1-15.8,9,68.11,68.11,0,0,1-30.58,10l2.47-.33a313.32,313.32,0,0,1-77.94-5.74,14.19,14.19,0,0,0-3.19,4.76q-5.12,9.45-10,19t-9.68,19.16A14.28,14.28,0,0,0,470.73,778.71Z"/><path class="cls-22" d="M661.47,936.87,684,922.64q12.94-7.5,26.5-13.81c11-5.28,22-10.44,32.94-15.7,25.6-12.28,51.11-24.75,76.77-36.9Q901.52,817.68,984,781.65q78-34.06,156.86-65.92,39.34-15.88,78.93-31.18c29-11.23,58.14-22.35,87.53-32.66a14.06,14.06,0,0,0-3.59-4.46q-7.52-7.68-15.21-15.17t-15.45-14.9a14.05,14.05,0,0,0-4.54-3.51c-26.43,9.27-52.6,19.21-78.73,29.27q-39.58,15.25-79,31-83.35,33.4-165.62,69.46Q867.11,777.77,790,814.15c-25.75,12.13-51.35,24.57-77,36.93-11,5.3-22,10.5-33.06,15.74q-13.1,5.85-25.61,12.86a264.49,264.49,0,0,0-31.63,19.15,17.71,17.71,0,0,0,3.7,4.36q7.54,7.63,15.23,15.13T657,933.26A17.72,17.72,0,0,0,661.47,936.87Z"/></g><g class="cls-23"><path class="cls-22" d="M993.94,916.24q77.4-37,155.64-72.2-2.07-2-4.26-3.78-8.13-7-16.3-14t-16.33-13.94c-1.42-1.26-2.89-2.46-4.39-3.62q-78.24,35.17-155.62,72.17c1.4,1.28,2.83,2.54,4.28,3.76q8.13,7,16.29,14t16.32,14Q991.7,914.47,993.94,916.24Z"/><path class="cls-22" d="M776,757.1q56-26.94,112.26-53.26c37.39-17.43,75-34.42,112.5-51.5a24,24,0,0,0,2-5.35q3.16-10.26,6.2-20.55t6-20.62a24.33,24.33,0,0,0,1.26-5.56c-37.54,17.07-75.12,34.06-112.5,51.49Q847.42,678,791.46,705q-.9,2.7-1.69,5.44L783.65,731q-3,10.29-6.08,20.59C777,753.43,776.5,755.26,776,757.1Z"/><path class="cls-22" d="M495.53,1026.61l39.76-13.6,24.41-10.57q12.16-6.32,24-13.29,7.56-4.47,15.26-8.67c24.94-13.88,50.46-26.74,75.87-39.76q76.8-39.36,154.48-77c102.23-49.35,205.6-96.2,309.6-141.7a6.41,6.41,0,0,0,.86-6q-1.44-10.65-3.59-21.17c.08.41-4.67-27.49-7.64-26.19-104,45.5-207.42,92.26-309.61,141.7Q745.55,845.92,673,883c-25.6,13.09-51.33,26-76.59,39.78-13,7.09-25.75,14.73-38.79,21.81a127.35,127.35,0,0,1-20.48,9.78,351.61,351.61,0,0,1-52,18.89,8,8,0,0,0-.22,5.84q1.63,10.62,3.75,21.15C488.61,999.83,493.42,1027.33,495.53,1026.61Z"/><path class="cls-22" d="M569.66,994.49l34.64-9.94a261.6,261.6,0,0,0,39.55-14.27,154.34,154.34,0,0,0,19.68-9.18q8.61-4.27,17-9,37.23-20.51,75-40,21.24-11,42.6-21.78c12.89-6.5,26.06-12.36,39-18.67,23.41-11.37,46.61-23.21,69.91-34.83q74.66-37.26,150.33-72.36Q1097,746.15,1137,728.63c33.62-14.7,67-29.9,100.7-44.49a5.7,5.7,0,0,0,2.7-5.78q.58-10.73.12-21.48-.18-10.75-1.4-21.44a5.7,5.7,0,0,0-3-5.61c-15.55,6.81-31.15,13.48-46.88,19.86-16.7,6.77-33.41,13.51-50.08,20.38-28.52,11.75-56.62,24.48-84.65,37.35Q974.25,744.25,895.3,783.8C872.92,795,850.36,806,828.4,818.06c-8.2,4.49-16.26,9.27-24.48,13.72-13.9,7.54-28.17,14.45-42.22,21.68-25.28,13-50.45,26.18-75.37,39.85-11.22,6.17-22.41,12.42-33.93,18a241.11,241.11,0,0,1-36.06,14.11q-24.15,8.46-49,14.74c-2.59.95-3.91,2.9-4,5.87A206.26,206.26,0,0,0,565.2,989Q565.67,993.41,569.66,994.49Z"/><path class="cls-22" d="M678.38,963.43l21.43-7.84,18.09-8.71q12.4-6.75,24.72-13.66,8.18-4.63,16.47-9.06c25.15-13.63,50.6-26.69,76-39.77q76.35-39.25,153.62-76.7c102.82-49.73,206.83-96.88,311.61-142.35a26.84,26.84,0,0,0,1.83-5.4q2.94-10.34,5.77-20.69t5.59-20.73a26.66,26.66,0,0,0,1.18-5.58C1210,658.41,1105.9,705.47,1003.12,755.3q-73,35.37-145.13,72.34c-25.47,13.07-51,26.12-76.22,39.62-13.83,7.4-27.48,15.11-41.22,22.67a181.38,181.38,0,0,1-17.32,8.91A166.73,166.73,0,0,1,692.75,911a42.4,42.4,0,0,0-1.71,5.44q-2.89,10.34-5.73,20.69t-5.62,20.72A42.21,42.21,0,0,0,678.38,963.43Z"/><path class="cls-22" d="M502.31,878.25l43,4.4a87.41,87.41,0,0,0,44.89-3.48,38.69,38.69,0,0,0,12-3.49,136.69,136.69,0,0,0,17.35-9.53L635,856.43l16-9.35c13.94-7.75,28.3-14.77,42.53-22,54.13-27.39,108.34-54.6,163-80.87Q934,707,1012.09,671.09c28.73-13.17,57.56-26.14,86.19-39.51,28.25-13.18,56.67-26,84.88-39.27a41.8,41.8,0,0,0,7.19-11q6-11.09,11.57-22.45a41.79,41.79,0,0,0,4.82-12.27q.16-3.12-2.28-1.17c-98.74,43.32-197.05,87.59-294.24,134.3q-68.79,33-136.88,67.54c-25.58,13-51.15,26-76.61,39.16-11.14,5.78-22.17,11.71-32.9,18.21q-7.87,4.56-15.37,9.71a212.86,212.86,0,0,1-23.82,14.24l1.64-.76a76.89,76.89,0,0,1-39.17,6.4A267.19,267.19,0,0,1,527.2,830a50.47,50.47,0,0,0-2.77,5q-5,9.52-9.88,19.07t-9.79,19.1A51.61,51.61,0,0,0,502.31,878.25Z"/><path class="cls-22" d="M733.43,1011.07c22-11.56,44-23,66-34.58q38.09-20.12,76.42-39.74,72.27-37,145.37-72.29,145.5-70.19,294.29-133.17-1.9-2.13-4-4.08-7.63-7.56-15.31-15.06t-15.36-15q-2-2-4.15-3.89Q1127.89,756,982.44,826.42q-68.79,33.26-136.87,67.94Q807.21,913.91,769.14,934c-24.81,13.08-49.69,26-74.51,39.06,1.3,1.39,2.63,2.74,4,4.05q7.64,7.53,15.31,15t15.35,15Q731.31,1009.17,733.43,1011.07Z"/></g><g class="cls-23"><path class="cls-22" d="M337.48,726q26.86,15.93,3.33,1.16l38.35,25.32q-8.57-5.41-16.6-11.58a417.27,417.27,0,0,0-38.06-25.71l-35.19-20Q273.52,682,254.8,684.09q-11.67-2.21-18.66,8.53l-2.74,13.15q5.39,19.34,23.77,28.51A321.36,321.36,0,0,0,312.3,773.4l11,7.06q22.23,13.27,44.74,26.08a453.78,453.78,0,0,0,68.61,36l20.16,2q14-2.48,12.53-14.53Q472.95,816,459.15,806l-29.9-23.44A1023.25,1023.25,0,0,0,337.48,726Z"/><path class="cls-22" d="M296.5,868.36l-26.29-1.56,42,4c-12.66-1.3-25.14-3-37.73-4.91A488.92,488.92,0,0,0,200,861.54q-22.75-3.42-39.48,10.85-9.12,12.12-1.46,25.21,15,16.1,38,15.34c7.75,1.42,15.48,2.79,23.32,3.63q12.78,1.41,25.6,2.48,23.57,2.6,47.26,3.54a507.36,507.36,0,0,0,89.56-.21q19.95-1.74,25-20-2.76-18.71-22.34-22.88A508.64,508.64,0,0,0,296.5,868.36Z"/><path class="cls-22" d="M323.77,805.45Q304,800.23,284.46,794l51.46,16.71q-14-4.68-27.72-9.91A365,365,0,0,0,250.83,781a443.84,443.84,0,0,0-81.72-18.19q-15.74-2.72-22.87,9-9.33,7.13-2.71,19,23.25,27.52,60.76,34Q236.5,836,269,846.1q19.5,6.23,39.28,11.44a693.27,693.27,0,0,0,101.92,24.28q21.57,4.57,32.69-12.69.1-20.55-20.48-28.48A694,694,0,0,0,323.77,805.45Z"/><path class="cls-22" d="M288.57,936.68,260.31,941,309,934.39c-14.49,1.5-29,2.65-43.5,3.78a698.55,698.55,0,0,0-88,14.78q-26.35,1.88-43.52,20.61-7.83,14.12,4.18,24.9,22.35,12.1,47.87,5.26c9.67-.49,19.32-1,29-1.9q15-1.35,29.9-3.86,26.34-3.39,52.56-7.68a646.08,646.08,0,0,0,98.69-22.12q20.87-5.52,22.91-25.56-8.4-18.32-29.93-16.81A646,646,0,0,0,288.57,936.68Z"/><path class="cls-22" d="M421.39,1011.79l-53.25,37.59,30.74-21.69c-8.86,5.14-17.79,10.15-26.71,15.18l22.12-11.72Q380.58,1038,366.93,1045q-32.7,22.77-64.68,46.51l33.3,42.93,3.79-4.5a70.55,70.55,0,0,1,9.52-9.25c10-8.92,20.41-17.16,30.94-25.42.72-.56-32.75-43.36-33.36-42.88-10.5,8.24-20.95,16.49-30.9,25.39a54.87,54.87,0,0,0-7.56,7.13q-3,3.16-5.73,6.6a8.63,8.63,0,0,0,2.55,5.23q6.27,8.71,12.91,17.16t13.41,16.77a8.69,8.69,0,0,0,4.43,3.77L348,1126.7q5.64-3,11.25-6.12c2.5-1.34,5-2.73,7.42-4.18a134.29,134.29,0,0,0,15-9.78,695.78,695.78,0,0,0,70.83-53.84q22.43-13.87,28.86-38.4.35-16.11-15.28-20.1Q440.77,993.91,421.39,1011.79Z"/><path class="cls-22" d="M297.71,748.33q21.8,10.45,43.5,21.07a21.35,21.35,0,0,0,3.36-4.62q5.74-9.07,11.36-18.22c-.29.47,14.28-23.17,13.79-23.41q-21.71-10.62-43.5-21.08a9.3,9.3,0,0,0-3.93,4.28q-5.93,9-11.51,18.12C311,724.09,296,747.51,297.71,748.33Z"/><path class="cls-22" d="M460.14,708.09Q450.39,697.71,441,687l27.65,32.12q-8-9.28-15.38-19l26.85,35.74q-9-12.39-18.18-24.58-25.81-35-53.2-68.77l-42.38,34a35.66,35.66,0,0,0,7.44,5.35q10.43,9.11,20.93,18.13,13.78,11.94,26.76,24.78a247.76,247.76,0,0,0,67.08,49.62c1.51-1.14,3-2.32,4.47-3.52q8.38-6.72,16.74-13.45l16.72-13.48c1.48-1.17,3-2.38,4.39-3.61a247.19,247.19,0,0,1-67-49.52q-13-12.84-26.76-24.79-10.5-9-20.93-18.12a36.57,36.57,0,0,1-7.46-5.38,14.12,14.12,0,0,0-4.85,3q-8.52,6.54-16.87,13.29t-16.64,13.57a14.2,14.2,0,0,0-4,4.08q24,31.45,48.45,62.63,5.52,7.23,11.49,14.08L454,785.29q11,11.76,21.58,23.94,14.44,21.9,39,27.51,16.1-.16,19.67-15.85-.27-25.21-18.61-44A685.49,685.49,0,0,0,460.14,708.09Z"/><path class="cls-22" d="M478.87,1007.72a890.86,890.86,0,0,0-109.7,115l41.59,35,3.8-6a86.34,86.34,0,0,1,8-11c8.55-10.92,17.65-21.32,26.89-31.68q14.4-16.15,29-32.15a392.24,392.24,0,0,1,66-64.1,46,46,0,0,1,24.87-14.58c-1.4-1.27-2.83-2.53-4.27-3.76q-8.08-7.07-16.19-14.1t-16.21-14.09c-1.42-1.25-2.87-2.49-4.32-3.7l-12.12,4.32a316,316,0,0,0-52.55,47.93q-17.82,16.9-34.13,35.21-10.94,12-21.72,24.14c-7.45,8.38-14.87,16.77-22,25.42a116.6,116.6,0,0,0-11.36,14.86q-2.75,4.1-5.32,8.33-1.77,3.88,1.44,7.14a192.81,192.81,0,0,0,32.87,27.63q3.76,2.61,7.28.19l14.33-15.17q6.54-6.24,13.1-12.43,4.33-4.08,8.61-8.21,8-7.48,15.35-15.53A647.59,647.59,0,0,0,518,1041.21q18.43-17.79,19-42.38-3.3-15.55-19.18-16.42Q493.61,986.76,478.87,1007.72Z"/><path class="cls-22" d="M160.37,807.74a54.73,54.73,0,0,1,15.45,1.49q14.28,2.13,28.52,4.59c19.93,3.55,39.72,7.77,59.52,12a345.17,345.17,0,0,0,55.94,8.27,171.56,171.56,0,0,0,79,1.81l10.47-11.17a51.51,51.51,0,0,1,19.76-22.54c.56-1.81,1.1-3.63,1.64-5.45q3.06-10.29,6.11-20.58t6.11-20.59c.54-1.82,1.08-3.64,1.59-5.47a39.41,39.41,0,0,0-16,16.56,58.41,58.41,0,0,1-14.23,17.17l-35.89,3.73a613,613,0,0,1-99.21-13.85c-19.79-4.22-39.57-8.58-59.52-12l-19.11-3.15a88.28,88.28,0,0,0-24.85-2.93,8,8,0,0,0-2.9,5.08q-3.45,10.17-6.42,20.5T160.7,801.9A8,8,0,0,0,160.37,807.74Z"/><path class="cls-22" d="M326.65,938.17l-24.13,4.43,59.83-10.28-10.6,1.26,44.47-4.41-9.54.65q-21,1-41.82,3.83a438.6,438.6,0,0,0-62.69,8.76q-62.52,10.94-124.92,22.53L176.69,1015a34.49,34.49,0,0,0,9.44-4.24,43.63,43.63,0,0,1,18.72-6.54l-14.22,4.31q17.53-5.46,35.35-10,17.57-4.42,35.19-8.63,51.36-12.2,102-27.3a328.5,328.5,0,0,0,65.66-22.52,106.87,106.87,0,0,0,27-14.56q13-9.19,26.72-17.28c16.12-9.51,32.62-18.39,49.05-27.34q104-56.62,209.9-109.49T955.37,670c74.15-33.42,149-65.16,224.19-96.23a6.2,6.2,0,0,0,1-6q-1.4-10.65-3.55-21.18-1.95-10.58-4.65-21a6.21,6.21,0,0,0-3.14-5.19c-69.33,28.66-138.42,57.89-206.92,88.48Q854.21,657.17,748.1,709.65,646.24,760,546.27,814q-25.08,13.53-50,27.28c-15.14,8.37-30.13,16.91-44.44,26.65q-10,7-20.46,13.15A265.67,265.67,0,0,1,379,900.85q-57.68,19-116.87,32.95-59.25,18.38-117.08,41-21.84,5.84-24.09,26.7l.43,1.49q6.94,14.19,22.26,13,29.81,6.78,60.12-3.1c13.79-1.65,27.58-3.33,41.31-5.43q19-2.85,37.94-6.37,27-4.47,54-9.54a747.28,747.28,0,0,0,105.44-26.32q21.84-5.75,24.15-26.57-10-18.45-32.35-15.58A745.59,745.59,0,0,0,326.65,938.17Z"/><path class="cls-22" d="M431.1,893.53,491.91,892l-25.86-.92q-97.44-4.1-195,1l64.83,24a15.33,15.33,0,0,0,.1-4.17l-10.55,22,4.2-1.84-17.1,5.14c44.39-6.94,88.81-13.67,133-21.49a352.46,352.46,0,0,0,34.93-6.62,231.81,231.81,0,0,0,26.21-7.32,504.12,504.12,0,0,0,58.35-24.31c19.6-9.45,38.9-19.49,58-29.8,17.73-9.53,35.4-19.18,53.2-28.59q24.28-12.83,48.61-25.54,53.5-28,107.53-55,103.89-51.9,209.64-100,51.38-23.37,103.15-45.81c44.2-19.18,88.36-38.52,132.94-56.8a5.67,5.67,0,0,0,2.77-5.79,211,211,0,0,0,0-21.49,210.4,210.4,0,0,0-1.52-21.43,5.65,5.65,0,0,0-3.16-5.59q-27.88,11.52-55.91,22.65c-19.18,7.57-38.34,15.17-57.39,23.08-32.85,13.65-65.42,28-97.9,42.56Q976,609.89,888.09,652.6q-87,42.33-172.62,87.47c-27.13,14.34-54,29.24-81.16,43.47-20.5,10.72-41.2,21.18-61.88,31.56L554,824.31q-20.54,10.22-41.69,19.07l5.27-2.24-26,9.79,6.25-2.1-37.88,10,8.57-2a2020.47,2020.47,0,0,0-226.83,46.88q-24.74,1.5-32.17,23,9.42,20.73,34.18,19.89a159.69,159.69,0,0,0,34.28,2q23.4,1,46.82,1.17,54.32.24,108.59-2a417.19,417.19,0,0,0,80.67-9.13q18.36-4.47,20.55-22.36-3.71-17.64-22.37-20.54A416.9,416.9,0,0,0,431.1,893.53Z"/><path class="cls-22" d="M541.69,871.3a28.14,28.14,0,0,0-15.46-6.16q-19.69-6.39-39.46-12.62L502,862.4a14.23,14.23,0,0,0-1.68-3.73l-10.76,41.57,6.91-5.51-4.79,3.19q6.55-.49,13.14-.74l38.83-2.34A119.66,119.66,0,0,0,596.34,881l15.42-9.62q14.79-10.14,30.26-19.24l16.3-9.26c16.54-9.3,33.31-18.22,50-27.26q104-56.36,210-108.8,101.82-50.29,205.43-96.82c71.83-32.25,144.32-63,217.15-92.87a24.38,24.38,0,0,0,1.86-5.39q3-10.32,5.78-20.68t5.58-20.74a24.82,24.82,0,0,0,1.15-5.58c-75.74,31.12-151.12,63.09-225.78,96.75S980.66,630.37,907.3,667s-146,74.93-218,114.29C673,790.24,656.6,799.08,641,809.27Q630.31,817,619.11,824a78.43,78.43,0,0,1-28.85,13,384,384,0,0,1-82.81,7.72l-6.89.24q-6.71.25-13.37.91a82.23,82.23,0,0,0-11.34,2.07q-9.89.54-13.1,10.15a73.06,73.06,0,0,0-6.33,24.45,17.78,17.78,0,0,0,.43,6.28,29.74,29.74,0,0,0,.9,6.37l5.78,5.93a219.19,219.19,0,0,0,36.4,12.54l-41.46-16.83q3,5.2,9.87,6.07a83.94,83.94,0,0,0,17.38,7.8l28.62,9.73a90.32,90.32,0,0,0,13,3.27,50.34,50.34,0,0,0,27.55,1.65,35.75,35.75,0,0,0,11.36-41.41A50.4,50.4,0,0,0,541.69,871.3Z"/><path class="cls-22" d="M342,754.83l-19.16-9.16,57.23,27.88-12-6.09,59.8,32.4c-8.64-4.88-17.08-10.05-25.63-15.09q-19.49-11.67-39.79-21.89-69.33-37.64-139.32-74l-24.87,48.3a165.57,165.57,0,0,0,27.83,9.2q17.73,6.36,35.54,12.48c20.91,7.46,41.39,16,62.13,23.92q41,12.5,82.27,24.42a217.87,217.87,0,0,0,52.07,8.9q13.59-1.49,27-3.94l15.21-10a217.68,217.68,0,0,1,26.81-21.74q15.68-10.14,32.18-18.83c16.64-9.13,33.4-18.05,50.12-27Q672,701,735.24,668.71,853.37,608.64,974,553.65q60.3-27.48,121.18-53.66c20.19-8.69,40.34-17.48,60.57-26.09,22.79-9.72,45.45-19.71,68.1-29.76a40.23,40.23,0,0,0,7.24-11q6.06-11.08,11.57-22.45a39.85,39.85,0,0,0,4.77-12.29c.08-2.1-.72-2.51-2.38-1.23-64,26.55-127.78,53.41-191.08,81.48s-126.42,57.3-188.86,87.58-124.43,61.5-185.8,93.9c-27.93,14.74-55.71,29.77-83.57,44.64q-12.66,6.62-25.14,13.54a270,270,0,0,0-24,14.23l-13.75,10.67a100.77,100.77,0,0,1-27.46,21.48l2.3-.42L476,767.39l3.49.19-62.83-12.84,7.11,2.06a976.15,976.15,0,0,1-117.19-39.5q-17.23-6.94-34.5-13.78c-17.21-6.37-34.61-12.22-52-18.15q-12.15-5.29-21.34,3.77a32.71,32.71,0,0,0-9.5,16.41A20.36,20.36,0,0,0,188.17,722a54.68,54.68,0,0,0,22.5,18L243,760.08,200.31,733.3a289.31,289.31,0,0,0,50.44,32q27,15.47,54.5,29.92,24.63,14,50,26.64,37.62,18.61,75.54,36.62,29.87,18.91,64.33,18.4,18.45-4.71,11.57-22.45a114.86,114.86,0,0,0-52.32-41.71Q399.49,781.24,342,754.83Z"/><path class="cls-22" d="M521.14,951a105.82,105.82,0,0,0-36.33,27.36q-22.05,21.43-43.55,43.41l46,28.35q.93-3.09,1.64-6.25a5.47,5.47,0,0,0,.88-5L481.6,1056a160,160,0,0,1,12.47-14.43q6.07-6.15,12.23-12.21,7.15-7.12,14.45-14.09a730.27,730.27,0,0,1,75.79-66L612.72,940Q627,933.48,641,926.39c16.67-8.58,32.88-18.14,49.27-27.24C762,859.32,834.82,821.38,908.2,784.71,1054.68,711.48,1204,643.79,1356.1,583a52.7,52.7,0,0,0-3.94-4.11q-7.62-7.56-15.3-15.07t-15.36-15a49.37,49.37,0,0,0-4.19-3.86C1153.52,610.43,992.87,683.86,835.6,763.69q-59.07,30-117.49,61.23-25,13.38-49.92,27-16.8,9.23-33.49,18.62-16.05,9.16-32.41,17.76-10,5.19-20.48,9.46a101.47,101.47,0,0,0-23.21,12.61,834,834,0,0,0-77.67,68q-9.76,9.36-19.32,18.92c-7,7-13.84,14-19.82,21.81a20.54,20.54,0,0,0-6.61,10,60.2,60.2,0,0,0-2.39,10l3.94,8.73a49.53,49.53,0,0,0,13.38,13.42,18.85,18.85,0,0,0,9.49,5.57q6.27,4,12.79-.9,13.53-11,26.89-22.21c14.24-12,27.62-24.47,41.43-37.09a127.67,127.67,0,0,0,26.89-35.55q3.15-10.46-3.64-17.94-4.2-9.24-14.55-12.22Q532.85,937.75,521.14,951Z"/></g><g class="cls-23"><path class="cls-22" d="M1365.16,668.42l-1.22-4.4a19.4,19.4,0,0,0-2.39-2.65c-2.35-2.44-4.76-4.81-7.16-7.19q-10.53-10.45-21.17-20.79c-3.51-3.42-7-7-10.75-10.09-.59-.51-1.2-1-1.82-1.48a2.16,2.16,0,0,0-2.74-.33,43.79,43.79,0,0,0-6.46.66l-5.32,1.89c-3.66,1.38-7.21,3-10.75,4.61-13.65,6.33-27.28,12.68-41,18.94q2,2,4.06,4l15.35,15,15.35,15q2,2,4.08,4,17.81-8.08,35.53-16.35,5.39-2.61,10.85-5,5.22-2.19,10.59-4a56.85,56.85,0,0,1,8.64-.77l-1.12-.88,2.52,2.07-33.8-33,2.54,2.53-3.87-4.19,1.22,4.42c1.34,1.34,2.7,2.67,4.05,4q7.66,7.53,15.34,15l15.34,15Q1363.12,666.45,1365.16,668.42Z"/><path class="cls-22" d="M1368.14,537.1a15.26,15.26,0,0,0-4.1.84,17.83,17.83,0,0,0-4.59,1.69,15.71,15.71,0,0,1-3.76,1.44c-3.14,1-6.15,2.34-9.27,3.42-4.43,1.53-8.82,3.25-13.18,5-19.65,7.82-38.92,16.67-58.15,25.44q-21.71,9.9-43.31,20-8.65,4-17.26,8.13-12.7,5.8-24.91,12.58c-.57,1.81-1.13,3.62-1.7,5.43l-6.4,20.5q-3.21,10.24-6.41,20.49c-.56,1.81-1.13,3.62-1.69,5.44l18.12-8,17.23-8.17q21.59-10.18,43.29-20.1,17.39-8,34.87-15.76c10.59-4.68,21.17-9.44,31.95-13.66,3.51-1.37,7-2.79,10.56-4.08l5.24-1.81,4.42-1.79,4.46-1.44a18.11,18.11,0,0,1,4.59-1.93c.86-.27,1.73-.55,2.58-.84a6.1,6.1,0,0,1,3-.48,23.15,23.15,0,0,0,1.89-5.39q3-10.32,5.78-20.68T1367,542.7A22.9,22.9,0,0,0,1368.14,537.1Z"/><path class="cls-22" d="M1018.47,701c-73.38,38-145.82,77.84-217.8,118.42s-143.55,82.09-214.82,124q-.79,2.73-1.53,5.48l-5.7,20.71q-2.83,10.35-5.68,20.71c-.51,1.82-1,3.66-1.48,5.49,71.31-41.85,142.81-83.4,214.84-124q49.85-28.08,100-55.53c39-21.32,78.27-42.12,117.53-63l1.53-5.48q2.89-10.34,5.78-20.68t5.78-20.68Z"/><path class="cls-22" d="M1145.54,660.88c10.41-3.87,20.83-7.63,31.65-10.16l-10.37-53.33a2.15,2.15,0,0,0-1.28,1c-2.41.79-4.78,1.69-7.11,2.68-8.06,3.29-16.17,6.4-24.21,9.77-39,16.35-77.44,34.32-115.66,52.5Q911,714.48,805.7,770.35,700.57,825.9,597.2,884.74c-72.16,40.9-143.75,82.8-215.44,124.52a48.86,48.86,0,0,0,.9,5.63q2,10.54,4,21.08t4.15,21.07a47.5,47.5,0,0,0,1.28,5.55c71.69-41.72,143.28-83.62,215.44-124.52Q711,879.44,816.08,823.68,921.43,768,1028.93,716.62c35-16.67,70.25-33.1,105.91-48.42,10.5-4.51,21-8.73,31.61-12.89q4.66-2,9.47-3.64a2.13,2.13,0,0,1,1.27-.95,5.8,5.8,0,0,0,1.46-6.08q-1.25-10.68-3.43-21.21-1.92-10.57-4.78-20.94a5.82,5.82,0,0,0-3.62-5.1c-10.83,2.53-21.25,6.29-31.66,10.15a7.94,7.94,0,0,0-.26,5.86q1.63,10.61,3.75,21.14C1138.56,634.07,1143.45,661.65,1145.54,660.88Z"/><path class="cls-22" d="M1273.86,611.65l1.27-1.08-3.42,1.57a1.19,1.19,0,0,1,1.47-.36l-3-1.3.72.55.22-53a18.59,18.59,0,0,0-4.1,2.48q-3.06,1.23-6,2.75c-6.83,3.37-14,6.2-21,9.21-38.44,16.55-76.48,34-114.27,52q-107.58,51.22-212.85,107.06Q807.64,787.15,704.13,846c-72,40.81-143.51,82.59-215,124.36a6.22,6.22,0,0,0-1.84,5.78q-.21,10.74.35,21.48.35,10.74,1.47,21.43a6.25,6.25,0,0,0,2.33,5.6c71.48-41.77,143-83.56,215-124.37Q810,841.62,915.22,785.82q105.36-55.65,212.86-107.06c34.81-16.58,69.84-32.72,105.22-48.07,9.33-4.05,18.8-8,28.09-12.13q3.91-2.05,8-3.72a18.42,18.42,0,0,1,4.09-2.49c2.58-1,3.9-2.9,4-5.87a148.21,148.21,0,0,0,.2-21.49,149,149,0,0,0-2-21.41q-.45-4.43-4.43-5.51a3.36,3.36,0,0,0-3.47.58,9.3,9.3,0,0,0-3.2,1.87,17.7,17.7,0,0,0-3.17,13.26A196.89,196.89,0,0,0,1262.4,599a17.74,17.74,0,0,0,4.28,12.94A5.24,5.24,0,0,0,1273.86,611.65Z"/><path class="cls-22" d="M1203.9,498.37a109.84,109.84,0,0,1,11.93,10.69q3.06,4.68,5.71,9.61l9.32-25.75-1.58,3.13,13.28-22.11a26.63,26.63,0,0,1-11.49,7.54l1.74-.71c-10.42,3.05-20.68,6.51-30.81,10.45-12.11,4.71-24,9.86-35.87,15.14-34.91,15.54-69.43,32-103.84,48.6-68.63,33.17-136.44,68-203.64,104s-133.81,73-200,110.73q-46.3,26.4-92.42,53.12C530.8,843.27,495.49,863.92,460,884.28a12,12,0,0,0-3.33,4.68q-5.15,9.43-10,19T437,927.14a11.82,11.82,0,0,0-1.88,5.43c33.69-19.33,67.2-39,100.86-58.38l-1.47.84c52.42-30,104.6-60.34,157.26-89.9s105.49-58.56,158.78-86.84c50.48-26.79,101.26-53,152.53-78.3,28.53-14.06,57.17-27.93,86-41.37q17.34-8.08,34.74-16,13-6.08,26.22-11.81,14.22-6.42,28.82-12l-1.76.69c8.26-3,16.46-6.18,24.89-8.71a88.46,88.46,0,0,0,10.13-3.5q2.43-1.12,4.95-2a4.8,4.8,0,0,0,3.88-2.67c2-2.47,3.71-5.17,5.65-7.71q4.07-6.4,7.51-13.18,4.55-8.31,8.59-16.88l3.57-8.11a5.72,5.72,0,0,0,.14-6.33q-2.65-4.94-5.71-9.62a111.11,111.11,0,0,0-11.94-10.69,5.65,5.65,0,0,0-5.31,3.67,282.78,282.78,0,0,0-19.67,38.17A5.63,5.63,0,0,0,1203.9,498.37Z"/></g><g class="cls-23"><path class="cls-22" d="M887.23,705q81.6-35.4,163-71.24c.62-1.8,1.18-3.61,1.7-5.44q3.08-10.29,6.12-20.58t6.07-20.59c.56-1.82,1.08-3.65,1.54-5.49q-81.38,35.93-163,71.25-.84,2.72-1.64,5.45l-6.12,20.58-6.09,20.59Q888,702.26,887.23,705Z"/><path class="cls-22" d="M515.28,991.7,556,979.38,581.56,970c14.33-5.68,28.17-12.79,42.19-19.19,26.82-12.25,54-23.78,81-35.54q82-35.65,163.88-71.44c108.24-47.18,216.5-94.3,324.41-142.22a5.82,5.82,0,0,0,1.44-6.08q-1.24-10.68-3.44-21.21-1.92-10.58-4.76-21a5.82,5.82,0,0,0-3.61-5.09c-107.92,47.91-216.18,95-324.42,142.22Q780.87,824.25,703.48,858c-27.25,11.87-54.62,23.48-81.73,35.68-13.93,6.27-27.68,12.92-41.66,19.09a181.76,181.76,0,0,1-21.7,8.62,490.94,490.94,0,0,1-53.49,17,5.94,5.94,0,0,0-1.23,6q1.32,10.67,3.49,21.19,1.93,10.57,4.71,21A6,6,0,0,0,515.28,991.7Z"/><path class="cls-22" d="M587.92,958.48l34.86-8.63a358.35,358.35,0,0,0,41.42-12.48,204.41,204.41,0,0,0,21.28-8.06q9.36-3.7,18.48-7.93,40.15-17.94,80.43-35.58l90.86-39.61c24.86-10.84,50-21,74.88-31.77,52-22.59,103.74-45.82,155.62-68.71q40.89-18,81.93-35.7,52.11-22.5,103.7-46.09a5.64,5.64,0,0,0,3-5.81,195,195,0,0,0,.08-21.49,191.88,191.88,0,0,0-1.62-21.42,5.64,5.64,0,0,0-3.43-5.58c-34.54,14.4-69.26,28.38-103.62,43.21q-41.19,17.77-82.29,35.77c-54.33,23.92-108.68,47.83-162.76,72.3q-13.78,6.24-27.46,12.73C900,780,886.51,786,873,791.91q-40.87,17.83-81.77,35.64-40.42,17.61-80.68,35.6c-12.24,5.49-24.48,11-37,15.87a332.38,332.38,0,0,1-38.18,12.34q-24.66,7.23-49.75,12.84-4.4,1.13-4.9,5.9A169.42,169.42,0,0,0,582.54,953C583.14,956.16,584.94,958,587.92,958.48Z"/><path class="cls-22" d="M671.73,934.63l25.59-5.86a197,197,0,0,0,32.42-10.44q9.51-3.42,18.64-7.77,8.89-3.93,17.73-8c26.85-12.28,54-24,81-35.75q86.16-37.5,172.24-75.16Q1186.8,718.57,1354,645.06a19.45,19.45,0,0,0,2-5.36q3-10.32,5.81-20.68t5.56-20.74a20,20,0,0,0,1.05-5.61q-167.11,73.79-334.66,146.57-81.59,35.6-163.16,71.2c-27.13,11.82-54.34,23.48-81.3,35.68-11.82,5.35-23.55,10.93-35.47,16a189.1,189.1,0,0,1-30.77,10.89,315,315,0,0,1-37,9.17c-.52,1.83-1,3.66-1.52,5.49l-5.65,20.71q-2.83,10.37-5.65,20.72C672.71,931,672.22,932.8,671.73,934.63Z"/><path class="cls-22" d="M520.92,842.94l43.89,5.36a100.7,100.7,0,0,0,46.55-1.88,45.36,45.36,0,0,0,12.67-2.9,149.53,149.53,0,0,0,18.68-8.42l16.53-8.73L676.37,818c14.91-7,30.15-13.33,45.3-19.78,57.85-24.6,115.49-49.69,173.22-74.6q81.89-35.33,163.67-70.89c30.14-13.1,60.17-26.46,90.23-39.75,12-5.29,24-10.57,35.88-16,17.63-8,35.13-16.4,52.69-24.6a34.82,34.82,0,0,0,7.44-10.92q6.09-11.05,11.57-22.44a35.07,35.07,0,0,0,4.57-12.4c0-2.16-1-2.64-2.76-1.42C1156,570.61,1053.39,615.29,950.83,660q-72.54,31.6-145.07,63.23c-27.26,11.88-54.59,23.6-81.87,35.43-11.9,5.16-23.72,10.46-35.32,16.3Q680.13,779,672,783.63a225.36,225.36,0,0,1-25.74,12.61l1.79-.68a88.78,88.78,0,0,1-40.92,4.79,302.14,302.14,0,0,1-61.28-5.71,7.1,7.1,0,0,0-4,4.32q-5.37,9.31-10.22,18.89t-9.45,19.29A7.1,7.1,0,0,0,520.92,842.94Z"/><path class="cls-22" d="M711.73,1001.64,735.47,988,755,978.61q13.15-5.61,26.39-11.09,8.85-3.63,17.63-7.44c27.27-11.65,54.35-23.74,81.51-35.65q81.59-35.77,163.19-71.5,162.68-71.28,325.52-142.11a25.55,25.55,0,0,0-3.81-4.24q-7.59-7.61-15.27-15.1t-15.4-15a25.49,25.49,0,0,0-4.31-3.73q-163,70.56-325.51,142.1L850.8,882.42c-27.23,11.93-54.39,24-81.67,35.82-14.65,6.33-29.4,12.39-44.1,18.6q-9.49,3.76-18.59,8.41a254.14,254.14,0,0,0-33.52,18.36q2,2,4,4l15.34,15q7.66,7.51,15.34,15Q709.67,999.68,711.73,1001.64Z"/></g><g class="cls-23"><path class="cls-22" d="M664.77,814.59c51.45-23,103.4-44.92,155.36-66.77Q905.89,711.76,992,676.68q172-70,345.61-135.78c-1.34-1.34-2.7-2.67-4.05-4l-15.33-15-15.33-15c-1.35-1.34-2.71-2.66-4.07-4q-173.64,65.77-345.62,135.79Q871.64,671.9,790.36,706c-55,23.06-109.89,46.26-164.34,70.52q2,2,4,4,7.65,7.54,15.31,15.06t15.32,15Q662.71,812.63,664.77,814.59Z"/><path class="cls-22" d="M419.76,833.59a366.35,366.35,0,0,0,47-16.73A173.85,173.85,0,0,0,491,805.51c8.25-4.27,16.48-8.5,24.9-12.44,15.28-7.14,31-13.5,46.54-20.08q22.64-9.6,45.28-19.17,94.88-40.05,190.23-78.92c126.34-51.46,253.38-101.12,380.68-150.13a9,9,0,0,0,0-5.81q-1.69-10.61-3.8-21.13c.1.54-5-27-6.61-26.39-127.3,49-254.36,98.62-380.67,150.13q-90.82,37-181.2,75.11c-31.34,13.2-62.8,26.17-93.88,40q-6.81,2.9-13.42,6.18-9.39,4.35-18.46,9.35L467,759.11a452.5,452.5,0,0,1-57.62,21.15,8.28,8.28,0,0,0-.17,5.83q1.65,10.62,3.77,21.14C412.89,806.79,417.73,834.28,419.76,833.59Z"/><path class="cls-22" d="M497.65,800.66q22-6,43.57-13.31a243.21,243.21,0,0,0,31.3-11.77c11.81-5.39,23.33-11.36,35.07-16.88,29.34-13.81,59.46-26,89.32-38.62q94.74-40,190-78.94c129.59-52.91,259.93-103.89,390.57-154.12a5.83,5.83,0,0,0,2.32-5.8q.36-10.74-.23-21.48c0,.55-.59-28.47-4.4-27C1144.48,483,1014.14,534,884.56,586.85q-95.23,38.88-190,78.95c-27.56,11.65-55.26,23-82.51,35.41q-10.26,4.68-20.37,9.73Q581,716.27,570.21,721.3l-18.62,7.59q-27.86,9.61-56.25,17.49c-2.65.91-4,2.86-4.13,5.87A198.29,198.29,0,0,0,493,795.16Q493.56,799.65,497.65,800.66Z"/><path class="cls-22" d="M602.64,770.39a153,153,0,0,0,25.65-10.08q10.82-4.86,21.2-10.58,13.68-6.91,27.6-13.32c15.4-7,31.12-13.48,46.7-20.09q22.53-9.57,45.07-19.11,94.68-40,189.84-78.79c126.75-51.65,254.2-101.54,382-150.56a53.56,53.56,0,0,0,1.66-5.45q2.89-10.34,5.72-20.69t5.64-20.72c.54-1.82,1-3.67,1.35-5.53-127.78,49-255.25,98.86-382,150.55q-90.63,37-180.82,75c-31.26,13.18-62.59,26.23-93.65,39.87q-17.62,7.74-34.74,16.46l-13.67,7.07A200.36,200.36,0,0,1,617,718a46.3,46.3,0,0,0-1.69,5.44q-2.91,10.34-5.73,20.69T604,764.85A44.16,44.16,0,0,0,602.64,770.39Z"/><path class="cls-22" d="M430.36,684.54A273.77,273.77,0,0,0,484.78,690a48,48,0,0,0,24.78-1.85,53,53,0,0,0,24.68-10.29l12.51-7.51c13.3-7.63,27.69-13.5,41.8-19.43q18.13-7.62,36.3-15.19c63.29-26.53,126.62-53,190.17-78.86q90.74-37,181.85-73,45.45-18,91-35.81C1121,435.2,1154,421.84,1187,408.76l-1.77.69q18.07-7,36.06-14.18a7.35,7.35,0,0,0,4-4.36q5.34-9.32,10.2-18.9t9.47-19.27a7.29,7.29,0,0,0,1.23-5.77c-30.72,12.21-61.6,24-92.41,36q-45.54,17.73-91,35.56Q971.66,454.34,881,491.15q-86.16,35-171.92,70.94c-30.12,12.64-60.2,25.4-90.32,38-12.54,5.26-25.26,10.29-37.44,16.38l-13.08,7a250.7,250.7,0,0,1-25.71,14.89l1.52-.82a67,67,0,0,1-34.39,4.13,274.5,274.5,0,0,1-54.41-5.5,21.86,21.86,0,0,0-3,4.87q-5,9.48-9.94,19t-9.73,19.14A21.69,21.69,0,0,0,430.36,684.54Z"/></g><g class="cls-23"><path class="cls-22" d="M839.31,797.93Q948,751.15,1056.38,703.85a39.4,39.4,0,0,0,1.85-5.39q3.12-10.28,6.16-20.57t6-20.61a39.12,39.12,0,0,0,1.39-5.52q-108.52,47.06-217,94.08c-.57,1.82-1.12,3.63-1.65,5.45L847,771.88q-3.06,10.29-6.11,20.58C840.36,794.28,839.82,796.1,839.31,797.93Z"/><path class="cls-22" d="M522.5,1059.53l40.73-12.25,25.61-9.31c14.31-5.64,28.15-12.68,42.16-19,26.76-12.13,53.84-23.55,80.81-35.2Q793.61,948.4,875.34,913c107.77-46.68,215.62-93.21,323-140.76a6.26,6.26,0,0,0,1-6q-1.41-10.66-3.56-21.19c.07.39-4.63-27.55-7.79-26.16C1080.59,766.42,972.74,813,865,859.63q-77.21,33.43-154.42,66.84C683.35,938.23,656,949.74,629,961.82c-13.92,6.21-27.66,12.81-41.62,18.92a183.2,183.2,0,0,1-21.71,8.55,496.43,496.43,0,0,1-53.54,16.91,5.83,5.83,0,0,0-1.41,6.08q1.25,10.66,3.43,21.2,1.92,10.59,4.77,21A5.81,5.81,0,0,0,522.5,1059.53Z"/><path class="cls-22" d="M595,1026.28l34.94-8.57a358.27,358.27,0,0,0,41.41-12.37,206,206,0,0,0,21.27-8q9.35-3.68,18.46-7.86,40.06-17.78,80.26-35.26,22.68-9.81,45.37-19.58c13.78-5.9,27.71-11.44,41.53-17.26,24.77-10.45,49.37-21.31,74-32.13q79.9-35.14,160-69.87,40.69-17.71,81.41-35.36c15.18-6.55,30.36-13.09,45.48-19.77,19.41-8.57,38.69-17.42,58.09-26a5.68,5.68,0,0,0,2.75-5.78,295.74,295.74,0,0,0-1.2-42.92,5.68,5.68,0,0,0-3.08-5.61q-25.26,11-50.8,21.42c-16.85,6.82-33.71,13.62-50.5,20.59-28.23,11.71-56.18,24.12-84.21,36.31Q1025.73,795,941.42,832c-23.64,10.44-47.37,20.71-70.82,31.58-9.22,4.28-18.37,8.72-27.63,12.93-14.85,6.74-29.9,13-44.86,19.5q-40.35,17.44-80.52,35.27c-12.22,5.44-24.45,10.85-36.91,15.72a332.5,332.5,0,0,1-38.18,12.24q-24.69,7.18-49.82,12.73c-2.93.76-4.56,2.72-4.9,5.91a169.47,169.47,0,0,0,1.83,42.91C590.21,1024,592,1025.77,595,1026.28Z"/><path class="cls-22" d="M678.8,1002.43l25.6-5.78a196.86,196.86,0,0,0,32.39-10.32q9.5-3.39,18.61-7.7,8.88-3.9,17.7-8C799.9,958.52,827,946.94,854,935.26q86-37.15,171.89-74.47,167-72.37,333.86-145.27a25.27,25.27,0,0,0,1.86-5.39q2.94-10.32,5.77-20.68t5.59-20.73a25,25,0,0,0,1.15-5.59q-166.66,73.23-333.85,145.27Q958.83,843.67,877.41,879c-27.08,11.71-54.23,23.26-81.15,35.35-11.79,5.3-23.5,10.83-35.41,15.89A188.53,188.53,0,0,1,730.12,941a311.06,311.06,0,0,1-37,9c-.52,1.83-1,3.66-1.52,5.49q-2.82,10.37-5.65,20.72t-5.65,20.71C679.78,998.76,679.29,1000.59,678.8,1002.43Z"/><path class="cls-22" d="M528,910.73l44,5.51a101.33,101.33,0,0,0,46.57-1.74c15.27-3.27,15.2-3,31.49-11.11l16.51-8.65,17.1-8.35c14.88-6.95,30.09-13.2,45.21-19.6,57.72-24.39,115.23-49.25,172.83-73.94,54.38-23.3,108.61-46.94,162.9-70.47,30.07-13,60.23-25.89,90.11-39.35q17.77-8,35.52-16c17.57-8,35-16.23,52.42-24.46a40.31,40.31,0,0,0,7.25-11q6-11.09,11.56-22.44a40.28,40.28,0,0,0,4.78-12.3c.07-2.1-.72-2.5-2.38-1.23-101.9,45.22-204.27,89.38-306.56,133.72q-72.36,31.37-144.77,62.66c-27.2,11.77-54.47,23.38-81.7,35.1-11.88,5.12-23.68,10.38-35.25,16.16q-8.43,4-16.58,8.61a224.12,224.12,0,0,1-25.71,12.49l1.92-.61a89.33,89.33,0,0,1-40.93,4.64,301.8,301.8,0,0,1-61.38-5.89,7.07,7.07,0,0,0-4,4.32q-5.37,9.3-10.22,18.89t-9.45,19.28A7.11,7.11,0,0,0,528,910.73Z"/><path class="cls-22" d="M718.8,1069.47l23.73-13.62,19.51-9.31q13.14-5.58,26.35-11,8.83-3.6,17.6-7.37c27.21-11.55,54.24-23.53,81.35-35.32q81.42-35.45,162.87-70.84,162.24-70.53,324.69-140.59a52.7,52.7,0,0,0-3.94-4.11q-7.64-7.56-15.3-15.06t-15.37-15a49.37,49.37,0,0,0-4.19-3.86Q1173.5,813.08,1011.42,884L857.6,950.88c-27.17,11.82-54.27,23.81-81.51,35.48-14.62,6.28-29.35,12.28-44,18.44q-9.48,3.74-18.57,8.36A251.77,251.77,0,0,0,680,1031.42q1.93,2.08,4,4.06,7.65,7.53,15.31,15t15.34,15Q716.67,1067.58,718.8,1069.47Z"/></g><g class="cls-23"><path class="cls-22" d="M780.43,1020c67.94-24.16,135.46-49.42,202.32-76.42s133.14-55.65,198.75-85.7l-4.1-4L1162,839l-15.45-14.92-4.1-4c-65.59,29.75-131.64,58.39-198.42,85.37S809.55,957.78,741.6,982q2,2,4,4L761,1001l15.35,15Q778.38,1018,780.43,1020Z"/><path class="cls-22" d="M635.51,994.46l22.6-4.48a289.23,289.23,0,0,0,28-8.49c14.58-5,29.08-10.2,43.63-15.26,26.67-9.27,53.34-18.51,79.88-28.14q84-30.47,166.73-64.1,78.37-31.9,155.62-66.5c57.16-25.61,113.68-52.59,169.78-80.44.53-1.82,1-3.65,1.54-5.48q2.85-10.35,5.69-20.71l5.67-20.71c.51-1.82,1-3.66,1.47-5.5q-159.93,79.47-325.4,147-78.42,31.8-157.9,60.89c-29.45,10.77-59.09,21-88.7,31.35-11.63,4-23.23,8.19-34.85,12.26a282.57,282.57,0,0,1-27.17,8.74,200.87,200.87,0,0,1-32.21,7.23c-.56,1.81-1.08,3.64-1.57,5.47q-2.85,10.35-5.69,20.7T637,989C636.44,990.78,636,992.62,635.51,994.46Z"/><path class="cls-22" d="M452.14,1057.82c25.23-6.33,50.49-12.26,75.16-20.52,13.67-4.57,27.21-9.51,40.81-14.28,29.59-10.38,59.24-20.61,88.69-31.38Q740.67,961,823.35,927.21q169.14-69.13,332.4-151.47a29.13,29.13,0,0,0-.79-5.65q-1.95-10.56-4-21.09t-4.18-21.06a28.17,28.17,0,0,0-1.39-5.53Q982.29,804.81,813,873.88q-82.65,33.78-166.55,64.43c-29.46,10.75-59.1,21-88.69,31.38-10.7,3.76-21.37,7.62-32.08,11.36q-14.89,5.4-30.2,9.51-26.59,7.89-53.69,13.92a14.4,14.4,0,0,0,.45,5.72q1.85,10.57,3.93,21.11C446,1030.82,451,1058.09,452.14,1057.82Z"/><path class="cls-22" d="M525.41,1022.11q25.51-4.08,50.73-9.61a258.89,258.89,0,0,0,26.35-6.17q15.24-3.75,30-9l17.21-6c29.32-10.24,58.66-20.45,87.89-31q88.46-31.85,175.59-67.3Q1087.16,822.29,1255,737.84a6.16,6.16,0,0,0,1.9-5.78q.22-10.74-.34-21.47-.35-10.76-1.48-21.43a6.17,6.17,0,0,0-2.39-5.6Q1085,768.06,910.92,838.82q-82.77,33.57-166.74,64.09c-29.3,10.63-58.76,20.83-88.16,31.17-14.73,5.19-29.45,10.52-44.44,14.94-29,8.54-58.81,13.45-88.48,18.81-2.46,1-3.69,3-3.66,5.85a222,222,0,0,0,1.82,42.91C521.48,1019.47,522.87,1021.31,525.41,1022.11Z"/><path class="cls-22" d="M502.15,913.48a110.32,110.32,0,0,0,46.63,1.5,49.56,49.56,0,0,0,20.39-4.58,209.25,209.25,0,0,0,24.76-10l16.7-6.63c17.53-6.74,35.52-12.39,53.24-18.62q17.77-6.25,35.48-12.71,92.74-33.74,183.95-71.62c107-44.23,212.38-92.26,315.42-145.06a10.86,10.86,0,0,0,3.41-4.65q5.16-9.4,10-19t9.63-19.2a10.82,10.82,0,0,0,1.8-5.48q-84.24,43.15-170.43,82.27l1.66-.75-18.8,8.49,1.66-.75q-120.21,53.65-243,101c-41,15.73-82.24,31-123.78,45.28-17.48,6-35,12-52.06,19a278.34,278.34,0,0,1-33.44,13.06,137.55,137.55,0,0,1-58.33,0,6.9,6.9,0,0,0-4.11,4.29q-5.4,9.28-10.24,18.88-5,9.51-9.44,19.29A6.91,6.91,0,0,0,502.15,913.48Z"/></g><g class="cls-23"><path class="cls-22" d="M691.18,825.76Q708,815.58,725.6,807q16.36-8.19,32.68-16.5c22.61-11.49,45.21-23,68-34.14,45.43-22.25,91.38-43.4,137.63-63.89-1.32-1.36-2.67-2.7-4-4l-15.32-15q-7.66-7.51-15.34-15c-1.35-1.34-2.71-2.66-4.1-4-46.24,20.5-92.19,41.65-137.63,63.89-22.78,11.15-45.38,22.65-68,34.14q-16.34,8.33-32.71,16.52-17.61,8.61-34.4,18.77,2,2,4.05,4l15.33,15,15.33,15C688.45,823.12,689.81,824.44,691.18,825.76Z"/><path class="cls-22" d="M472.08,830.58a353.05,353.05,0,0,0,51.33-18.65,127.89,127.89,0,0,0,20.24-9.6c12.83-6.91,25.36-14.35,38.22-21.21,27.89-14.88,56.46-28.6,84.94-42.32,56.63-27.31,113.91-53.17,171.66-78a12.3,12.3,0,0,0-.32-5.74q-1.8-10.57-3.89-21.11t-4.31-21a12.1,12.1,0,0,0-1.86-5.44c-57.74,24.84-115.07,50.64-171.66,78-25.69,12.42-51.38,24.89-76.71,38q-12,6.11-23.65,12.72l-14.63,8.37-16.33,8.8a438.4,438.4,0,0,1-63.41,23.85,6.5,6.5,0,0,0-.78,6q1.45,10.63,3.6,21.17,2,10.56,4.6,21A6.48,6.48,0,0,0,472.08,830.58Z"/><path class="cls-22" d="M546.48,798.5q24-6.42,47.46-14.62a266.84,266.84,0,0,0,36.06-14c11.62-5.52,22.92-11.64,34.25-17.71,30.44-16.32,61.3-31.78,92.38-46.86Q846.06,662,937.49,623a6,6,0,0,0,2.14-5.79q.3-10.74-.28-21.48Q939,585,937.8,574.27a5.91,5.91,0,0,0-2.62-5.58c-60.89,26.14-121.24,53.45-180.86,82.38-28.3,13.73-56.51,27.67-84.25,42.51q-12.26,6.55-24.49,13.13l-17.88,8.93-21.9,9.19q-30.45,10.86-61.63,19.39-4.32,1.17-4.75,5.9a174.43,174.43,0,0,0,1.83,42.9C541.8,796.14,543.55,798,546.48,798.5Z"/><path class="cls-22" d="M654.48,767.54a171.73,171.73,0,0,0,30.3-12.09A185.3,185.3,0,0,0,702,746.66c13.69-7.45,27.31-15,41.13-22.22,28.05-14.64,56.51-28.57,85-42.32q85.41-41.18,172.66-78.33c.57-1.81,1.1-3.64,1.58-5.47q2.87-10.35,5.7-20.7t5.66-20.72q.78-2.73,1.43-5.51c-58.1,24.91-115.76,50.8-172.66,78.34-25.65,12.41-51.24,25-76.59,38-13.9,7.13-27.61,14.57-41.31,22.06l-16.5,9a222.78,222.78,0,0,1-39.31,16.4,27.77,27.77,0,0,0-1.82,5.41q-2.94,10.32-5.77,20.68T655.67,762A27.33,27.33,0,0,0,654.48,767.54Z"/><path class="cls-22" d="M479.42,682.84a269.17,269.17,0,0,0,59,3.87,76.77,76.77,0,0,0,38.8-6.42,249.35,249.35,0,0,0,25.44-14.76Q614.08,658,626,651.42l16.6-8.79c16.91-8.78,34.22-16.89,51.36-25.19,28.44-13.78,56.91-27.48,85.59-40.74,33.72-15.6,67.69-30.71,101.72-45.62A8.28,8.28,0,0,0,885,526.6q5.28-9.35,10.14-18.93t9.53-19.24a8.33,8.33,0,0,0,1.48-5.64c-52.57,23-105,46.38-156.77,71.16-22.88,10.95-45.74,22-68.47,33.23-14,6.94-27.94,14-41.38,22q-7.86,4.45-15.32,9.54a214.87,214.87,0,0,1-23.72,14l1.59-.78a76.57,76.57,0,0,1-38.8,6.42,269.13,269.13,0,0,1-59-3.87,7.88,7.88,0,0,0-3.83,4.44q-5.31,9.33-10.16,18.92t-9.51,19.25A7.89,7.89,0,0,0,479.42,682.84Z"/></g></g><circle class="cls-24" cx="1059.86" cy="600.87" r="32.34"/><circle class="cls-15" cx="1059.07" cy="597.64" r="32.34"/><circle class="cls-25" cx="1048.9" cy="692.12" r="32.34"/><circle class="cls-18" cx="1047.96" cy="688.28" r="32.34"/><circle class="cls-26" cx="982.83" cy="763.89" r="32.34"/><circle class="cls-14" cx="982.23" cy="761.46" r="32.34"/><circle class="cls-27" cx="882.27" cy="795.41" r="32.34"/><circle class="cls-16" cx="881.56" cy="792.5" r="32.34"/><g class="cls-28"><path class="cls-7" d="M857.39,794.23c-.82-10.13,4.17-18.37,12.13-24.24a.7.7,0,0,0-.71-1.21c-9.35,4.51-14.07,15.41-13.11,25.45.11,1.06,1.78,1.08,1.69,0Z"/></g><g class="cls-28"><path class="cls-7" d="M958.17,763.18c-2.5-9.52,1.65-17.56,9.4-23a.61.61,0,0,0-.62-1c-9.46,4.15-13,15-10.23,24.47a.75.75,0,0,0,1.45-.4Z"/></g><g class="cls-28"><path class="cls-7" d="M1022.15,691.83c-.74-12.07,7.39-21.93,17.53-27.47.77-.43.24-1.8-.61-1.46-12.14,4.82-20.39,15.41-18.7,28.93.14,1.11,1.86,1.17,1.78,0Z"/></g><g class="cls-28"><path class="cls-7" d="M1032.21,597.16c.82-4,1.37-7.29,3.66-10.8,2.11-3.24,4.92-6,7.44-8.92.61-.71-.21-2-1.08-1.4-6,4.42-13.9,12.84-11.28,21.12a.66.66,0,0,0,1.26,0Z"/></g><g class="cls-28"><path class="cls-7" d="M1075.09,682.38c-1.49,4-1.37,8.31-2.48,12.38s-3.57,7.65-6.23,11c-.67.87.21,2.47,1.31,1.7,7.67-5.44,9.82-16.29,8-25.13-.07-.35-.53-.28-.63,0Z"/></g><g class="cls-28"><path class="cls-7" d="M1083.2,590.35c-.86,3.35-.87,6.81-1.93,10.12-1.17,3.68-3.21,6.84-5.14,10.15a1.13,1.13,0,0,0,1.77,1.36c5.53-4.59,9.26-14.89,6-21.71a.37.37,0,0,0-.68.08Z"/></g><g class="cls-28"><path class="cls-7" d="M1006.84,761.75c-1.3,11.2-9.28,17-17.13,24-.69.6.19,1.7,1,1.25,9-5.23,18.05-14.1,17.67-25.2a.75.75,0,0,0-1.5,0Z"/></g><g class="cls-28"><path class="cls-7" d="M908,788.77c-3.48,9.49-6.9,17.91-15,24.4-.71.57.06,1.92.91,1.56,9.93-4.14,15.84-15.32,15.37-25.79a.66.66,0,0,0-1.29-.17Z"/></g></g></g></svg>