<svg xmlns="http://www.w3.org/2000/svg" viewBox="0 0 834.75 2047.55"><defs><style>.cls-1{fill:#4aa934;}.cls-2{fill:#f9b232;}.cls-3{fill:#f39f1c;}.cls-4{fill:#38732f;}.cls-5{fill:#f6a866;}.cls-6{fill:#f18839;}.cls-7{fill:#311f11;}.cls-8{fill:#1d130d;}.cls-9{fill:#fab42a;}.cls-10{fill:#e19701;}.cls-11{fill:#fcc25b;}.cls-12{fill:#fab511;}.cls-13{fill:#3960aa;}.cls-14{fill:#326ab2;}.cls-15{fill:#809dd2;}.cls-16{fill:#d88aba;}.cls-17{fill:#b54291;}.cls-18{fill:#df96c1;}.cls-19{fill:#a33086;}.cls-20{fill:#ef7a2c;}.cls-21{fill:#da671a;}</style></defs><title>flores_1</title><g id="Capa_2" data-name="Capa 2"><g id="Capa_3" data-name="Capa 3"><path class="cls-1" d="M224.53,612.38s104,220,100,458"/><circle class="cls-2" cx="186.28" cy="602.06" r="81.43"/><path class="cls-3" d="M188.68,517.19V680.08a81.45,81.45,0,0,0,0-162.89Z"/><path class="cls-1" d="M389.69,337.19c4.43-7.62,13.79,215.23-18.78,516.18"/><path class="cls-1" d="M382,707.65a53.78,53.78,0,0,0,.29,38.71,54,54,0,0,0,62-72.42A54,54,0,0,0,382,707.65Z"/><path class="cls-4" d="M385,724.6a53.8,53.8,0,0,0-5.42,38.33,54,54,0,0,0,72-62.48A54,54,0,0,0,385,724.6Z"/><circle class="cls-5" cx="390.85" cy="186.25" r="81.43"/><path class="cls-6" d="M391.09,98.5V261.38a81.44,81.44,0,0,0,0-162.88Z"/><path class="cls-1" d="M653.13,542.22S507.28,737,463.66,971"/><circle class="cls-7" cx="648.07" cy="550.79" r="81.43"/><path class="cls-8" d="M647.41,467.75V630.63a81.44,81.44,0,0,0,0-162.88Z"/><circle class="cls-9" cx="588.1" cy="662.27" r="54"/><circle class="cls-10" cx="549.74" cy="640.15" r="54"/><circle class="cls-11" cx="531.77" cy="618.73" r="54"/><circle class="cls-12" cx="522.94" cy="599.58" r="54"/><circle class="cls-11" cx="516.44" cy="571.03" r="54"/><circle class="cls-12" cx="516.03" cy="534.75" r="54"/><circle class="cls-11" cx="524.02" cy="502.65" r="54"/><circle class="cls-10" cx="539.43" cy="474.55" r="54"/><circle class="cls-11" cx="564.75" cy="447.86" r="54"/><circle class="cls-12" cx="596.03" cy="429.65" r="54"/><circle class="cls-11" cx="628.95" cy="419.99" r="54"/><circle class="cls-12" cx="660.84" cy="419.01" r="54"/><circle class="cls-11" cx="697.52" cy="427.46" r="54"/><circle class="cls-10" cx="729.96" cy="447.02" r="54"/><circle class="cls-11" cx="757.55" cy="474.87" r="54"/><circle class="cls-12" cx="773.83" cy="509.53" r="54"/><circle class="cls-11" cx="780.75" cy="555.07" r="54"/><circle class="cls-10" cx="773.61" cy="595.79" r="54"/><circle class="cls-11" cx="755.25" cy="629.12" r="54"/><circle class="cls-12" cx="729.43" cy="653.36" r="54"/><circle class="cls-11" cx="700.31" cy="672.28" r="54"/><circle class="cls-12" cx="661.35" cy="680.69" r="54"/><path class="cls-11" d="M630.51,624.93c-1.63-.29-3.26-.48-4.88-.62A54,54,0,0,1,582.7,716a54,54,0,1,0,47.81-91.05Z"/><circle class="cls-13" cx="184.53" cy="728.63" r="54"/><circle class="cls-14" cx="148.56" cy="726.29" r="54"/><circle class="cls-15" cx="119.22" cy="716.28" r="54"/><circle class="cls-14" cx="97.8" cy="703.09" r="54"/><circle class="cls-15" cx="78.85" cy="680.76" r="54"/><circle class="cls-13" cx="61.74" cy="648.77" r="54"/><circle class="cls-15" cx="54.01" cy="616.6" r="54"/><circle class="cls-14" cx="54.72" cy="584.56" r="54"/><circle class="cls-15" cx="64.86" cy="549.19" r="54"/><circle class="cls-14" cx="84.21" cy="518.6" r="54"/><circle class="cls-15" cx="108.95" cy="494.84" r="54"/><circle class="cls-14" cx="136.79" cy="479.25" r="54"/><circle class="cls-15" cx="173.23" cy="469.82" r="54"/><circle class="cls-14" cx="211.04" cy="472.2" r="54"/><circle class="cls-15" cx="248.36" cy="484.17" r="54"/><circle class="cls-13" cx="278.81" cy="507.41" r="54"/><circle class="cls-15" cx="305.96" cy="544.62" r="54"/><circle class="cls-14" cx="318.42" cy="584.03" r="54"/><circle class="cls-15" cx="317.51" cy="622.07" r="54"/><circle class="cls-14" cx="305.79" cy="655.5" r="54"/><circle class="cls-15" cx="288.7" cy="685.72" r="54"/><path class="cls-14" d="M309.67,694.87a54,54,0,0,0-97.15-12.52,54,54,0,0,1,17.85,75.07,54,54,0,0,0,79.3-62.55Z"/><path class="cls-15" d="M281.56,708.35a54,54,0,0,0-79-30.19,54,54,0,0,1,8.32,96.93,54,54,0,0,0,70.67-66.74Z"/><circle class="cls-16" cx="394.2" cy="310.9" r="54"/><circle class="cls-17" cx="359.97" cy="310.9" r="54"/><circle class="cls-18" cx="323.45" cy="300.19" r="54"/><circle class="cls-17" cx="302.36" cy="287.28" r="54"/><circle class="cls-18" cx="283.42" cy="264.95" r="54"/><circle class="cls-17" cx="266.31" cy="232.96" r="54"/><circle class="cls-18" cx="258.58" cy="200.79" r="54"/><circle class="cls-19" cx="259.29" cy="168.75" r="54"/><circle class="cls-18" cx="269.43" cy="133.38" r="54"/><circle class="cls-17" cx="288.77" cy="102.79" r="54"/><circle class="cls-18" cx="313.52" cy="79.03" r="54"/><circle class="cls-17" cx="341.36" cy="63.44" r="54"/><circle class="cls-18" cx="377.8" cy="54.01" r="54"/><circle class="cls-19" cx="415.61" cy="56.39" r="54"/><circle class="cls-18" cx="452.93" cy="68.36" r="54"/><circle class="cls-17" cx="483.38" cy="91.6" r="54"/><circle class="cls-18" cx="510.53" cy="128.81" r="54"/><circle class="cls-19" cx="522.99" cy="168.22" r="54"/><circle class="cls-18" cx="522.08" cy="206.26" r="54"/><circle class="cls-17" cx="510.36" cy="239.69" r="54"/><circle class="cls-18" cx="493.27" cy="269.91" r="54"/><path class="cls-17" d="M513.56,277.42a54,54,0,0,0-95.51-15,54,54,0,0,1,20.23,79.72,54,54,0,0,0,75.28-64.74Z"/><path class="cls-19" d="M492.58,290.68a54,54,0,0,0-79-30.19,54,54,0,0,1,8.32,96.93,54,54,0,0,0,70.67-66.74Z"/><path class="cls-20" d="M494.1,2047.55h-210c-174-400.29-108-520.71,3-753.21s-75-481.5-75-481.5h1A112.24,112.24,0,0,0,392.3,831a110.67,110.67,0,0,0,9.38-11.74c2.05-2.23,4.18-4.39,6.4-6.44a112.2,112.2,0,0,1,152.82,0q1.58,1.44,3.07,3c-11,15.53-62,90.73-89.83,191-23.61,84.88-30.69,187.74,17,287.55C602.1,1526.84,668.1,1647.26,494.1,2047.55Z"/><path class="cls-21" d="M474.14,1006.79C502,906.53,552.94,831.33,564,815.8q-1.5-1.51-3.07-3a112.2,112.2,0,0,0-152.82,0c-2.22,2-4.35,4.21-6.4,6.44A110.67,110.67,0,0,1,392.3,831c-1,1.14-2.11,2.25-3.2,3.35V2047.55h105c174-400.29,108-520.71-3-753.21C443.45,1194.53,450.53,1091.67,474.14,1006.79Z"/></g></g></svg>