<svg xmlns="http://www.w3.org/2000/svg" viewBox="0 0 2033.44 2335.2"><defs><style>.cls-1{fill:#fff;}.cls-2{fill:#0b0c0c;}.cls-3{fill:#f8c328;}.cls-4{fill:#eaeaea;}.cls-5{fill:#73c9e4;}.cls-6{fill:#111110;}.cls-7{fill:#242424;}.cls-8{fill:#f49a26;}.cls-9{fill:#c1692a;}.cls-10{fill:#efefef;}.cls-11{fill:#010101;}</style></defs><title>grua</title><g id="Capa_2" data-name="Capa 2"><g id="Capa_1-2" data-name="Capa 1"><path class="cls-1" d="M530.6,515.2V722.42q10.14.41,20.24,1V515.2Z"/><path class="cls-2" d="M1260.24,82l.08-.09S1260.23,82,1260.24,82Z"/><path class="cls-2" d="M1274.3,79.94c-.13-.93-.29-1.86-.46-2.79a3.64,3.64,0,0,0-1.12.21c-1.85-3-3.6-5.89-2.88-6.21-3.28-2.75-12.36.4-15.64-2.35-3.68,1.49-7.3,3.16-11,4.43Q954.31,171,665.45,268.81c-96.15,32.64-192.11,65.85-288.17,98.79l33.42.46c49.65-21.38,101.6-36.3,152.65-53.68Q902.64,198.82,1242.4,84.69c5.84-2,11.32-6.82,18.19-3.1l-.27.33a17.27,17.27,0,0,1,4.28.59c-2.81,3.34-7.72,4.43-11.22,6.72-71,46.28-142.15,92.18-213.15,138.38Q936.36,295.19,832.71,363.14l19.38,0c1.39-1.35,2.59-3,4.18-4q207.89-134.49,415.81-268.9a10.29,10.29,0,0,0,2.39-5.75c1,.14,1.67.15,1.62-.07C1276.67,84.14,1275.67,82.23,1274.3,79.94Z"/><path class="cls-2" d="M1384.55,90c.16-4.46-5.51-11.32,4.79-11.57l284,174.15,140.28,86.08c-6.76,2.15-13.53,1.66-20.32.19-36.44-22.5-72.74-45.24-109.34-67.47Q1534.36,180.52,1384.55,90Z"/><path class="cls-3" d="M1998.05,336.13H1762.44a35.4,35.4,0,0,0-35.19,31.67H1468.58q-.21,73.54-.4,147.07h260.6a35.31,35.31,0,0,0,7.79,13.22c.39.59.79,1.16,1.21,1.71l.29-.2a35.25,35.25,0,0,0,24.37,9.75h235.61A35.38,35.38,0,0,0,2033.44,504V371.52A35.39,35.39,0,0,0,1998.05,336.13ZM1487.34,488.89v-63.4l56.27,60.36C1524.33,491.07,1506.94,487.19,1487.34,488.89Zm85.23-10.54-75.18-81.22h75.18Zm27.2-81.71h65.8l-65.8,72.28Zm85.13,90.55h-66.51L1684.9,415Zm26.1,1.58V427.09c7.75,4.29,12.8,9.29,16.06,14.72v46.64C1721.66,490.37,1716.62,488.9,1711,488.77Z"/><path class="cls-3" d="M1216.31,2097.71q.06-773.46.14-1546.9l31.57-.07v67.15c24-25.36,46.55-44.21,64.9-67.29l35.8.39-85,87.92h136.14V550.75l31.74.09q0,773.42,0,1546.83l-31.54,0v-89l-90.62,88.88-34.44.06,110.6-113.9H1248.4v113.93Zm183.08-1054.8H1263.67c44.53,44.87,91,91.7,135.72,136.76Zm-.61,751.95H1256.29l142.49,140.93Zm-139.73-375.7L1398.87,1559V1419.16Zm140.08-751.44H1261.91c45.21,45.52,91.39,92,137.22,138.13Zm-149.9,1070.85L1382,1607.06H1249.23Zm0-373.57,133-132.89h-133Zm0-380c43.36-42.75,88.56-87.3,132-130.16h-132Zm149.66,658.84-124.48,122.45h124.48Zm.07-750.15-122.71,120.61H1399Zm-.12,371.64-123.24,123.87h123.24ZM1249.3,1953.9h122.06L1249.3,1831Zm.64-873.86v122.34h122.18Zm-1-254.5H1369l-120.09-122Zm.59,629v122.23h122.92Z"/><path class="cls-3" d="M1166.93,514.36c-42.38.28-84.76.77-127.14.81q-221.61.23-443.21.2-.6-12.87-1.21-25.75l13.25-3.21L551.8,424.87v62.89l-26-.07V422.06l-4.94-1L460.79,487l20,2.75q-.45,13-.91,25.94H175.33c-6.64-11-2-21-4.33-31.46L302,367.6h75.26l33.42.46,415.85-.35,19.38,0,315.18.57c.81,9.87-3.41,18.77-5.36,28.11-12.79.56-25.87-2.49-37.36,1.75v62.13l28.94-27.3c-5.38,15.57,4.06,30.92.6,46.53C1161.49,487.16,1162,502,1166.93,514.36Zm-76.79-116.55h-78l78,84Zm-452.69,80.8V397.45H562.89ZM300.13,487.3V412.6l-83.95,74.7Zm487.21-90.52,74,79.71V396.78ZM412,475.82V397.59h-72.1Zm338.21-62.65c-24.24,26.37-45.05,49-68.33,74.3,25.18,1.33,46.37,2,68.33-.56ZM440.65,469.93l65.4-72.64h-65.4ZM890.2,467.4c23.75-25.06,44.44-45.6,63.23-70.15H890.2ZM665.45,397V465.9l63-68.92Zm308.7,20.49c-24.24,23.89-44.1,45.52-63.07,69.35h63.07ZM386.33,487.61c-21.2-22.23-37-44.2-58.88-62v62Zm449-.08-58.63-63v63Zm166.51-62.45c-.36,24.28-2.23,43.1,1.15,62.54,18.17.94,35.33,2.25,54.93-1.32Z"/><path class="cls-3" d="M1282.89,283.45l-33.34-.22q8.17-94.23,16.37-188.45c3.32-4,2.58-8.52,1.75-13.06L1264,77.06l-9.84-8.26c-10.9-30.51-.89-45.07,31.42-45.76,4-.09,7.88-.44,11.82-.68,21,2.23,42,2.65,63.06-.08,5.24.27,10.49.78,15.73.75,14.2-.09,27,3.23,30.81,18.7,4.07,16.37-.24,30.05-17.7,36.71-10.3.25-4.63,7.11-4.79,11.57l18,193.31-33,.12q-1.66-22.5-3.29-45h-81.12C1284.31,254.48,1283.6,269,1282.89,283.45ZM1363.63,211l-6-58.75h-63.76c-2,20-3.83,38.7-5.82,58.75ZM1301,78.89c-1.63,16.34-3,30.52-4.57,45.83h59.14c-1.78-16.12-3.41-30.79-5.07-45.83Z"/><polygon class="cls-2" points="1511.25 2206.15 1511.25 2043.26 1136.65 2043.26 1136.65 2206.15 1000.23 2206.15 1000.23 2260.59 1647.67 2260.59 1647.67 2206.15 1511.25 2206.15"/><path class="cls-2" d="M1360.5,22.28c-21,2.73-42,2.31-63.06.08C1315.28-7.42,1343.53-7.46,1360.5,22.28Z"/><path class="cls-3" d="M1457,2205.17h-41.14l-76.13-77.3h41.41Z"/><path class="cls-3" d="M1511.25,2205.17v-38.33l-38.23-39H1431.6l76.14,77.3Z"/><path class="cls-3" d="M1136.66,2165.33v39.44h38.7Z"/><path class="cls-3" d="M1320.76,2205.05,1244.2,2128h41.92l75.69,77.07Z"/><path class="cls-3" d="M1147.82,2127.45h41.26l77.31,77.34h-42.24C1198.56,2178.86,1173.64,2153.6,1147.82,2127.45Z"/><path class="cls-4" d="M1520.64,332.28V502.66a52.91,52.91,0,0,1-52.91,52.91H1186.32a52.69,52.69,0,0,1-36-14.18h0a53,53,0,0,1-8.86-10.75l-12.43-15a120.52,120.52,0,0,1-20-118.76l24.44-65.66,12.14-32.65a52.82,52.82,0,0,1,40.75-19.15h281.41A52.91,52.91,0,0,1,1520.64,332.28Z"/><path class="cls-5" d="M1420.58,305.3h44.9A29.56,29.56,0,0,1,1495,334.85V425a20.36,20.36,0,0,1-20.36,20.36h-54.09a0,0,0,0,1,0,0v-140A0,0,0,0,1,1420.58,305.3Z"/><path class="cls-5" d="M1244.39,445.34h-99.66a15.41,15.41,0,0,1-14.62-20.28L1166,317.21a17.41,17.41,0,0,1,16.52-11.91h61.9Z"/><rect class="cls-5" x="1281.88" y="305.3" width="101.2" height="140.04"/><rect class="cls-6" x="1289.54" y="465.33" width="85.88" height="72.75" rx="13.07"/><rect class="cls-7" x="1293.63" y="468.8" width="77.7" height="65.82" rx="9.74"/><path class="cls-8" d="M1745.81,460.55h252.6a17,17,0,0,1,17,17v12.9a27.85,27.85,0,0,1-27.85,27.85H1781.15A35.34,35.34,0,0,1,1745.81,483V460.55A0,0,0,0,1,1745.81,460.55Z"/><rect class="cls-9" y="2260.59" width="1885.23" height="74.61" rx="25.23"/><rect class="cls-2" x="478.85" y="476.49" width="123.74" height="67.47" rx="20.88"/><rect class="cls-10" x="202.54" y="1738.89" width="676.36" height="522.02"/><polygon class="cls-11" points="1893.71 355.09 1936.17 398.09 1893.17 440.54 1880.43 427.64 1910.53 397.92 1880.81 367.82 1893.71 355.09"/><polygon class="cls-11" points="1868.08 354.92 1825.08 397.38 1867.53 440.38 1880.43 427.64 1850.71 397.54 1880.81 367.82 1868.08 354.92"/><path class="cls-11" d="M369.6,1895.49H343.71L327,1814.3l-17.54,81.19h-26L259,1797.89h21.08l16.41,82.61,17.25-81.2h27.44l16.7,81.48,17.54-82.89h20.08Z"/><path class="cls-11" d="M407.5,1895.49v-97.6H427v97.6Z"/><path class="cls-11" d="M492.09,1813.16v82.33H472.57v-82.33h-33.1v-15.27h85.71v15.27Z"/><path class="cls-11" d="M605.39,1826.6H585.44c-1.13-9.9-6.64-16.12-16.83-16.12-7.78,0-13.72,3.68-13.72,11.6,0,8.2,5.23,12.3,20.79,16,21.5,5,31.12,14.85,31.12,30.55,0,18.39-16.83,28.86-36.07,28.86-23.34,0-38.62-10.32-40.46-30.83h20c2.12,10.75,10.33,16.26,20.23,16.26,8.91,0,16-4.81,16-12.31,0-8.2-5.09-13-19.52-16.4-19.94-4.81-32.53-11.75-32.53-29.71s16.26-28.57,34.94-28.57C592.66,1795.91,603.26,1809.21,605.39,1826.6Z"/><path class="cls-11" d="M622.92,1895.49v-97.6h19.52v97.6Z"/><path class="cls-11" d="M707.51,1813.16v82.33H688v-82.33h-33.1v-15.27h85.72v15.27Z"/><path class="cls-11" d="M822.79,1895.49H752.34v-97.6h69v15.27H771.86v25.75h46v15.42h-46v25.74h50.93Z"/><polygon class="cls-11" points="308.93 2009.26 333.55 2018.51 333.55 2012.29 315 2005.65 333.55 1999.06 333.55 1992.89 308.93 2002.15 308.93 2009.26"/><path class="cls-11" d="M362,1995.25c3.4,0,5.64,1.93,6.48,6.17h5.81c-.68-6.12-5.13-10.36-12.13-10.36-7.27,0-13.44,5.28-13.44,14.74,0,9.89,5.49,14.49,12.76,14.49,6.54,0,11.34-3.3,12.64-9.94h-5.85c-.84,3.77-3.19,5.75-6.48,5.75-3.87,0-7-3.18-7-10.71C354.77,1998.43,358,1995.25,362,1995.25Z"/><path class="cls-11" d="M391.24,1991.06c-9.36,0-14.07,6.48-14.07,14.59s4.71,14.64,14.07,14.64,14.06-6.54,14.06-14.64S400.54,1991.06,391.24,1991.06Zm0,25c-5.08,0-8-4.18-8-10.45s2.93-10.4,8-10.4,7.94,4.12,7.94,10.4S396.25,2016.1,391.24,2016.1Z"/><path class="cls-11" d="M430.17,1994.48a11.1,11.1,0,0,0-2-1.81v0a12.3,12.3,0,0,0-6.43-1.66c-7.16,0-13.43,4.92-13.43,15.06,0,8.15,4.54,14.17,12.49,14.17a12.54,12.54,0,0,0,7.27-2.09,10.8,10.8,0,0,0,2.09-2.14v3.5h5.75v-38.43h-5.75Zm-8.06,21.62c-5,0-7.73-4.44-7.73-10.45,0-6.9,3.45-10.4,8-10.4,3.71,0,7.79,2.5,7.79,9.25V2006C430.17,2013.38,426.45,2016.1,422.11,2016.1Z"/><rect class="cls-11" x="443.32" y="1991.79" width="5.75" height="27.76"/><path class="cls-11" d="M446.19,1982.12a3.32,3.32,0,1,0,0,6.64,3.32,3.32,0,1,0,0-6.64Z"/><path class="cls-11" d="M471.1,1991.06a10.45,10.45,0,0,0-6.92,2.1v0l-.06,0h0v0a12.69,12.69,0,0,0-1.87,1.88v-3.31h-5.76v27.77h5.76v-12.45c0-8.68,3.24-11.81,7.21-11.81s5.6,2.19,5.86,5.33c.1,1.41.1,2.61.1,3.92v15h5.76v-15.63c0-2.26-.06-3.51-.17-4.92C480.46,1994.15,477.05,1991.06,471.1,1991.06Z"/><path class="cls-11" d="M507.93,1994.38a20.29,20.29,0,0,0-1.83-1.59c-1.42-1.1-4.29-1.73-6.59-1.73-7.16,0-13.43,4.81-13.43,15,0,8.16,4.64,14,12.65,14a12,12,0,0,0,7.11-2.08s1.16-1,2.08-1.83c0,.81,0,1.6-.05,2.56-.21,5-3.08,7.68-8.1,7.68-4.29,0-6.85-2-7.21-5l-.06-.47h-5.64l.05.53c.57,6,4.81,9.3,12.81,9.3,8.36,0,13.59-4.23,13.91-12.65,0-1.51,0-3.66,0-5.39v-20.86h-5.75Zm-8.06,21.46c-5,0-7.73-4.33-7.73-10.35,0-6.9,3.45-10.24,8-10.24,3.71,0,7.79,2.5,7.79,9.25v1.2C507.93,2013.13,504.21,2015.84,499.87,2015.84Z"/><polygon class="cls-11" points="558.43 2014.48 552.89 1991.85 545.88 1991.85 540.5 2014.43 534.8 1991.79 528.31 1991.79 537.15 2019.56 543.79 2019.56 549.33 1997.13 554.82 2019.56 561.41 2019.56 570.24 1991.79 564.13 1991.79 558.43 2014.48"/><rect class="cls-11" x="574.05" y="1991.79" width="5.75" height="27.76"/><path class="cls-11" d="M576.92,1982.12a3.32,3.32,0,1,0,0,6.64,3.32,3.32,0,1,0,0-6.64Z"/><path class="cls-11" d="M594,1985.37h-5.7V1992h-3.93v4h3.93v15.06c0,1.56,0,2.77,0,3.71.25,3.66,2.14,5.28,6.48,5.28a30.66,30.66,0,0,0,4.23-.31v-4c-3.76.37-4.81-.21-5-2.93,0-.73,0-1.35,0-2.3V1996h5.44v-4H594Z"/><path class="cls-11" d="M619.36,1991.06a10.51,10.51,0,0,0-6.75,2l0,0a14.11,14.11,0,0,0-2.1,1.79v-14h-5.76v38.69h5.76v-12.45c0-8.68,3.24-11.71,7.22-11.81s5.59,2.19,5.85,5.33c.1,1.41.1,2.61.1,3.92v15h5.76v-15.63c0-2.26-.06-3.51-.17-4.92C628.71,1994.15,625.32,1991.06,619.36,1991.06Zm-8.89,5.28,0,0,0,0Z"/><path class="cls-11" d="M657.72,2015.27l-7.64-23.48h-6.43l11.2,29.07-.43,1c-1.25,3.25-3,4.34-5.65,4.34-.57,0-1.14,0-1.82,0v4.24a14.7,14.7,0,0,0,2.71.15c5,0,8-2.61,10.57-9.2l11.29-29.54H665.3Z"/><path class="cls-11" d="M686.6,1991.06c-9.36,0-14.06,6.48-14.06,14.59s4.7,14.64,14.06,14.64,14.06-6.54,14.06-14.64S695.9,1991.06,686.6,1991.06Zm0,25c-5.07,0-8-4.18-8-10.45s2.93-10.4,8-10.4,7.95,4.12,7.95,10.4S691.62,2016.1,686.6,2016.1Z"/><path class="cls-11" d="M724.28,2004.87c0,8.05-3,11.13-7.06,11.13-3.55,0-5.54-2-6-5a34,34,0,0,1-.21-3.81v-15.38h-5.7v16.52a31.39,31.39,0,0,0,.26,4.92c.63,3.82,4,7.06,9.72,7.06a11,11,0,0,0,7-2,14.91,14.91,0,0,0,1.93-2v3.29H730v-27.77h-5.7Z"/><polygon class="cls-11" points="748.22 1992.89 748.22 1999.11 766.77 2005.7 748.22 2012.34 748.22 2018.51 772.84 2009.26 772.84 2002.15 748.22 1992.89"/><path class="cls-2" d="M800.89,981c7.3-1.46,14.64-2.83,22-4L572.39,761.65a15.65,15.65,0,0,0,13.76-15.53V727.45a15.65,15.65,0,0,0-15.65-15.66H510.14a15.66,15.66,0,0,0-15.65,15.66v18.67a15.66,15.66,0,0,0,15.65,15.66h.3L259.08,977.84a116.29,116.29,0,0,0,16.21,9l261.8-225h8.8Z"/><path class="cls-10" d="M336,953.21H745.43A133.47,133.47,0,0,1,878.9,1086.68V1261a0,0,0,0,1,0,0H202.54a0,0,0,0,1,0,0V1086.68A133.47,133.47,0,0,1,336,953.21Z"/><polygon class="cls-11" points="568.07 1022.51 656.77 1112.36 566.93 1201.06 540.32 1174.1 603.21 1112.01 541.12 1049.12 568.07 1022.51"/><polygon class="cls-11" points="514.51 1022.17 424.67 1110.87 513.37 1200.71 540.32 1174.1 478.23 1111.21 541.12 1049.12 514.51 1022.17"/></g></g></svg>