<svg xmlns="http://www.w3.org/2000/svg" xmlns:xlink="http://www.w3.org/1999/xlink" viewBox="0 0 1007.65 1461.82"><defs><style>.cls-1{fill:#2c8d9c;}.cls-2{clip-path:url(#clip-path);}.cls-3{fill:#2c8993;}.cls-4{fill:#146466;}.cls-5{fill:#a51e1e;}.cls-6{fill:#efefef;}.cls-7{fill:#dbdbdb;}.cls-8{fill:#bcbcbc;}.cls-9{fill:#fff;}.cls-10{fill:#d8161e;}.cls-11{fill:#ffb300;}.cls-12{fill:#ffaf00;}.cls-13{fill:#878787;}.cls-14{fill:#dd9403;}</style><clipPath id="clip-path" transform="translate(11.58 305.04)"><path class="cls-1" d="M479.28,0C225.68,0,20.09,205.59,20.09,459.19S225.68,918.38,479.28,918.38,938.47,712.79,938.47,459.19,732.88,0,479.28,0ZM185.86,501.4c13-21,34-33,55-42C219.86,468.4,198.86,480.4,185.86,501.4Zm105,164c7-6,15,1,22-3C305.86,666.4,297.86,659.4,290.86,665.4Z"/></clipPath></defs><title>Recurso 1</title><g id="Capa_2" data-name="Capa 2"><g id="megafono"><path class="cls-1" d="M479.28,0C225.68,0,20.09,205.59,20.09,459.19S225.68,918.38,479.28,918.38,938.47,712.79,938.47,459.19,732.88,0,479.28,0ZM185.86,501.4c13-21,34-33,55-42C219.86,468.4,198.86,480.4,185.86,501.4Zm105,164c7-6,15,1,22-3C305.86,666.4,297.86,659.4,290.86,665.4Z" transform="translate(11.58 305.04)"/><g class="cls-2"><path class="cls-1" d="M476-1.13l28.48-12.06a2.52,2.52,0,0,0,.89-3.42,2.56,2.56,0,0,0-3.42-.9L473.52-5.45a2.51,2.51,0,0,0-.9,3.42,2.56,2.56,0,0,0,3.42.9Z" transform="translate(11.58 305.04)"/><path class="cls-3" d="M385.12-268.79q-29.76,130.07-59.84,260Q295,121.87,264.46,252.42,234,382.32,203.27,512.14T141.41,771.7q-31.26,130.38-62.84,260.69-3.91,16.13-7.82,32.25c-3.12,12.85-1.71,27,5,38.53,6.07,10.37,18,20.26,29.88,23,25.75,5.87,54.9-7.73,61.5-34.92q31.47-129.66,62.62-259.38Q261.08,701.47,292,571q30.79-129.81,61.27-259.7t60.6-259.85Q444.2-79.16,474.14-209.85q3.72-16.17,7.41-32.35c3-13,1.8-26.85-5-38.53-6.07-10.37-18-20.26-29.88-23-25.46-5.8-55.27,7.65-61.51,34.92Z" transform="translate(11.58 305.04)"/><path class="cls-3" d="M270.09-101.94,215.31,137.3,160.53,376.54,105.48,617,50.7,856.22-4.07,1095.46l-6.85,29.91c-2.91,12.72,3.9,27.66,17.46,30.75,12.73,2.9,27.63-3.83,30.75-17.46L92.07,899.42l54.78-239.24L201.9,419.74,256.68,180.5,311.45-58.75l6.85-29.9c2.91-12.72-3.9-27.67-17.46-30.75-12.73-2.9-27.63,3.82-30.75,17.46Z" transform="translate(11.58 305.04)"/></g><path class="cls-4" d="M757.67,515c-.83-6.74-1.3-13.54-2.58-20.18-2.68-14-5.25-28.05-8.82-41.84a518.09,518.09,0,0,0-39.72-105.53c-22.3-43.82-49.74-83.81-87.16-116.27-18.66-16.18-39.27-29.13-63-36.61-19.25-6.06-38.71-6.84-58.06-1.16-26.48,7.77-44.87,25.63-58.62,48.86-9.75,16.46-16.09,34.29-19.92,52.9a66.72,66.72,0,0,1-10.41,24.28c-13.76,20.5-28.29,40.38-45,58.55-22.16,24-47.5,44.32-74.75,62.25-12.68,8.33-25.67,16.19-38.52,24.25a8.25,8.25,0,0,1-5.4,1.63c-18.83,8.25-37.44,19.08-50.08,36.81A11.93,11.93,0,0,1,199.4,501c23.76-7.27,46.71-16.64,69.66-26.11a398.29,398.29,0,0,0,125.54-82.4A18.3,18.3,0,0,0,400,383c3-13.06,6.12-26.07,9.37-39,.53-2.08,2-3.94,3-5.9a48.58,48.58,0,0,1,.44,6c-1.51,32.41,1.21,64.47,6.94,96.41a526.89,526.89,0,0,0,22.45,83.64c2.75,7.73,5.89,15.33,8.83,23a12.13,12.13,0,0,1,.42,2,9,9,0,0,1-2.08-1c-7.28-6.29-14.39-12.81-21.86-18.87-3.14-2.55-7-4.24-10.63-6.15-5.87-3.1-12-3.1-18.21-1.17C371.88,530.08,345,538,318.38,546.73c-18.24,6-36.25,12.82-54,20.08a357,357,0,0,0-34.55,16.9c-5.09,2.75-9.52,6.86-13.93,10.73-3.69,3.23-4.27,7.46-2.88,12.25a86.27,86.27,0,0,0,28.61,43.68c7.39,6.08,15.78,11,23.76,16.3,2.56,1.72,5.15,1.5,8.11.37,28.43-10.89,57.74-18.42,87.75-23.6A423.36,423.36,0,0,1,477,639.09c7.63.78,15.2,2.07,22.82,3a8.35,8.35,0,0,1,6.15,3.71c2.77,3.94,5.84,7.67,8.75,11.51a10.8,10.8,0,0,1,.92,1.83,6.22,6.22,0,0,1-2.29.57c-5.65-.85-11.28-1.82-16.92-2.71a503.12,503.12,0,0,0-92.29-6.3c-12.48.34-24.93,1.65-37.4,2.52-21.81,2.73-43.09,7.27-63.41,15.48,4.81-.57,9.83,1.73,14.49.28l.73-.26a8.89,8.89,0,0,0,1.17-.56,8.89,8.89,0,0,1-1.17.56,9,9,0,0,1,1.51-.36c14.86-2.12,29.76-3.93,44.65-5.84a215.5,215.5,0,0,1,67.72,1.55c9.12,1.72,18.2,3.7,27.37,5.13,26.7,4.15,52.75,10.89,78.47,19a36.15,36.15,0,0,1,13.67,8,193.28,193.28,0,0,0,47.84,32.19c16.92,7.91,34.6,12.64,53.36,11.78,28.2-1.29,51-13.55,69-35.11,14.22-17,23-36.86,29.08-58C763.62,603.62,763.35,559.37,757.67,515ZM362.6,558a25,25,0,0,1-8.88,4.63c-12.32,2.91-24.82,5-37.11,8-15.39,3.78-30.67,8-45.92,12.36-5.79,1.64-11.37,4-17.07,6a6.12,6.12,0,0,1-2,0,7.3,7.3,0,0,1,1.37-1.45,56.13,56.13,0,0,1,7-3.84,903.39,903.39,0,0,1,85.18-30.14c2.05-.6,4.15-1,7.38-1.77a64.73,64.73,0,0,1,8.92,1.15C364.54,553.69,365.11,556.08,362.6,558Zm368,60.32c-4,22.14-10.5,43.39-23.21,62.27-9.64,14.33-22.08,25.16-38.93,30.3-16.64,5.06-32.87,3.1-48.81-2.84-17.28-6.44-32.42-16.45-46.4-28.33-20.15-17.1-37-37.08-52.35-58.52C507.23,602,496.59,581.24,485.8,560.5c-9.57-18.37-18.82-37-24.92-56.81-4.86-15.83-8.48-32.07-12-48.26-2.65-12.2-4.28-24.61-6.81-39.55-.8-12.89-2-28.37-2.66-43.87A257.93,257.93,0,0,1,448.75,289c5.47-19.06,13.44-36.91,27.49-51.45q25.61-26.49,61.91-20c22.86,4.09,41.93,15.78,59.54,30.17,26.42,21.58,47.44,47.87,65.42,76.66a448.91,448.91,0,0,1,48.38,105.31c5.42,17.51,9.53,35.43,14.27,53.15,6.11,22.89,7.57,46.36,8.8,69.85A287.22,287.22,0,0,1,730.61,618.27Z" transform="translate(11.58 305.04)"/><path class="cls-4" d="M304.67,663.52c-1.81.73-5,6.72-6.76,7.51l-.21.17.21-.17-3.39,1.53a24.37,24.37,0,0,0-2.43,1.11c-16.57,10.2-32,5.44-46.69-4.07-15.74-10.21-27.21-24.54-36.49-40.68a171.27,171.27,0,0,1-22.23-67.66c-1.92-17.91-1-35.63,5.16-52.85a11.31,11.31,0,0,1,3.73-5.5c12.64-17.73,31.25-28.56,50.08-36.81a7.19,7.19,0,0,1-1.64-.39c-12.29-4.63-24.73-3.51-36.82.33-17.86,5.67-35.59,11.78-53.21,18.15-25.85,9.35-51.58,19-77.28,28.78-3.18,1.2-5.3.93-7.59-1.4-2.63-2.67-5.44-5.17-8.26-7.64-4.42-3.86-8.77-4.21-13.78-1.48-2.27,1.23-3,2.81-2.2,5.27,1.25,3.91,2.11,7.95,3.59,11.77,1.19,3.09.37,4.53-2.63,5.5-8.61,2.79-15.4,8.18-20.78,15.35C15.86,552.57,10,566.17,8.19,581.47,4.61,612.22,8,642,20.12,670.67,31,696.51,46.66,718.77,70,735c12.14,8.44,25.39,13.8,40.57,12.74,3.67-.26,8-1.83,10.82-.43s4.39,5.85,6.68,8.8c2.71,3.49,5.49,6.94,8.5,10.17,4.1,4.41,9,8.16,12.56,13,7.74,10.62,12.54,22.87,16.57,35.25a517.79,517.79,0,0,0,36.86,86c7.16,13.23,15,25.93,25.73,36.71,13.89,14,29.68,21,49.88,15.65,11.93-3.18,23.73-6.25,34.85-11.86,10.33-5.22,19.72-11.42,27.27-20.27,4.63-5.43,6.13-12.14,2-17.77-5.25-7.1-10.91-14.51-18-19.53-16.41-11.63-22.93-27.68-24-46.68-.2-3.49-1-5.46-3.89-7.32a35.5,35.5,0,0,1-13.64-16.12c-3.9-9.14-6.31-18.59-5.1-28.66a3.8,3.8,0,0,0-.05-2.1c-2.86-4.95-.53-8.38,3.17-11.52,3.43-2.91,4.09-6.34,1.7-10.25-.38-.6-.66-1.26-1-1.88-4.56-8.07-8.83-16.3-13.78-24.11-2.64-4.18-3.71-9.87-9.52-11.64-.56-.17-1-1.92-.9-2.85.26-1.91.47-4.13,1.57-5.55,1.84-2.38,1.63-4.51.65-7-.6-1.48-.87-3.11-1.58-4.54-1.44-3-.16-4,2.6-4.89,6.65-2,13.15-4.61,19.84-6.49,11.25-3.14,21.36-8,29.14-17a14.72,14.72,0,0,1,3.56-3.23A38,38,0,0,1,317.8,669C327.17,662.79,337.22,647.77,304.67,663.52ZM178.2,509.06c-.56,2.61-1.57,5.15-1.86,7.79-.5,4.48-2.77,6.84-7.1,8.11-9.06,2.67-18,5.7-27,8.67-20,6.6-39.93,13.28-59.91,19.87-9.14,3-18.31,5.93-27.47,8.87-1,.32-2.07.53-3.19.82a21.82,21.82,0,0,1-3.13,0c-3.33-.48-4.49-2.26-2.93-5.19a23.77,23.77,0,0,1,4.83-6.3c7.21-6.61,15.66-10.93,25-13.85,16.51-5.13,32.89-10.72,49.32-16.13q24.9-8.19,49.79-16.38a31.05,31.05,0,0,1,4.09-.77A42.11,42.11,0,0,1,178.2,509.06Z" transform="translate(11.58 305.04)"/><path class="cls-4" d="M450.9,402.63a309.1,309.1,0,0,1,2.71-93.28c3.73-20.33,10.24-39.62,23-56.48,16.13-21.29,42-25.29,63.48-20.57,18.79,4.13,34,14.37,47.48,27.56a11.42,11.42,0,0,1,3.74,10.41c-2.83,26.38-9.18,51.64-22.74,74.71a103.73,103.73,0,0,1-21,25.48,13.44,13.44,0,0,1-3,1.53c.44-.91.84-1.85,1.33-2.73,5.19-9.34,10.73-18.51,15.52-28.05,7-13.9,9.74-29,11.65-44.31.35-2.83.7-5.67,1-8.5,0-.46-.36-.95-.56-1.43-.33.38-.82.71-1,1.15-.44,1.36-.75,2.75-1.1,4.13-5.52,21.57-13.23,42.28-24.87,61.31-17.26,28.21-41.63,48.57-71.09,63.1-5.76,2.84-11.63,5.47-17.43,8.24-2.85,1.36-4.33.6-4.69-2.6C452.57,415.74,451.71,409.18,450.9,402.63Z" transform="translate(11.58 305.04)"/><path class="cls-4" d="M722.76,537.16c2.36,32.7,1.9,66.5-6.69,99.77-4.61,17.84-11.82,34.45-24.2,48.41C680,698.71,665,704.28,647.29,702.86c-18.29-1.46-34.62-8.28-49.71-18.33-24.86-16.57-44.73-38.23-61.9-62.36-8.78-12.33-16.38-25.52-24.33-38.44-2.89-4.7-2.33-4.49,2.51-6.42,9.85-3.94,17-1.53,25.27,5.36a417.58,417.58,0,0,0,100.24,62.25c11.6,5.05,23.72,8.93,35.57,13.41a12,12,0,0,0,9.82-.64c11.71-5.52,18.64-15.32,23.59-26.69,8.33-19.13,11.09-39.51,11.91-60.09.62-15.31,0-30.67-.06-46a7.36,7.36,0,0,1,.42-1.66,6.56,6.56,0,0,1,.58,1.45C721.69,528.41,722.14,532.13,722.76,537.16ZM626.54,655.69a18.65,18.65,0,0,0-2.81-3.06c-2.81-1.89-5.82-3.47-8.62-5.38q-30.08-20.44-60.1-41c-.71-.48-1.51-.84-2.27-1.26a10,10,0,0,0,1.51,2.36c11.6,10,23,20.26,34.94,29.87,8.88,7.15,18.25,13.76,29,18.09a29.43,29.43,0,0,0,5.59,1.75C624.44,657.21,625.33,656.33,626.54,655.69Z" transform="translate(11.58 305.04)"/><path class="cls-4" d="M524.15,464.42c3,20.94,10.22,40.23,24.65,56,10.61,11.59,24.14,16.08,39.84,12.21a20.37,20.37,0,0,0,11.6-8.11c7.47-10,10.28-21.46,10.86-33.62.18-3.91-.22-7.84-.33-11.76a10.32,10.32,0,0,1,.16-1.56,4.91,4.91,0,0,1,.61,1.21c2.67,15.61,2.84,31-4.95,45.41-6.35,11.74-16.67,19.21-28.88,23.48-19.86,7-40,13-60.07,19.42-3.39,1.08-6.93,1.73-10.32,2.83-2.35.75-3.63.05-4.73-2-12.74-24.38-25.24-48.87-33.71-75.16-1.41-4.37-1.32-4.57,3.26-5.91q17.49-5.07,35-9.95c6.6-1.85,9.11-5.47,7.89-11.68-1.18-5.94-5.56-9.16-11.9-7.56-7.58,1.92-15,4.67-22.39,7.22-4.38,1.51-8.67,3.29-13,5-2.31.91-4.59,2.55-5.89-1.37s1.73-4.09,3.92-4.88c9.74-3.52,19.57-6.78,29.23-10.46,4.92-1.88,10.63-2.81,13.67-7.81a39.08,39.08,0,0,0,4.61-10.11c1.84-7.08-.88-9.65-7.83-7.56-9.23,2.77-18.37,5.84-27.49,8.93-5.75,1.95-11.38,4.23-17.09,6.29-3.81,1.37-4.29,1.06-5.09-2.72,0-.17-.05-.35-.08-.53-1.37-7.29-1.48-7.59,5.45-10.12,17.92-6.54,35.79-13.32,54-19,13.11-4.08,26.73-6.61,40.66-3.9,1.58.3,3.17.56,4.71,1a11,11,0,0,1,2.2,1.2,12.46,12.46,0,0,1-2.56.28c-15.73-1.49-26.24,7.83-32.16,20.2C522.65,440.51,522.5,452.37,524.15,464.42Z" transform="translate(11.58 305.04)"/><path class="cls-4" d="M600.48,485.29c-.43,4.7-.64,12.21-2,19.52-.71,3.84-3,7.68-5.37,10.87-4.25,5.63-11.43,7-18.42,4.18-8.14-3.22-14-9.29-18.78-16.22-11.44-16.65-17.35-35.16-16.09-55.46.34-5.55,2.17-11.18,4.26-16.4,3-7.41,10.92-10.59,18.63-8.53,7.46,2,12.81,6.89,17.55,12.55C591.59,449.32,597.22,465.31,600.48,485.29Z" transform="translate(11.58 305.04)"/><path class="cls-4" d="M679.44,642.67c-4.84-.87-9.31-1.31-13.56-2.52-23.85-6.83-45.94-17.63-67.34-30a1.56,1.56,0,0,1-.45-.28c-.82-1-1.62-2.08-2.42-3.12,1.46,0,3.05-.4,4.36,0a67.36,67.36,0,0,1,7.35,3.22,328.48,328.48,0,0,0,61.5,21.7,62.45,62.45,0,0,1,11.52,4.17c1.33.63,2,2.63,3,4Z" transform="translate(11.58 305.04)"/><path class="cls-4" d="M575.62,363.78l-.79-.35a11.57,11.57,0,0,1,.65-1.43c3.06-5,6.46-9.85,9.15-15.06,7.19-13.9,14.08-28,21.09-42a33,33,0,0,1,2.26-4.24,23,23,0,0,1,2.8-2.87,18.36,18.36,0,0,1,.25,3.82,24.49,24.49,0,0,1-1.28,4.63,172.29,172.29,0,0,1-33,56.31C576.35,363,576,363.4,575.62,363.78Z" transform="translate(11.58 305.04)"/><path class="cls-4" d="M651.75,614.64c-2.27-.36-4.77-.56-7.17-1.14-13.78-3.35-26.66-9.06-39.37-15.16-4-1.93-8-3.94-11.92-6-.47-.24-.7-.93-1-1.42a4.88,4.88,0,0,1,1.49.07c3.83,1.45,7.6,3.1,11.48,4.41,14.36,4.87,28.75,9.64,43.13,14.44a25,25,0,0,1,4,1.41c.81.44,1.33,1.43,2,2.17Z" transform="translate(11.58 305.04)"/><path class="cls-4" d="M224.15,575.89l-6.67-2.23c1.31-1.78,2.23-4.25,4-5.23,8.08-4.48,16.19-9,24.69-12.63,11.49-4.85,23.31-8.93,35-13.15,10.7-3.85,21.35-7.91,32.25-11.06,16.25-4.7,32.71-8.68,49.09-12.94a14.23,14.23,0,0,1,2.63-.2,13.64,13.64,0,0,1-2.43,1.58c-14,5.35-28,10.59-41.95,16-5.64,2.2-11.08,4.93-16.72,7.14-9.43,3.68-19,6.91-28.39,10.77-10.71,4.41-21.19,9.37-31.83,13.95C237.49,570.64,231,573.12,224.15,575.89Z" transform="translate(11.58 305.04)"/><path class="cls-5" d="M43.86,528.1l-17,38s34-1.25,37,0,41.11-8.7,41.11-8.7l63.94-29.35,8-41.18Z" transform="translate(11.58 305.04)"/><path class="cls-6" d="M185.86,486.92l66-22.6,98-56.65s34-29.27,34-38.27,19-44.38,19-44.38l13,33V412.4l32.3,114.19v30.86l-47.3-25.05-26-4.3-22,4.3-46,13.55-58,24.13-25,13.18-2.5,30.64,19.5,19s23.5,3.94,27,4,36.5-1.47,38.5-2.47,70-12,70-12l60-3.57,31,6.43,35.39,9.64,10.41,20.5-13.3,3.5-45-3-48-4.61h-33l-42,4.11-30,8.5-28.5,13.5h-37.5l-37-15-17-28.5s-10-21.5-10-23-11-33-11-33V546l16-36.43Z" transform="translate(11.58 305.04)"/><polygon class="cls-7" points="376.44 862.48 324.44 880.43 256.36 897.43 252.44 879.96 345.44 846.4 376.44 846.4 376.44 862.48"/><path class="cls-8" d="M518.86,201.5s-115,3.9-93,186.9,133,289,133,289,76,66,112,38,76.58-87.08,68.79-108,1.75-124.94-11.52-145.45-31.29-136-51.57-139.68-50.7-69.07-50.7-69.07l-68-42.71Z" transform="translate(11.58 305.04)"/><path class="cls-9" d="M750.83,509.16c-.83-6.73-1.31-13.53-2.58-20.18-2.68-14-5.25-28.05-8.82-41.83a518.09,518.09,0,0,0-39.72-105.53C677.4,297.79,650,257.81,612.54,225.35c-18.65-16.18-39.26-29.14-63-36.61-19.25-6.06-38.72-6.84-58.06-1.16-26.48,7.77-44.87,25.63-58.63,48.86a170.18,170.18,0,0,0-19.91,52.9,66.74,66.74,0,0,1-10.42,24.28c-13.75,20.5-28.28,40.37-45,58.55-22.16,24.05-47.51,44.32-74.76,62.24-12.67,8.34-25.66,16.2-38.52,24.26a8.21,8.21,0,0,1-5.39,1.62c-18.83,8.26-37.44,19.08-50.08,36.81a11.82,11.82,0,0,1,3.83-1.89c23.75-7.26,46.71-16.64,69.66-26.11a398.26,398.26,0,0,0,125.54-82.39,18.35,18.35,0,0,0,5.42-9.56c3-13,6.12-26.06,9.38-39,.52-2.08,1.94-3.93,2.95-5.89a50.6,50.6,0,0,1,.44,6c-1.51,32.41,1.21,64.47,6.93,96.4a527,527,0,0,0,22.46,83.65c2.75,7.73,5.89,15.32,8.83,23a12.77,12.77,0,0,1,.42,2,9.44,9.44,0,0,1-2.08-1c-7.29-6.3-14.39-12.82-21.86-18.88-3.15-2.54-7-4.24-10.63-6.15-5.87-3.1-12-3.09-18.21-1.16-26.77,8.28-53.67,16.16-80.27,24.93-18.24,6-36.25,12.81-54,20.08A358.09,358.09,0,0,0,223,577.9c-5.09,2.76-9.52,6.87-13.93,10.73-3.69,3.24-4.27,7.46-2.89,12.26a86.39,86.39,0,0,0,28.61,43.68c7.4,6.07,15.78,10.95,23.76,16.29,2.57,1.72,5.16,1.51,8.11.37a466,466,0,0,1,87.76-23.59,423.36,423.36,0,0,1,115.76-4.36c7.63.78,15.2,2.08,22.81,3.05A8.28,8.28,0,0,1,499.1,640c2.78,3.93,5.85,7.66,8.76,11.51a11.19,11.19,0,0,1,.92,1.83,6.45,6.45,0,0,1-2.3.56c-5.64-.84-11.27-1.82-16.92-2.71a503,503,0,0,0-92.28-6.29c-12.48.33-24.94,1.65-37.4,2.52-21.82,2.73-43.1,7.26-63.41,15.48,4.81-.57,9.82,1.73,14.49.28.24-.1.48-.18.72-.26a9.73,9.73,0,0,0,1.18-.56,9.73,9.73,0,0,1-1.18.56,9.1,9.1,0,0,1,1.52-.37c14.85-2.12,29.76-3.92,44.64-5.83a215.25,215.25,0,0,1,67.73,1.54c9.12,1.72,18.2,3.7,27.37,5.13,26.7,4.15,52.75,10.89,78.47,19.05a36.41,36.41,0,0,1,13.67,8,193,193,0,0,0,47.83,32.19c16.92,7.91,34.61,12.64,53.37,11.78,28.2-1.29,51-13.55,69-35.1,14.21-17.05,23.05-36.86,29.08-58C756.78,597.81,756.51,553.57,750.83,509.16Zm-395.07,43a25.45,25.45,0,0,1-8.88,4.63c-12.32,2.91-24.83,5-37.11,8-15.39,3.79-30.67,8.05-45.92,12.37-5.8,1.64-11.38,4-17.08,6a6.11,6.11,0,0,1-2,0,7.35,7.35,0,0,1,1.38-1.45,56.21,56.21,0,0,1,7-3.85c27.94-11.31,56.23-21.66,85.18-30.14,2-.6,4.15-1,7.38-1.77a63.1,63.1,0,0,1,8.91,1.16C357.7,547.88,358.27,550.27,355.76,552.15Zm368,60.31c-4,22.15-10.5,43.39-23.2,62.28-9.64,14.33-22.08,25.16-38.94,30.29-16.63,5.06-32.86,3.1-48.81-2.84-17.27-6.43-32.41-16.45-46.4-28.32-20.14-17.1-37-37.09-52.34-58.52-13.68-19.11-24.32-39.92-35.12-60.65-9.57-18.38-18.81-37-24.91-56.82-4.86-15.82-8.48-32.06-12-48.26-2.66-12.19-4.29-24.61-6.82-39.54-.79-12.9-2-28.38-2.65-43.88a257.62,257.62,0,0,1,9.34-83.05c5.47-19.07,13.44-36.92,27.49-51.45q25.61-26.49,61.91-20c22.85,4.09,41.92,15.79,59.53,30.17,26.43,21.59,47.45,47.88,65.43,76.67a448.91,448.91,0,0,1,48.38,105.31c5.41,17.51,9.53,35.42,14.26,53.15,6.12,22.88,7.58,46.36,8.81,69.85A286.57,286.57,0,0,1,723.76,612.46Z" transform="translate(11.58 305.04)"/><path class="cls-10" d="M296.47,662.94c-1.81.73-3.61,1.5-5.4,2.29l-.21.17.21-.17c-1.14.5-2.27,1-3.39,1.52a25.7,25.7,0,0,0-2.44,1.12c-16.57,10.19-32,5.44-46.68-4.07-15.74-10.22-27.21-24.54-36.49-40.69a171.17,171.17,0,0,1-22.23-67.66c-1.92-17.9-1-35.62,5.16-52.84a11.39,11.39,0,0,1,3.73-5.51c12.64-17.73,31.25-28.55,50.08-36.81a6.59,6.59,0,0,1-1.64-.39c-12.29-4.62-24.73-3.5-36.82.33-17.86,5.67-35.59,11.78-53.21,18.16-25.85,9.35-51.58,19-77.28,28.77-3.18,1.21-5.3.93-7.59-1.4-2.63-2.66-5.44-5.17-8.26-7.63-4.43-3.86-8.77-4.21-13.78-1.49-2.27,1.24-3,2.81-2.2,5.27,1.24,3.91,2.11,8,3.58,11.78,1.19,3.08.38,4.53-2.62,5.5-8.62,2.78-15.4,8.18-20.78,15.34C9,546.76,3.13,560.37,1.35,575.66c-3.59,30.75-.16,60.57,11.92,89.2,10.91,25.84,26.54,48.1,49.86,64.3,12.14,8.43,25.38,13.79,40.57,12.73,3.67-.25,8-1.82,10.81-.43s4.39,5.85,6.69,8.81c2.71,3.48,5.49,6.93,8.49,10.16,4.11,4.42,9.05,8.17,12.56,13C150,784,154.8,796.29,158.83,808.67a516.85,516.85,0,0,0,36.86,86c7.15,13.24,15,25.94,25.73,36.72,13.89,14,29.68,21,49.87,15.64,11.93-3.17,23.74-6.24,34.86-11.86,10.33-5.21,19.72-11.42,27.27-20.27,4.63-5.43,6.13-12.14,2-17.77-5.25-7.1-10.91-14.5-18-19.52-16.42-11.63-22.93-27.69-24-46.69-.21-3.48-1-5.46-3.89-7.32a35.41,35.41,0,0,1-13.65-16.12c-3.89-9.13-6.3-18.58-5.09-28.65a3.79,3.79,0,0,0-.06-2.1c-2.86-5-.52-8.39,3.18-11.52,3.43-2.91,4.09-6.34,1.69-10.25-.37-.61-.66-1.27-1-1.89C270,745,265.71,736.76,260.76,729c-2.64-4.17-3.72-9.86-9.52-11.64-.56-.17-1-1.91-.9-2.84.26-1.91.47-4.13,1.57-5.55,1.84-2.39,1.63-4.52.65-7-.6-1.49-.88-3.12-1.58-4.55-1.44-2.95-.16-4,2.6-4.88,6.65-2,13.15-4.62,19.84-6.49,11.24-3.15,21.36-8,29.14-17a14.54,14.54,0,0,1,3.56-3.23,38.57,38.57,0,0,1,4.84-2.56C306.29,664.67,301.28,662.37,296.47,662.94ZM171.35,503.25c-.55,2.61-1.56,5.16-1.85,7.79-.5,4.49-2.78,6.84-7.1,8.11-9.06,2.67-18,5.71-27,8.68-20,6.6-39.93,13.27-59.92,19.87-9.13,3-18.3,5.92-27.47,8.86-1,.33-2.07.54-3.18.82a19.25,19.25,0,0,1-3.13,0c-3.34-.48-4.49-2.25-2.93-5.19a23.68,23.68,0,0,1,4.82-6.3c7.21-6.61,15.67-10.93,25-13.84,16.52-5.14,32.9-10.72,49.33-16.13q24.89-8.19,49.78-16.39a30.88,30.88,0,0,1,4.1-.76A44.67,44.67,0,0,1,171.35,503.25Z" transform="translate(11.58 305.04)"/><path class="cls-11" d="M994,283.29l2.06.46a12.94,12.94,0,0,1-1.9,1.74q-17.52,10.83-35.08,21.59c-12.79,7.81-25.59,15.6-38.48,23.25-2.92,1.74-4.32,3.78-4.26,7.28.1,6.42-.43,12.84-.31,19.26.05,3.25-1.12,4.76-4.17,5.75q-54,17.46-107.89,35.11c-8.82,2.88-17.59,5.89-26.39,8.81a39.3,39.3,0,0,1-4.13,1.11,4.22,4.22,0,0,1-1.41-.24c.27-.43.45-1,.84-1.26,1.17-.82,2.4-1.54,3.63-2.26q50.58-29.59,101.17-59.16c2.35-1.37,3.66-2.94,3.58-5.91-.17-7.13.28-14.28,0-21.4-.17-3.85,1.35-5.44,4.78-6.3,8.66-2.17,17.26-4.54,25.9-6.78q22.27-5.77,44.57-11.49C968.75,289.7,981,286.59,994,283.29Z" transform="translate(11.58 305.04)"/><path class="cls-12" d="M893.93,464.93c3.45-1.29,4.84-.53,5.49,2.24.85,3.65,2.22,7.16,3.17,10.78,1.34,5.16,1.66,5.51,6.69,5.86l55.53,3.94a7.64,7.64,0,0,1,1.6.11,11.45,11.45,0,0,1,1.82.83,7.11,7.11,0,0,1-1.63.91c-11.06,2.84-22.12,5.68-33.2,8.45q-20.52,5.13-41.06,10.18c-1,.26-2.06.58-3.11.81-4.9,1-5.45.74-6.82-4.06q-1.53-5.42-2.8-10.89c-.69-2.95-2.1-4.59-5.43-4.74-14.44-.66-28.86-1.52-43.29-2.28-12.83-.69-25.65-1.34-38.48-2a7,7,0,0,1-1.88-.73,9.42,9.42,0,0,1,2.1-1c10.17-2,20.33-3.94,30.53-5.78C847.05,473.25,871,469,893.93,464.93Z" transform="translate(11.58 305.04)"/><path class="cls-12" d="M871.48,189.89c-1.07,1.22-1.52,1.79-2,2.29q-19.66,19.31-39.34,38.61c-4.58,4.5-9.23,9-13.51,13.73a8.63,8.63,0,0,0-1.77,5.69,136.4,136.4,0,0,0,1.75,14.35c.47,2.88-.52,4.72-2.93,6.22Q783,290,752.48,309.24c-3.31,2.09-6.57,4.28-9.92,6.32a11.3,11.3,0,0,1-2.91.86A11.07,11.07,0,0,1,741,313.8q10.42-11.52,20.94-22.94c8.43-9.21,16.83-18.45,25.35-27.59a8.46,8.46,0,0,0,2.31-7.8c-.82-4.75-1.22-9.57-2.09-14.31-.59-3.19-.07-4.9,3.2-6.71,25-13.83,49.73-28,74.57-42.07,1.39-.8,2.83-1.53,4.28-2.22A8.51,8.51,0,0,1,871.48,189.89Z" transform="translate(11.58 305.04)"/><path class="cls-12" d="M855,603.14c.12-3.38,0-5.73.34-8,.65-3.84-.78-5.71-4.45-7.11-16.15-6.19-32.19-12.68-48.25-19.12a39.36,39.36,0,0,1-4.51-2.54,29.37,29.37,0,0,1,5-.14q32.86,4.57,65.72,9.29c.35.05.69.17,1,.25,6.42,1.45,6.29.13,5.95,7.36-.41,8.67-.35,8.64,8,12.06q16.08,6.59,32.13,13.27a9.89,9.89,0,0,1,1.69,1.15c-.71.3-1.43.9-2.11.85-9.62-.61-19.22-1.29-28.83-2-8.89-.64-17.78-1.36-26.67-2C857.11,606.32,854.4,606.16,855,603.14Z" transform="translate(11.58 305.04)"/><path class="cls-12" d="M692.26,241.92l-.94-.26a9.14,9.14,0,0,1,.58-1.45q5-8.52,10.13-17c2.11-3.51,3.92-7.26,6.44-10.46,3.37-4.26,4.2-8.6,1.71-13.34-2.36-4.49-.91-7.35,2.8-10.4,10.58-8.72,20.87-17.8,31.31-26.7a11.57,11.57,0,0,1,2.63-1.24,10.6,10.6,0,0,1-.89,2.84c-5.88,8.72-11.6,17.55-17.84,26-3.14,4.24-3.93,8.22-1.58,12.84,1.67,3.28,1.1,5.76-1.72,8.38-10.18,9.45-20.13,19.16-30.18,28.76C693.94,240.63,693.07,241.26,692.26,241.92Z" transform="translate(11.58 305.04)"/><path class="cls-13" d="M444.05,396.82a309.1,309.1,0,0,1,2.72-93.28c3.73-20.32,10.24-39.61,23-56.48,16.12-21.29,42-25.28,63.48-20.57,18.79,4.14,34,14.37,47.48,27.57a11.42,11.42,0,0,1,3.73,10.41c-2.83,26.37-9.17,51.63-22.73,74.71a103.92,103.92,0,0,1-21,25.48,13.15,13.15,0,0,1-3,1.53c.44-.92.84-1.85,1.33-2.74,5.19-9.34,10.73-18.51,15.52-28.05,7-13.89,9.74-29,11.65-44.31.35-2.83.7-5.66,1-8.5,0-.45-.36-.95-.56-1.42-.33.38-.82.71-1,1.15-.44,1.35-.75,2.75-1.11,4.13-5.51,21.56-13.22,42.27-24.86,61.3-17.26,28.21-41.63,48.57-71.09,63.11-5.76,2.84-11.63,5.46-17.43,8.23-2.86,1.37-4.33.6-4.7-2.6C445.72,409.93,444.87,403.38,444.05,396.82Z" transform="translate(11.58 305.04)"/><path class="cls-13" d="M715.92,531.35c2.36,32.7,1.9,66.51-6.69,99.77C704.62,649,697.4,665.57,685,679.53c-11.86,13.38-26.85,18.94-44.58,17.53-18.3-1.46-34.62-8.28-49.71-18.34-24.87-16.56-44.73-38.23-61.9-62.35-8.79-12.34-16.39-25.53-24.33-38.45-2.89-4.69-2.33-4.49,2.5-6.42,9.85-3.93,17-1.53,25.28,5.36a417.74,417.74,0,0,0,100.24,62.26c11.6,5,23.71,8.93,35.57,13.41a12,12,0,0,0,9.82-.65c11.71-5.52,18.64-15.31,23.59-26.68,8.33-19.14,11.08-39.52,11.91-60.1.61-15.31,0-30.67-.06-46a6.67,6.67,0,0,1,.42-1.65,5.9,5.9,0,0,1,.57,1.45C714.85,522.61,715.3,526.33,715.92,531.35ZM619.7,649.88a19.55,19.55,0,0,0-2.81-3.06c-2.81-1.88-5.83-3.47-8.63-5.37q-30.06-20.44-60.09-41c-.71-.49-1.51-.84-2.27-1.26a9.82,9.82,0,0,0,1.51,2.36c11.6,10,23,20.26,34.94,29.87,8.87,7.15,18.25,13.75,29,18.08a29.21,29.21,0,0,0,5.59,1.75C617.6,651.41,618.49,650.52,619.7,649.88Z" transform="translate(11.58 305.04)"/><path class="cls-13" d="M517.31,458.62c3,20.94,10.22,40.23,24.64,56,10.62,11.6,24.15,16.09,39.85,12.21a20.34,20.34,0,0,0,11.6-8.1c7.46-10,10.28-21.46,10.85-33.62.19-3.91-.21-7.85-.32-11.77a10.32,10.32,0,0,1,.16-1.55,4.71,4.71,0,0,1,.6,1.21c2.68,15.6,2.85,31-4.94,45.41-6.35,11.74-16.67,19.21-28.88,23.48-19.86,6.94-40,13-60.07,19.41-3.4,1.09-6.93,1.74-10.32,2.83-2.35.76-3.64.06-4.73-2C483,537.69,470.51,513.21,462,486.92c-1.41-4.37-1.32-4.58,3.26-5.91q17.47-5.08,35-10c6.61-1.84,9.12-5.47,7.89-11.68-1.17-5.93-5.55-9.15-11.89-7.55-7.59,1.91-15,4.67-22.39,7.22-4.39,1.5-8.68,3.28-13,5-2.31.91-4.59,2.54-5.9-1.37s1.73-4.1,3.93-4.89c9.73-3.51,19.56-6.77,29.23-10.46,4.92-1.87,10.63-2.8,13.67-7.81a39,39,0,0,0,4.61-10.1c1.83-7.09-.88-9.66-7.83-7.57-9.23,2.77-18.37,5.84-27.49,8.94-5.75,2-11.38,4.23-17.09,6.28-3.81,1.37-4.29,1.07-5.09-2.71,0-.18-.05-.36-.08-.53-1.37-7.3-1.48-7.59,5.45-10.12,17.92-6.54,35.79-13.33,54-19,13.12-4.08,26.73-6.6,40.67-3.9,1.57.31,3.17.56,4.71,1a11,11,0,0,1,2.2,1.19,12.54,12.54,0,0,1-2.56.28c-15.74-1.48-26.24,7.83-32.17,20.2C515.81,434.71,515.66,446.56,517.31,458.62Z" transform="translate(11.58 305.04)"/><path class="cls-13" d="M593.64,479.49c-.44,4.69-.64,12.21-2,19.51-.72,3.85-3,7.68-5.37,10.88-4.25,5.63-11.43,6.94-18.42,4.18-8.14-3.23-14-9.29-18.78-16.22-11.45-16.65-17.35-35.17-16.09-55.47.34-5.54,2.16-11.18,4.26-16.39,3-7.42,10.92-10.59,18.63-8.54,7.46,2,12.81,6.89,17.55,12.55C584.75,443.52,590.37,459.5,593.64,479.49Z" transform="translate(11.58 305.04)"/><path class="cls-13" d="M672.59,636.87c-4.83-.88-9.31-1.31-13.56-2.53-23.84-6.82-45.93-17.63-67.33-30a1.56,1.56,0,0,1-.45-.28c-.82-1-1.62-2.09-2.42-3.13,1.46,0,3-.4,4.36,0a68.22,68.22,0,0,1,7.35,3.22A327.24,327.24,0,0,0,662,625.91a63.22,63.22,0,0,1,11.52,4.18c1.33.62,2,2.63,3,4Z" transform="translate(11.58 305.04)"/><path class="cls-13" d="M568.78,358l-.79-.35a13.09,13.09,0,0,1,.65-1.43c3.06-5,6.46-9.85,9.15-15.05,7.19-13.91,14.07-28,21.09-42a33,33,0,0,1,2.25-4.24,23.76,23.76,0,0,1,2.81-2.87,18.44,18.44,0,0,1,.24,3.83,23.65,23.65,0,0,1-1.27,4.62,172.44,172.44,0,0,1-33,56.32C569.51,357.22,569.13,357.6,568.78,358Z" transform="translate(11.58 305.04)"/><path class="cls-13" d="M644.91,608.83c-2.28-.35-4.77-.55-7.18-1.14-13.77-3.34-26.65-9.05-39.36-15.16-4-1.92-8-3.94-11.93-6-.46-.24-.69-.94-1-1.42a4.83,4.83,0,0,1,1.48.06c3.84,1.45,7.61,3.1,11.49,4.42,14.35,4.87,28.75,9.63,43.13,14.43a26,26,0,0,1,4,1.42c.81.44,1.33,1.42,2,2.16Z" transform="translate(11.58 305.04)"/><path class="cls-9" d="M217.3,570.08l-6.67-2.23c1.31-1.78,2.24-4.25,4-5.22,8.09-4.48,16.2-9,24.7-12.63,11.49-4.85,23.3-8.93,35.05-13.16,10.69-3.85,21.34-7.91,32.25-11.06,16.25-4.69,32.71-8.68,49.08-12.93a14.4,14.4,0,0,1,2.64-.2,13.31,13.31,0,0,1-2.44,1.57c-14,5.36-28,10.6-41.94,16-5.65,2.19-11.08,4.92-16.73,7.13-9.42,3.69-19,6.92-28.38,10.77-10.71,4.41-21.2,9.37-31.84,14C230.64,564.84,224.16,567.32,217.3,570.08Z" transform="translate(11.58 305.04)"/><g id="Capa_6" data-name="Capa 6"><path class="cls-5" d="M8.06,606.74c.76,36,13.76,74.07,39.47,100,1.23,1.24,3.63-.46,2.51-1.93C39.2,690.61,29.39,675.61,22.73,659A161.92,161.92,0,0,1,11.3,606.74c-.1-2.07-3.28-2.1-3.24,0Z" transform="translate(11.58 305.04)"/><path class="cls-5" d="M161.78,565.06c-.41,11,3,21.19,7.34,31.13.45,1,2.11.29,1.8-.76-2.94-10-6.48-19.84-6.19-30.37.06-1.9-2.88-1.9-2.95,0Z" transform="translate(11.58 305.04)"/><path class="cls-5" d="M188.59,634.41a108.84,108.84,0,0,0,26.57,30.68c.53.41,1.29-.28.76-.76a149.56,149.56,0,0,1-26.08-30.65.72.72,0,0,0-1.25.73Z" transform="translate(11.58 305.04)"/><path class="cls-5" d="M241.53,734a86.33,86.33,0,0,0,7.27,12.84.84.84,0,0,0,1.45-.85c-2.24-4.38-4.6-8.71-6.73-13.15-.64-1.34-2.62-.17-2,1.16Z" transform="translate(11.58 305.04)"/><path class="cls-5" d="M256.88,759.5c2.29,3.08,5.36,5.5,9.31,5.69a1.11,1.11,0,0,0,.55-2.05c-2.65-1.34-5.37-2.79-7.19-5.21-1.18-1.56-3.86,0-2.67,1.57Z" transform="translate(11.58 305.04)"/><path class="cls-5" d="M244.47,724.48a13.85,13.85,0,0,1,.94-1.84,9.84,9.84,0,0,0,.8-2,1.07,1.07,0,0,0-1.55-1.19,5.07,5.07,0,0,0-1.83,1.64,15.45,15.45,0,0,0-1.06,2.21c-.62,1.53,2,2.67,2.7,1.14Z" transform="translate(11.58 305.04)"/><path class="cls-14" d="M734.52,175.56c-3.53,3.91-7.34,7.92-10.11,12.43-.46.76.64,1.64,1.26,1,3.55-3.87,6.59-8.24,10-12.21.71-.81-.46-2-1.19-1.19Z" transform="translate(11.58 305.04)"/><path class="cls-14" d="M721.18,197.72c-.57,2.24.23,3.94.84,6.07.94,3.32-.67,5.45-1.8,8.43-.27.73.81,1.1,1.2.51,1.2-1.87,2.54-3.95,2.65-6.23.14-2.9-2.1-5.48-1.4-8.37.23-1-1.25-1.38-1.49-.41Z" transform="translate(11.58 305.04)"/><path class="cls-14" d="M841.75,215c-4.67,4.34-9.33,8.66-13.83,13.18-.55.55.27,1.34.85.85,4.83-4.16,9.49-8.5,14.15-12.85.79-.73-.39-1.91-1.17-1.18Z" transform="translate(11.58 305.04)"/><path class="cls-14" d="M817.75,238c-4.13,3.59-8.18,7.89-8.79,13.62-.3,2.81.62,4.83,1.14,7.53,1.32,6.82-3.63,10.3-8.32,13.87a.62.62,0,0,0,.62,1.08c4.82-2.48,10.17-6.12,10.49-12.1.21-4-2.14-7.33-1.36-11.47.87-4.59,4.13-8.26,7.28-11.47.69-.69-.34-1.68-1.06-1.06Z" transform="translate(11.58 305.04)"/><path class="cls-14" d="M978.43,289.9c-21,14.31-42.35,28.1-63.23,42.56-.71.49-.08,1.63.69,1.17,21.78-13,42.74-27.52,63.46-42.15.95-.67.06-2.24-.92-1.58Z" transform="translate(11.58 305.04)"/><path class="cls-14" d="M912.89,340.65c-2.08,4.66-2,11-1,15.93.16.77,1.32.57,1.34-.18.07-2.59,0-5.19.08-7.78s.58-5.18.42-7.74c0-.4-.65-.68-.85-.23Z" transform="translate(11.58 305.04)"/><path class="cls-14" d="M910.2,360.56c-25.27,5.7-50,14.69-73.83,24.76-.68.29-.19,1.46.51,1.2,24.38-8.82,49.11-16.4,73.69-24.61a.7.7,0,0,0-.37-1.35Z" transform="translate(11.58 305.04)"/><path class="cls-14" d="M849.52,475.23A200.6,200.6,0,0,1,878,469.82q6.56-.74,13.16-1c2.85-.1,5,.12,6.09,3.15.46,1.24.43,2.29,1.1,3.48.32.57,1.4.36,1.31-.35-.3-2.31-.19-5.55-2-7.25-2.87-2.65-9.61-.89-13.07-.63a168.47,168.47,0,0,0-35.42,6.5.77.77,0,0,0,.41,1.49Z" transform="translate(11.58 305.04)"/><path class="cls-14" d="M906.88,486a255.09,255.09,0,0,0,38,2.28.85.85,0,0,0,0-1.69c-12.55-.89-25.19-1.87-37.76-2.25-.92,0-1.18,1.52-.22,1.66Z" transform="translate(11.58 305.04)"/><path class="cls-14" d="M838.84,574.27c11.13.72,22,4.62,33,6.07.88.12.94-1.21.2-1.47a120.25,120.25,0,0,0-17.18-4.2c-5.19-1-10.75-2.41-16-1.92a.76.76,0,0,0,0,1.52Z" transform="translate(11.58 305.04)"/><path class="cls-14" d="M873.58,582.9a34.11,34.11,0,0,0,.08,5.25c.05.43.73.61.83.11a32.31,32.31,0,0,0,.66-5.36c.05-1-1.5-1-1.57,0Z" transform="translate(11.58 305.04)"/><path class="cls-14" d="M875.55,593.71c3.73,3.21,8.87,5.1,13.65,6a.65.65,0,0,0,.35-1.26c-4.61-1.61-8.69-3.89-13-6-.75-.35-1.67.62-1,1.24Z" transform="translate(11.58 305.04)"/></g></g></g></svg>