<svg xmlns="http://www.w3.org/2000/svg" xmlns:xlink="http://www.w3.org/1999/xlink" viewBox="0 0 1582.26 2224.13"><defs><style>.cls-1{fill:#aa52ff;}.cls-2{fill:#0f152d;}.cls-3{fill:#84329b;}.cls-12,.cls-13,.cls-35,.cls-4,.cls-5{fill:none;stroke-miterlimit:10;}.cls-4{stroke:#84329b;stroke-width:10px;}.cls-35,.cls-5{stroke:#090b14;}.cls-12,.cls-13,.cls-35,.cls-5{stroke-width:5px;}.cls-6{fill:#fff;}.cls-7{fill:#a3a3a3;}.cls-8{fill:#152249;}.cls-9{fill:#ffbd39;}.cls-10{fill:#ff3b3b;}.cls-11{fill:#6da4fc;}.cls-12{stroke:#5d2270;}.cls-13{stroke:#eab0ff;}.cls-14{clip-path:url(#clip-path);}.cls-15{fill:#f9a547;}.cls-16{fill:#fff2c1;}.cls-17{clip-path:url(#clip-path-2);}.cls-18,.cls-20{fill:#090b14;}.cls-18{opacity:0.49;}.cls-19{clip-path:url(#clip-path-3);}.cls-20,.cls-33,.cls-35{opacity:0.24;}.cls-21{clip-path:url(#clip-path-4);}.cls-22{clip-path:url(#clip-path-5);}.cls-23{clip-path:url(#clip-path-6);}.cls-24{fill:#e2e2e2;}.cls-25{clip-path:url(#clip-path-7);}.cls-26{clip-path:url(#clip-path-8);}.cls-27{clip-path:url(#clip-path-9);}.cls-28{clip-path:url(#clip-path-10);}.cls-29{fill:#111832;}.cls-30{fill:#7a7a7a;}.cls-31{clip-path:url(#clip-path-11);}.cls-32{clip-path:url(#clip-path-12);}.cls-34{clip-path:url(#clip-path-13);}.cls-36{clip-path:url(#clip-path-14);}</style><clipPath id="clip-path" transform="translate(0 663.59)"><circle class="cls-1" cx="871.7" cy="775.83" r="41.24"/></clipPath><clipPath id="clip-path-2" transform="translate(0 663.59)"><path class="cls-2" d="M201.6,924.89V962a13.1,13.1,0,0,0,13.1,13.1h21.06l-16.06,33.85a10.93,10.93,0,0,0,9.88,15.62H393.06A10.93,10.93,0,0,0,403,1009l-15.63-34h22A13.1,13.1,0,0,0,422.51,962V924.89Z"/></clipPath><clipPath id="clip-path-3" transform="translate(0 663.59)"><path class="cls-6" d="M120.62,695.66A5.83,5.83,0,0,0,110.34,694c-23,31.88-96.76,134.93-98,151.35-1.46,19-25.64,72-2,160.54a5.83,5.83,0,0,0,8.48,3.58l166.13-92.92a5.81,5.81,0,0,0,2.71-6.82Z"/></clipPath><clipPath id="clip-path-4" transform="translate(0 663.59)"><path class="cls-6" d="M502.73,695.66A5.83,5.83,0,0,1,513,694c23,31.88,96.75,134.93,98,151.35,1.46,19,25.64,72,2,160.54a5.82,5.82,0,0,1-8.47,3.58L438.43,916.54a5.8,5.8,0,0,1-2.71-6.82Z"/></clipPath><clipPath id="clip-path-5" transform="translate(0 663.59)"><path class="cls-3" d="M621.59,964.18a307.77,307.77,0,0,1-8.3,42.45,5.82,5.82,0,0,1-8.47,3.58L438.69,917.29a5.82,5.82,0,0,1-2.72-6.82l11.81-37.71"/></clipPath><clipPath id="clip-path-6" transform="translate(0 663.59)"><path class="cls-3" d="M1.76,964.18a307.77,307.77,0,0,0,8.3,42.45,5.82,5.82,0,0,0,8.47,3.58l166.13-92.92a5.82,5.82,0,0,0,2.72-6.82l-11.81-37.71"/></clipPath><clipPath id="clip-path-7" transform="translate(0 663.59)"><path class="cls-6" d="M470.54,318.93C392,132.91,314.47,85.72,311.42,77.4c-8.39,8.18-83.67,57-157.85,241.53C72.69,520.1,113.13,712.51,113.13,712.51s27,170,47,209.9a12.51,12.51,0,0,0,11.16,6.89H452.78a12.48,12.48,0,0,0,11.15-6.89C484,882.53,511,712.51,511,712.51S554.86,518.68,470.54,318.93Z"/></clipPath><clipPath id="clip-path-8" transform="translate(0 663.59)"><path class="cls-3" d="M146.94,884c4.54,17.25,9.1,31.52,13.34,40a12.48,12.48,0,0,0,11.15,6.89H452.88A12.51,12.51,0,0,0,464,923.91c4.17-8.31,8.65-22.27,13.13-39.17"/></clipPath><clipPath id="clip-path-9" transform="translate(0 663.59)"><circle class="cls-7" cx="312.05" cy="397.16" r="99.97"/></clipPath><clipPath id="clip-path-10" transform="translate(0 663.59)"><circle class="cls-3" cx="312.05" cy="397.16" r="90.98"/></clipPath><clipPath id="clip-path-11" transform="translate(0 663.59)"><path class="cls-3" d="M311.56,77.08l-.7-.33c-8.39,7.69-62.84,44.56-123.75,166,60.41,16.32,143.87,24.45,248.2.55C372,122.12,317,85.52,311.56,77.08Z"/></clipPath><clipPath id="clip-path-12" transform="translate(0 663.59)"><line class="cls-4" x1="308.61" y1="83.5" x2="308.61" y2="8.61"/></clipPath><clipPath id="clip-path-13" transform="translate(0 663.59)"><line class="cls-5" x1="310.48" y1="83.5" x2="310.48" y2="8.61"/></clipPath><clipPath id="clip-path-14" transform="translate(0 663.59)"><circle class="cls-3" cx="308.86" cy="8.61" r="8.61"/></clipPath></defs><title>Recurso 2</title><g id="Capa_2" data-name="Capa 2"><g id="cohete"><path class="cls-8" d="M660.79,237.85C407.19,237.85,201.6,443.44,201.6,697s205.59,459.19,459.19,459.19S1120,950.64,1120,697,914.39,237.85,660.79,237.85ZM367.37,739.25c13-21,34-33,55-42C401.37,706.25,380.37,718.25,367.37,739.25Zm105,164c7-6,15,1,22-3C487.37,904.25,479.37,897.25,472.37,903.25Z" transform="translate(0 663.59)"/><circle class="cls-9" cx="691.85" cy="1043.25" r="68.5"/><circle class="cls-10" cx="965.9" cy="1192.75" r="18"/><circle class="cls-11" cx="855.4" cy="1747.75" r="8.5"/><path class="cls-12" d="M909.22,810.67c11.76,3.75,58.14,17.08,42.22-11.38-18.17-32.49-104.28-81.52-104.28-81.52s-94.9-41.15-48.37,16q3.51,4.31,7.11,8.33" transform="translate(0 663.59)"/><path class="cls-13" d="M836.28,744.5s-100.67,23.79-29.17,41.79S939,782.71,939,782.71s63.66-20.08,29.66-35.25S836.28,744.5,836.28,744.5Z" transform="translate(0 663.59)"/><circle class="cls-1" cx="871.7" cy="1439.42" r="41.24"/><g class="cls-14"><path class="cls-3" d="M817.37,190.42c11,9.3,24.31,15.45,37,22.09l41.14,21.55,82.27,43.11,46.44,24.34c2.85,1.49,5.38-2.82,2.53-4.32l-82.28-43.11-81.83-42.87c-7.43-3.9-14.91-7.73-22.29-11.72-6.8-3.67-13.51-7.61-19.43-12.6a2.55,2.55,0,0,0-3.54,0,2.52,2.52,0,0,0,0,3.53Z" transform="translate(0 663.59)"/><path class="cls-3" d="M794.19,731.57a399.33,399.33,0,0,0,132.95,9.1q18.61-1.86,37-5.46c1.58-.31.91-2.72-.66-2.41a397.56,397.56,0,0,1-132,3.38q-18.48-2.64-36.63-7c-1.57-.38-2.23,2-.67,2.41Z" transform="translate(0 663.59)"/><path class="cls-3" d="M780.84,733.72a391,391,0,0,0,44,12.7,399.37,399.37,0,0,0,136.82,6.77,393.5,393.5,0,0,0,45.18-8.29c1.84-.45,3.69-.92,5.52-1.4a1.25,1.25,0,0,0-.66-2.41,392.08,392.08,0,0,1-90.29,12.52,397.15,397.15,0,0,1-90.78-8.48,391.37,391.37,0,0,1-49.15-13.82c-1.52-.54-2.17,1.88-.66,2.41Z" transform="translate(0 663.59)"/><path class="cls-3" d="M764.61,748.4a520,520,0,0,0,89.57,20.82A524.79,524.79,0,0,0,945.89,774q25.86-.93,51.54-4.43c1.58-.22.91-2.63-.67-2.42a517.74,517.74,0,0,1-91.53,4.21,521.2,521.2,0,0,1-90.39-11.82Q789.75,754,765.28,746c-1.54-.5-2.19,1.91-.67,2.42Z" transform="translate(0 663.59)"/><path class="cls-3" d="M761.08,751.78c27.09,13.3,56.82,19.77,86.59,23.58a738.09,738.09,0,0,0,96.18,5.7q27.69-.09,55.3-2.17c1.59-.11,1.61-2.62,0-2.5a777.92,777.92,0,0,1-97.29,1.18c-16-.82-32-2.09-47.85-3.94a387.07,387.07,0,0,1-44.13-7.44,223.88,223.88,0,0,1-47.54-16.57c-1.44-.7-2.71,1.45-1.26,2.16Z" transform="translate(0 663.59)"/><path class="cls-3" d="M763.07,776.75c21,17.65,47.32,26.85,73.76,32.63,14.48,3.16,29.15,5.47,43.83,7.44q23.79,3.2,47.77,4.79,27,1.77,54,1.49a1.25,1.25,0,0,0,0-2.5,708.33,708.33,0,0,1-95.13-5.41c-14.9-1.87-29.79-4.12-44.51-7.1a248.25,248.25,0,0,1-39-10.86c-14.05-5.33-27.47-12.54-39-22.24-1.23-1-3,.73-1.77,1.76Z" transform="translate(0 663.59)"/><path class="cls-3" d="M773.55,771a522.44,522.44,0,0,0,87,26.94,528.52,528.52,0,0,0,89.73,11.51q25.43,1.05,50.88-.37c1.6-.09,1.61-2.59,0-2.5A522.83,522.83,0,0,1,822.2,785.47q-24.39-7.29-48-16.92c-1.48-.61-2.13,1.81-.66,2.41Z" transform="translate(0 663.59)"/><path class="cls-3" d="M799.66,787.35c8.89,5,19,7.06,29,8.57,11.11,1.69,22.26,3,33.45,4.05,22.58,2.11,45.25,3.09,67.93,3.67,12.82.33,25.64.53,38.47.73a1.25,1.25,0,0,0,0-2.5c-22.44-.35-44.89-.69-67.32-1.74s-44.88-2.77-67.14-5.93c-11.31-1.6-23-3.31-33.08-9a1.25,1.25,0,0,0-1.26,2.16Z" transform="translate(0 663.59)"/></g><path class="cls-12" d="M805.9,742.14a241.72,241.72,0,0,0,28.28,26.8" transform="translate(0 663.59)"/><path class="cls-12" d="M834.18,768.94c37.27,30.08,72.41,40.86,72.41,40.86s1,.34,2.63.87" transform="translate(0 663.59)"/><path class="cls-13" d="M821,789.29c53,10,97.76-.55,112.79-4.9" transform="translate(0 663.59)"/><path class="cls-15" d="M314,958.82S60.23,1061.3,314,1359C567.74,1061.3,314,958.82,314,958.82Z" transform="translate(0 663.59)"/><path class="cls-16" d="M314,998.64s-137,55.32,0,216C451,1054,314,998.64,314,998.64Z" transform="translate(0 663.59)"/><path class="cls-2" d="M201.6,924.89V962a13.1,13.1,0,0,0,13.1,13.1h21.06l-16.06,33.85a10.93,10.93,0,0,0,9.88,15.62H393.06A10.93,10.93,0,0,0,403,1009l-15.63-34h22A13.1,13.1,0,0,0,422.51,962V924.89Z" transform="translate(0 663.59)"/><g class="cls-17"><rect class="cls-18" x="309.34" y="954.85" width="1269.28" height="1269.28"/></g><path class="cls-6" d="M120.62,695.66A5.83,5.83,0,0,0,110.34,694c-23,31.88-96.76,134.93-98,151.35-1.46,19-25.64,72-2,160.54a5.83,5.83,0,0,0,8.48,3.58l166.13-92.92a5.81,5.81,0,0,0,2.71-6.82Z" transform="translate(0 663.59)"/><g class="cls-19"><path class="cls-20" d="M446.57,319.48C368,133.46,290.5,86.26,287.44,78c-8.39,8.18-83.67,57-157.85,241.53C48.71,520.65,89.15,713.06,89.15,713.06s27,170,47,209.9a12.48,12.48,0,0,0,11.15,6.89H428.8A12.5,12.5,0,0,0,440,923c20.05-39.88,47-209.9,47-209.9S530.88,519.23,446.57,319.48Z" transform="translate(0 663.59)"/></g><path class="cls-6" d="M502.73,695.66A5.83,5.83,0,0,1,513,694c23,31.88,96.75,134.93,98,151.35,1.46,19,25.64,72,2,160.54a5.82,5.82,0,0,1-8.47,3.58L438.43,916.54a5.8,5.8,0,0,1-2.71-6.82Z" transform="translate(0 663.59)"/><g class="cls-21"><path class="cls-20" d="M686.16,666.47C607.64,480.45,530.1,433.26,527,424.94c-8.39,8.18-83.67,57-157.85,241.53-80.88,201.17-40.44,393.58-40.44,393.58s27,170,47.05,209.91a12.47,12.47,0,0,0,11.15,6.88H668.4a12.5,12.5,0,0,0,11.16-6.88c20-39.89,47-209.91,47-209.91S770.48,866.22,686.16,666.47Z" transform="translate(0 663.59)"/><path class="cls-20" d="M495.65,318.93C417.13,132.91,339.59,85.72,336.53,77.4c-8.39,8.18-83.67,57-157.85,241.53C97.8,520.1,138.24,712.51,138.24,712.51s27,170,47,209.9a12.48,12.48,0,0,0,11.15,6.89H477.89a12.51,12.51,0,0,0,11.16-6.89c20-39.88,47-209.9,47-209.9S580,518.68,495.65,318.93Z" transform="translate(0 663.59)"/></g><path class="cls-3" d="M621.59,964.18a307.77,307.77,0,0,1-8.3,42.45,5.82,5.82,0,0,1-8.47,3.58L438.69,917.29a5.82,5.82,0,0,1-2.72-6.82l11.81-37.71" transform="translate(0 663.59)"/><g class="cls-22"><path class="cls-20" d="M725.85,576.22C647.33,390.2,569.78,343,566.73,334.69c-8.39,8.18-83.67,57-157.85,241.53C328,777.39,368.44,969.8,368.44,969.8s27,170,47.05,209.91a12.47,12.47,0,0,0,11.15,6.88H708.09a12.47,12.47,0,0,0,11.15-6.88c20-39.89,47-209.91,47-209.91S810.17,776,725.85,576.22Z" transform="translate(0 663.59)"/><path class="cls-20" d="M489.72,339.8C411.2,153.78,333.65,106.59,330.6,98.27c-8.39,8.18-83.67,57-157.86,241.53C91.87,541,132.31,733.38,132.31,733.38s27,170,47,209.91a12.49,12.49,0,0,0,11.16,6.88H472a12.48,12.48,0,0,0,11.16-6.88c20.05-39.89,47-209.91,47-209.91S574,539.55,489.72,339.8Z" transform="translate(0 663.59)"/></g><path class="cls-3" d="M1.76,964.18a307.77,307.77,0,0,0,8.3,42.45,5.82,5.82,0,0,0,8.47,3.58l166.13-92.92a5.82,5.82,0,0,0,2.72-6.82l-11.81-37.71" transform="translate(0 663.59)"/><g class="cls-23"><path class="cls-20" d="M451.84,339.44c-78.52-186-156.06-233.21-159.12-241.53-8.39,8.18-83.67,57-157.85,241.53C54,540.61,94.43,733,94.43,733s27,170,47,209.9a12.48,12.48,0,0,0,11.15,6.89H434.08a12.51,12.51,0,0,0,11.16-6.89c20-39.88,47-209.9,47-209.9S536.16,539.19,451.84,339.44Z" transform="translate(0 663.59)"/></g><path class="cls-24" d="M311.67,77.14l-.35-.17a1.55,1.55,0,0,0,.1.43Z" transform="translate(0 663.59)"/><path class="cls-24" d="M312.05,76.13c-.5.17-.74.44-.73.84l.35.17C312.19,76.59,312.33,76.27,312.05,76.13Z" transform="translate(0 663.59)"/><path class="cls-6" d="M470.54,318.93C392,132.91,314.47,85.72,311.42,77.4c-8.39,8.18-83.67,57-157.85,241.53C72.69,520.1,113.13,712.51,113.13,712.51s27,170,47,209.9a12.51,12.51,0,0,0,11.16,6.89H452.78a12.48,12.48,0,0,0,11.15-6.89C484,882.53,511,712.51,511,712.51S554.86,518.68,470.54,318.93Z" transform="translate(0 663.59)"/><g class="cls-25"><rect class="cls-20" x="309.34" y="577.32" width="1269.28" height="1269.28"/></g><path class="cls-3" d="M146.94,884c4.54,17.25,9.1,31.52,13.34,40a12.48,12.48,0,0,0,11.15,6.89H452.88A12.51,12.51,0,0,0,464,923.91c4.17-8.31,8.65-22.27,13.13-39.17" transform="translate(0 663.59)"/><g class="cls-26"><rect class="cls-20" x="307.49" y="907.83" width="1269.28" height="1269.28"/></g><circle class="cls-7" cx="312.05" cy="1060.75" r="99.97"/><g class="cls-27"><rect class="cls-20" x="309.34" y="430.61" width="1269.28" height="1269.28"/></g><circle class="cls-3" cx="312.05" cy="1060.75" r="90.98"/><g class="cls-28"><rect class="cls-20" x="309.34" y="447.08" width="1269.28" height="1269.28"/></g><circle class="cls-29" cx="312.05" cy="1060.75" r="70.69"/><path class="cls-30" d="M311.85,75.15a.87.87,0,0,0-.64,1.27C311.93,75.72,312.16,75.31,311.85,75.15Z" transform="translate(0 663.59)"/><path class="cls-30" d="M311.21,76.42c-.1.11-.22.21-.35.33l.7.33A3.05,3.05,0,0,1,311.21,76.42Z" transform="translate(0 663.59)"/><path class="cls-3" d="M311.56,77.08l-.7-.33c-8.39,7.69-62.84,44.56-123.75,166,60.41,16.32,143.87,24.45,248.2.55C372,122.12,317,85.52,311.56,77.08Z" transform="translate(0 663.59)"/><g class="cls-31"><rect class="cls-20" x="308.62" y="278.27" width="1269.28" height="1269.28"/></g><g class="cls-32"><rect class="cls-20" x="308.61" y="144.65" width="1269.28" height="1269.28"/></g><line class="cls-4" x1="308.61" y1="747.09" x2="308.61" y2="672.21"/><g class="cls-33"><g class="cls-34"><rect class="cls-35" x="310.48" y="144.65" width="1269.28" height="1269.28"/></g><line class="cls-5" x1="310.48" y1="747.09" x2="310.48" y2="672.21"/></g><circle class="cls-3" cx="308.86" cy="672.21" r="8.61"/><g class="cls-36"><rect class="cls-20" x="308.61" width="1269.28" height="1269.28"/></g><g id="una_tinta" data-name="una tinta"><path d="M417.36,790.09a1,1,0,0,0-.44-.86,2.39,2.39,0,0,0-1.32-.29H414v4.2h.8v-1.79h.78l.85,1.79h.9l-.95-1.92a1.18,1.18,0,0,0,.72-.38A1.11,1.11,0,0,0,417.36,790.09Zm-1.06.6a1.65,1.65,0,0,1-.82.15h-.67v-1.39h.65a1.58,1.58,0,0,1,.83.17.63.63,0,0,1,.26.55A.57.57,0,0,1,416.3,790.69Z" transform="translate(0 663.59)"/><path d="M417.79,788.17a3.76,3.76,0,0,0-2.28-.77,3.71,3.71,0,0,0-1.63.36,3.6,3.6,0,0,0-1.28,1,4.07,4.07,0,0,0-.6,1.1,3.78,3.78,0,0,0-.2,1.2,3.7,3.7,0,0,0,1.08,2.6,3.76,3.76,0,0,0,1.21.82,3.61,3.61,0,0,0,2.81,0,3.9,3.9,0,0,0,1.23-.82,3.55,3.55,0,0,0,.81-1.18,3.83,3.83,0,0,0,.27-1.43,3.7,3.7,0,0,0-1.42-2.94Zm.72,4.19a3.53,3.53,0,0,1-.69,1,3.46,3.46,0,0,1-1.08.7,3.37,3.37,0,0,1-1.26.25,3.29,3.29,0,0,1-2.27-1,2.9,2.9,0,0,1-.7-1,3,3,0,0,1-.25-1.22,3.31,3.31,0,0,1,.25-1.24,3.24,3.24,0,0,1,.73-1.07,3.09,3.09,0,0,1,1-.68,3.27,3.27,0,0,1,1.25-.23,3.35,3.35,0,0,1,1.25.24,3.06,3.06,0,0,1,1.75,1.75,3.29,3.29,0,0,1,.24,1.26A3.16,3.16,0,0,1,418.51,792.36Z" transform="translate(0 663.59)"/><polygon points="320.51 1329.92 351.03 1360.83 320.11 1391.35 310.96 1382.08 332.6 1360.71 311.23 1339.08 320.51 1329.92"/><polygon points="302.08 1329.8 271.17 1360.32 301.69 1391.23 310.96 1382.08 289.6 1360.44 311.23 1339.08 302.08 1329.8"/><path d="M252.16,794.82h-8.9l-5.75-27.94-6,27.94h-9l-8.42-33.58h7.26L227,789.66l5.94-27.94h9.44l5.74,28,6-28.52h6.91Z" transform="translate(0 663.59)"/><path d="M265.2,794.82V761.24h6.72v33.58Z" transform="translate(0 663.59)"/><path d="M294.31,766.49v28.33h-6.72V766.49H276.2v-5.25h29.49v5.25Z" transform="translate(0 663.59)"/><path d="M333.29,771.12h-6.86c-.39-3.41-2.29-5.55-5.79-5.55-2.68,0-4.73,1.26-4.73,4s1.8,4.23,7.16,5.5c7.4,1.7,10.71,5.11,10.71,10.51,0,6.33-5.79,9.93-12.41,9.93-8,0-13.29-3.55-13.92-10.61h6.86a6.68,6.68,0,0,0,7,5.6c3.06,0,5.5-1.66,5.5-4.24,0-2.82-1.75-4.48-6.72-5.64-6.86-1.66-11.19-4-11.19-10.22s5.59-9.84,12-9.84C328.91,760.55,332.56,765.13,333.29,771.12Z" transform="translate(0 663.59)"/><path d="M339.32,794.82V761.24H346v33.58Z" transform="translate(0 663.59)"/><path d="M368.43,766.49v28.33h-6.72V766.49H350.32v-5.25h29.49v5.25Z" transform="translate(0 663.59)"/><path d="M408.09,794.82H383.85V761.24H407.6v5.25h-17v8.86h15.82v5.3H390.57v8.86h17.52Z" transform="translate(0 663.59)"/><polygon points="231.29 1497.55 239.76 1500.74 239.76 1498.6 233.38 1496.31 239.76 1494.05 239.76 1491.92 231.29 1495.11 231.29 1497.55"/><path d="M249.54,829.14c1.17,0,1.94.67,2.23,2.12h2a3.89,3.89,0,0,0-4.17-3.56c-2.5,0-4.63,1.82-4.63,5.07s1.89,5,4.39,5a4.05,4.05,0,0,0,4.35-3.42h-2a2.23,2.23,0,0,1-2.23,2c-1.33,0-2.41-1.1-2.41-3.69C247.06,830.24,248.16,829.14,249.54,829.14Z" transform="translate(0 663.59)"/><path d="M259.61,827.7c-3.22,0-4.84,2.23-4.84,5s1.62,5,4.84,5,4.84-2.25,4.84-5S262.81,827.7,259.61,827.7Zm0,8.62c-1.75,0-2.76-1.44-2.76-3.6s1-3.58,2.76-3.58,2.73,1.42,2.73,3.58S261.33,836.32,259.61,836.32Z" transform="translate(0 663.59)"/><path d="M273,828.88a3.72,3.72,0,0,0-.68-.63v0a4.24,4.24,0,0,0-2.21-.57c-2.47,0-4.62,1.69-4.62,5.18,0,2.81,1.56,4.88,4.29,4.88a4.31,4.31,0,0,0,2.5-.72,3.71,3.71,0,0,0,.72-.74v1.2h2V824.28h-2Zm-2.77,7.44c-1.71,0-2.66-1.53-2.66-3.6,0-2.37,1.19-3.58,2.75-3.58,1.28,0,2.68.86,2.68,3.18v.51C273,835.38,271.72,836.32,270.23,836.32Z" transform="translate(0 663.59)"/><rect x="277.53" y="1491.55" width="1.98" height="9.55"/><path d="M278.52,824.63a1.14,1.14,0,1,0,0,2.28,1.14,1.14,0,1,0,0-2.28Z" transform="translate(0 663.59)"/><path d="M287.09,827.7a3.61,3.61,0,0,0-2.39.72h0a5.66,5.66,0,0,0-.64.65V828h-2v9.55h2v-4.28c0-3,1.11-4.06,2.48-4.06a1.8,1.8,0,0,1,2,1.83c0,.49,0,.9,0,1.35v5.16h2v-5.37c0-.78,0-1.21-.06-1.69C290.31,828.76,289.13,827.7,287.09,827.7Z" transform="translate(0 663.59)"/><path d="M299.76,828.84a7.82,7.82,0,0,0-.63-.55,4.29,4.29,0,0,0-2.27-.59c-2.46,0-4.62,1.66-4.62,5.14,0,2.81,1.6,4.83,4.35,4.83A4.14,4.14,0,0,0,299,837s.4-.34.71-.63c0,.28,0,.55,0,.88a2.51,2.51,0,0,1-2.79,2.64c-1.47,0-2.36-.7-2.48-1.72l0-.17h-1.94l0,.18c.19,2,1.65,3.21,4.4,3.21s4.68-1.46,4.79-4.36c0-.52,0-1.26,0-1.85V828h-2ZM297,836.23c-1.71,0-2.67-1.5-2.67-3.56,0-2.38,1.19-3.53,2.76-3.53,1.27,0,2.68.86,2.68,3.18v.42C299.76,835.29,298.48,836.23,297,836.23Z" transform="translate(0 663.59)"/><polygon points="317.13 1499.35 315.23 1491.56 312.82 1491.56 310.96 1499.34 309 1491.55 306.77 1491.55 309.81 1501.1 312.1 1501.1 314 1493.38 315.89 1501.1 318.16 1501.1 321.2 1491.55 319.1 1491.55 317.13 1499.35"/><rect x="322.51" y="1491.55" width="1.98" height="9.55"/><path d="M323.5,824.63a1.14,1.14,0,1,0,0,2.28,1.14,1.14,0,1,0,0-2.28Z" transform="translate(0 663.59)"/><path d="M329.38,825.74h-2V828h-1.35v1.39h1.35v5.18c0,.54,0,.95,0,1.28.09,1.26.74,1.81,2.23,1.81a10.44,10.44,0,0,0,1.46-.1v-1.37c-1.3.12-1.66-.07-1.73-1,0-.25,0-.47,0-.79v-5h1.88V828h-1.88Z" transform="translate(0 663.59)"/><path d="M338.1,827.7a3.62,3.62,0,0,0-2.32.69h0a4.85,4.85,0,0,0-.72.62v-4.81h-2V837.5h2v-4.28c0-3,1.11-4,2.48-4.06a1.79,1.79,0,0,1,2,1.83c0,.49,0,.9,0,1.35v5.16h2v-5.37c0-.78,0-1.21-.06-1.69C341.31,828.76,340.15,827.7,338.1,827.7ZM335,829.52h0v0Z" transform="translate(0 663.59)"/><path d="M351.3,836,348.67,828h-2.22l3.86,10-.15.35a1.92,1.92,0,0,1-1.94,1.49c-.2,0-.4,0-.63,0v1.46a5.21,5.21,0,0,0,.93,0c1.73,0,2.76-.9,3.64-3.16L356,828H353.9Z" transform="translate(0 663.59)"/><path d="M361.23,827.7c-3.22,0-4.84,2.23-4.84,5s1.62,5,4.84,5,4.84-2.25,4.84-5S364.43,827.7,361.23,827.7Zm0,8.62c-1.74,0-2.75-1.44-2.75-3.6s1-3.58,2.75-3.58,2.74,1.42,2.74,3.58S363,836.32,361.23,836.32Z" transform="translate(0 663.59)"/><path d="M374.2,832.45c0,2.77-1.05,3.83-2.43,3.83a1.87,1.87,0,0,1-2-1.73,11.18,11.18,0,0,1-.07-1.31V828h-2v5.69a9.94,9.94,0,0,0,.09,1.69,3.07,3.07,0,0,0,3.34,2.43,3.84,3.84,0,0,0,2.41-.7,5.3,5.3,0,0,0,.67-.69v1.13h2V828h-2Z" transform="translate(0 663.59)"/><polygon points="382.43 1491.92 382.43 1494.06 388.82 1496.33 382.43 1498.62 382.43 1500.74 390.9 1497.55 390.9 1495.11 382.43 1491.92"/></g></g></g></svg>