<svg xmlns="http://www.w3.org/2000/svg" viewBox="0 0 1272 1272"><defs><style>.cls-1{fill:#9d9d9d;}</style></defs><title>Recurso 9</title><g id="Capa_2" data-name="Capa 2"><g id="Capa_1-2" data-name="Capa 1"><path class="cls-1" d="M0,0V1272H1272V0ZM1145,1145H127V127H1145Z"/><path class="cls-1" d="M540,1053H360V740H540v54H426v69H532v54H426v81H540v55Zm250.2-87.16a81,81,0,0,1-30.53,66.85q-30.52,24.43-84.95,24.43A199.4,199.4,0,0,1,586,1038.26V976.57a365.2,365.2,0,0,0,53.67,19.93,158.74,158.74,0,0,0,40.18,5.79,57.12,57.12,0,0,0,33.53-8.36,28.57,28.57,0,0,0,11.68-24.86,27.52,27.52,0,0,0-5.14-16.39,57.7,57.7,0,0,0-15.11-13.82,390.43,390.43,0,0,0-40.61-21.21,192.27,192.27,0,0,1-43.07-25.93,97.09,97.09,0,0,1-22.89-28.92,82.6,82.6,0,0,1-8.58-38.57,80.93,80.93,0,0,1,28.18-65.35q28.17-23.79,77.9-23.78a183.59,183.59,0,0,1,46.6,5.78,320.9,320.9,0,0,1,46.39,16.28L767.3,808.81a313,313,0,0,0-41.46-14.36,133.37,133.37,0,0,0-32.25-4.07,42.68,42.68,0,0,0-28.93,8.78,29,29,0,0,0-10.07,22.93,28.42,28.42,0,0,0,4.07,15.31,44.8,44.8,0,0,0,13,12.65,402.35,402.35,0,0,0,42.1,22q43.92,21,60.21,42.1A82.15,82.15,0,0,1,790.2,965.84ZM823,920.08q0-93,39.33-138.42T980,736.23a213.14,213.14,0,0,1,42,3.18v52.93a171.5,171.5,0,0,0-37.71-4.29,129.5,129.5,0,0,0-55.6,10.28,69.15,69.15,0,0,0-32.25,30.43A139.79,139.79,0,0,0,883.8,886h2.78q21.23-36.43,67.94-36.43,42,0,65.78,26.36t23.78,72.86q0,50.13-28.28,79.38t-78.42,29.26a112.09,112.09,0,0,1-60.53-16.07A104.31,104.31,0,0,1,837,994.43a178.92,178.92,0,0,1-14-74.35Zm113,84.11a39.2,39.2,0,0,0,32.57-14.25,63.67,63.67,0,0,0,11.35-40.6,56,56,0,0,0-10.59-36.11,38.69,38.69,0,0,0-32-13.18,49.16,49.16,0,0,0-34.39,13.07,40.13,40.13,0,0,0-14.25,30.43A68.94,68.94,0,0,0,902,986.62a41,41,0,0,0,34,17.57Z"/></g></g></svg>