<svg xmlns="http://www.w3.org/2000/svg" viewBox="0 0 2302.92 1260"><defs><style>.cls-1{fill:#39509f;}.cls-12,.cls-2,.cls-3,.cls-5,.cls-8{fill:none;stroke-miterlimit:10;}.cls-2,.cls-3,.cls-5{stroke:#fafafa;}.cls-2{stroke-width:8px;}.cls-2,.cls-3{opacity:0.5;}.cls-12,.cls-3,.cls-5,.cls-8{stroke-width:4px;}.cls-4{opacity:0.4;}.cls-6{opacity:0.15;}.cls-7,.cls-9{fill:#fff;}.cls-8{stroke:#fff;}.cls-9{opacity:0.25;}.cls-10{fill:#f8c328;}.cls-11{fill:#e5af26;}.cls-12{stroke:#000;}</style></defs><title>plano</title><g id="Capa_2" data-name="Capa 2"><g id="Capa_4" data-name="Capa 4"><rect class="cls-1" width="2302.92" height="1260"/><rect class="cls-2" x="28.12" y="26.06" width="2246.68" height="1207.88"/><rect class="cls-3" x="45.19" y="41.57" width="2212.54" height="1176.87"/><g class="cls-4"><rect class="cls-5" x="45.19" y="41.57" width="2212.54" height="1176.87"/><line class="cls-5" x1="45.19" y1="1071.32" x2="2257.73" y2="1071.32"/><line class="cls-5" x1="45.19" y1="924.22" x2="2257.73" y2="924.22"/><line class="cls-5" x1="45.19" y1="777.11" x2="2257.73" y2="777.11"/><line class="cls-5" x1="45.19" y1="630" x2="2257.73" y2="630"/><line class="cls-5" x1="45.19" y1="482.89" x2="2257.73" y2="482.89"/><line class="cls-5" x1="45.19" y1="335.78" x2="2257.73" y2="335.78"/><line class="cls-5" x1="45.19" y1="188.68" x2="2257.73" y2="188.68"/><line class="cls-5" x1="2087.54" y1="41.57" x2="2087.54" y2="1218.43"/><line class="cls-5" x1="1917.34" y1="41.57" x2="1917.34" y2="1218.43"/><line class="cls-5" x1="1747.15" y1="41.57" x2="1747.15" y2="1218.43"/><line class="cls-5" x1="1576.95" y1="41.57" x2="1576.95" y2="1218.43"/><line class="cls-5" x1="1406.75" y1="41.57" x2="1406.75" y2="1218.43"/><line class="cls-5" x1="1236.56" y1="41.57" x2="1236.56" y2="1218.43"/><line class="cls-5" x1="1066.36" y1="41.57" x2="1066.36" y2="1218.43"/><line class="cls-5" x1="896.17" y1="41.57" x2="896.17" y2="1218.43"/><line class="cls-5" x1="725.97" y1="41.57" x2="725.97" y2="1218.43"/><line class="cls-5" x1="555.78" y1="41.57" x2="555.78" y2="1218.43"/><line class="cls-5" x1="385.58" y1="41.57" x2="385.58" y2="1218.43"/><line class="cls-5" x1="215.39" y1="41.57" x2="215.39" y2="1218.43"/></g><g class="cls-6"><polyline class="cls-5" points="2257.73 41.57 2257.73 1147.47 45.19 1147.47 45.19 41.57"/><line class="cls-5" x1="45.19" y1="1000.36" x2="2257.73" y2="1000.36"/><line class="cls-5" x1="45.19" y1="853.25" x2="2257.73" y2="853.25"/><line class="cls-5" x1="45.19" y1="706.15" x2="2257.73" y2="706.15"/><line class="cls-5" x1="45.19" y1="559.04" x2="2257.73" y2="559.04"/><line class="cls-5" x1="45.19" y1="411.93" x2="2257.73" y2="411.93"/><line class="cls-5" x1="45.19" y1="264.82" x2="2257.73" y2="264.82"/><line class="cls-5" x1="45.19" y1="117.71" x2="2257.73" y2="117.71"/><line class="cls-5" x1="2087.54" y1="43.47" x2="2087.54" y2="1147.47"/><line class="cls-5" x1="1917.34" y1="43.47" x2="1917.34" y2="1147.47"/><line class="cls-5" x1="1747.15" y1="44.14" x2="1747.15" y2="1147.47"/><line class="cls-5" x1="1576.95" y1="43.47" x2="1576.95" y2="1147.47"/><line class="cls-5" x1="1406.75" y1="43.47" x2="1406.75" y2="1147.47"/><line class="cls-5" x1="1236.56" y1="43.47" x2="1236.56" y2="1147.47"/><line class="cls-5" x1="1066.36" y1="43.8" x2="1066.36" y2="1147.47"/><line class="cls-5" x1="896.17" y1="43.14" x2="896.17" y2="1147.47"/><line class="cls-5" x1="725.97" y1="43.47" x2="725.97" y2="1147.47"/><line class="cls-5" x1="555.78" y1="43.47" x2="555.78" y2="1147.47"/><line class="cls-5" x1="385.58" y1="43.14" x2="385.58" y2="1147.47"/><line class="cls-5" x1="215.39" y1="41.57" x2="215.39" y2="1147.47"/></g><g class="cls-6"><polyline class="cls-5" points="2087.54 41.57 2172.64 41.57 2172.64 1218.43 45.19 1218.43"/><line class="cls-5" x1="1917.34" y1="41.57" x2="2087.54" y2="41.57"/><line class="cls-5" x1="1747.15" y1="41.57" x2="1917.34" y2="41.57"/><line class="cls-5" x1="1576.95" y1="41.57" x2="1747.15" y2="41.57"/><line class="cls-5" x1="1406.75" y1="41.57" x2="1576.95" y2="41.57"/><line class="cls-5" x1="1236.56" y1="41.57" x2="1406.75" y2="41.57"/><line class="cls-5" x1="1066.36" y1="41.57" x2="1236.56" y2="41.57"/><line class="cls-5" x1="896.17" y1="41.57" x2="1066.36" y2="41.57"/><line class="cls-5" x1="725.97" y1="41.57" x2="896.17" y2="41.57"/><line class="cls-5" x1="555.78" y1="41.57" x2="725.97" y2="41.57"/><line class="cls-5" x1="385.58" y1="41.57" x2="555.78" y2="41.57"/><line class="cls-5" x1="215.39" y1="41.57" x2="385.58" y2="41.57"/><line class="cls-5" x1="45.19" y1="41.57" x2="215.39" y2="41.57"/><line class="cls-5" x1="45.19" y1="1071.32" x2="2172.63" y2="1071.32"/><line class="cls-5" x1="45.19" y1="924.22" x2="2172.63" y2="924.22"/><line class="cls-5" x1="45.19" y1="777.11" x2="2172.63" y2="777.11"/><line class="cls-5" x1="2172.63" y1="630" x2="45.19" y2="630"/><line class="cls-5" x1="45.19" y1="482.89" x2="2172.63" y2="482.89"/><line class="cls-5" x1="45.19" y1="335.78" x2="2172.63" y2="335.78"/><line class="cls-5" x1="45.19" y1="188.68" x2="2172.63" y2="188.68"/><line class="cls-5" x1="2002.44" y1="41.57" x2="2002.44" y2="1218.43"/><line class="cls-5" x1="1832.24" y1="41.57" x2="1832.24" y2="1218.43"/><line class="cls-5" x1="1662.05" y1="41.57" x2="1662.05" y2="1218.43"/><line class="cls-5" x1="1491.85" y1="41.57" x2="1491.85" y2="1218.43"/><line class="cls-5" x1="1321.66" y1="41.57" x2="1321.66" y2="1218.43"/><line class="cls-5" x1="1151.46" y1="41.57" x2="1151.46" y2="1218.43"/><line class="cls-5" x1="981.27" y1="41.57" x2="981.27" y2="1218.43"/><line class="cls-5" x1="811.07" y1="41.57" x2="811.07" y2="1218.43"/><line class="cls-5" x1="640.87" y1="41.57" x2="640.87" y2="1218.43"/><line class="cls-5" x1="470.68" y1="41.57" x2="470.68" y2="1218.43"/><line class="cls-5" x1="300.48" y1="41.57" x2="300.48" y2="1218.43"/><line class="cls-5" x1="130.29" y1="41.57" x2="130.29" y2="1218.43"/></g><polygon class="cls-7" points="227.09 79.93 265.04 118.37 226.6 156.32 215.22 144.79 242.12 118.23 215.56 91.32 227.09 79.93"/><polygon class="cls-7" points="204.17 79.79 165.73 117.74 203.68 156.18 215.22 144.79 188.65 117.88 215.56 91.32 204.17 79.79"/><path class="cls-7" d="M142.1,239.72H131L123.88,205l-7.5,34.74H105.24L94.77,198h9l7,35.34,7.38-34.74h11.74l7.15,34.86,7.5-35.46h8.59Z"/><path class="cls-7" d="M158.32,239.72V198h8.35v41.76Z"/><path class="cls-7" d="M194.51,204.49v35.23h-8.35V204.49H172V198h36.68v6.53Z"/><path class="cls-7" d="M243,210.24h-8.53c-.48-4.23-2.84-6.9-7.2-6.9-3.33,0-5.87,1.58-5.87,5s2.24,5.26,8.9,6.84c9.19,2.11,13.31,6.35,13.31,13.07,0,7.87-7.2,12.34-15.43,12.34-10,0-16.53-4.41-17.31-13.19h8.53c.91,4.6,4.42,7,8.66,7,3.81,0,6.84-2.06,6.84-5.27,0-3.51-2.19-5.56-8.36-7C218,220,212.6,217,212.6,209.33s7-12.22,15-12.22C237.54,197.11,242.08,202.8,243,210.24Z"/><path class="cls-7" d="M250.49,239.72V198h8.35v41.76Z"/><path class="cls-7" d="M286.68,204.49v35.23h-8.35V204.49H264.17V198h36.67v6.53Z"/><path class="cls-7" d="M336,239.72H305.86V198H335.4v6.53H314.21v11h19.67v6.59H314.21v11H336Z"/><polygon class="cls-7" points="116.14 288.39 126.68 292.35 126.68 289.69 118.74 286.85 126.68 284.03 126.68 281.39 116.14 285.35 116.14 288.39"/><path class="cls-7" d="M138.84,282.4c1.45,0,2.41.83,2.77,2.64h2.49a4.84,4.84,0,0,0-5.19-4.43c-3.11,0-5.75,2.26-5.75,6.31,0,4.22,2.35,6.19,5.46,6.19,2.79,0,4.85-1.41,5.41-4.25h-2.51a2.76,2.76,0,0,1-2.77,2.46c-1.66,0-3-1.36-3-4.58C135.75,283.76,137.12,282.4,138.84,282.4Z"/><path class="cls-7" d="M151.36,280.61c-4,0-6,2.77-6,6.24s2,6.26,6,6.26,6-2.79,6-6.26S155.34,280.61,151.36,280.61Zm0,10.71c-2.17,0-3.43-1.79-3.43-4.47s1.26-4.45,3.43-4.45,3.4,1.76,3.4,4.45S153.5,291.32,151.36,291.32Z"/><path class="cls-7" d="M168,282.07a4.58,4.58,0,0,0-.86-.77v0a5.25,5.25,0,0,0-2.75-.71c-3.06,0-5.74,2.1-5.74,6.44,0,3.49,1.94,6.06,5.34,6.06a5.39,5.39,0,0,0,3.11-.89,4.6,4.6,0,0,0,.9-.92v1.5h2.46V276.36H168Zm-3.45,9.25c-2.12,0-3.31-1.9-3.31-4.47,0-3,1.48-4.45,3.42-4.45,1.59,0,3.34,1.07,3.34,4V287C168,290.16,166.43,291.32,164.57,291.32Z"/><rect class="cls-7" x="173.64" y="280.92" width="2.46" height="11.88"/><path class="cls-7" d="M174.87,276.78a1.42,1.42,0,1,0,0,2.84,1.42,1.42,0,1,0,0-2.84Z"/><path class="cls-7" d="M185.53,280.61a4.44,4.44,0,0,0-3,.9h0l0,0h0a6.62,6.62,0,0,0-.8.8v-1.41h-2.46V292.8h2.46v-5.32c0-3.72,1.39-5.06,3.09-5.06a2.24,2.24,0,0,1,2.5,2.28c.05.61.05,1.12.05,1.68v6.42h2.46v-6.69c0-1,0-1.5-.07-2.1C189.53,281.93,188.08,280.61,185.53,280.61Z"/><path class="cls-7" d="M201.29,282a7.88,7.88,0,0,0-.79-.68,5.2,5.2,0,0,0-2.82-.74c-3.06,0-5.74,2.06-5.74,6.4,0,3.48,2,6,5.41,6a5.17,5.17,0,0,0,3-.89s.5-.42.89-.78c0,.34,0,.68,0,1.09a3.13,3.13,0,0,1-3.47,3.29c-1.83,0-2.92-.88-3.08-2.15l0-.2h-2.42l0,.22c.25,2.55,2.06,4,5.48,4,3.58,0,5.82-1.81,5.95-5.41,0-.65,0-1.57,0-2.3v-8.93h-2.46Zm-3.45,9.18c-2.12,0-3.31-1.85-3.31-4.43,0-2.95,1.48-4.38,3.42-4.38,1.59,0,3.34,1.07,3.34,4v.51C201.29,290.05,199.7,291.21,197.84,291.21Z"/><polygon class="cls-7" points="222.89 290.63 220.52 280.94 217.53 280.94 215.22 290.61 212.78 280.92 210.01 280.92 213.79 292.8 216.63 292.8 219 283.2 221.35 292.8 224.17 292.8 227.95 280.92 225.33 280.92 222.89 290.63"/><rect class="cls-7" x="229.58" y="280.92" width="2.46" height="11.88"/><path class="cls-7" d="M230.81,276.78a1.42,1.42,0,1,0,1.45,1.41A1.41,1.41,0,0,0,230.81,276.78Z"/><path class="cls-7" d="M238.13,278.17h-2.44V281H234v1.72h1.68v6.45c0,.67,0,1.18,0,1.58.11,1.57.92,2.26,2.77,2.26a12.58,12.58,0,0,0,1.82-.13v-1.7c-1.62.16-2.06-.09-2.15-1.25,0-.32,0-.58,0-1v-6.22h2.33V281h-2.33Z"/><path class="cls-7" d="M249,280.61a4.47,4.47,0,0,0-2.88.86l0,0a5.94,5.94,0,0,0-.9.77v-6H242.7V292.8h2.46v-5.32c0-3.72,1.39-5,3.09-5.06a2.24,2.24,0,0,1,2.5,2.28c.05.61.05,1.12.05,1.68v6.42h2.46v-6.69c0-1,0-1.5-.07-2.1C253,281.93,251.51,280.61,249,280.61Zm-3.8,2.26h0Z"/><path class="cls-7" d="M265.38,291l-3.27-10h-2.75l4.79,12.44-.18.42a2.39,2.39,0,0,1-2.42,1.86c-.25,0-.49,0-.78,0v1.81a5.77,5.77,0,0,0,1.16.07c2.15,0,3.42-1.12,4.52-3.94l4.83-12.64h-2.66Z"/><path class="cls-7" d="M277.73,280.61c-4,0-6,2.77-6,6.24s2,6.26,6,6.26,6-2.79,6-6.26S281.71,280.61,277.73,280.61Zm0,10.71c-2.17,0-3.42-1.79-3.42-4.47s1.25-4.45,3.42-4.45,3.4,1.76,3.4,4.45S279.88,291.32,277.73,291.32Z"/><path class="cls-7" d="M293.85,286.51c0,3.45-1.29,4.77-3,4.77a2.33,2.33,0,0,1-2.54-2.15,15.23,15.23,0,0,1-.09-1.63v-6.58h-2.44V288a13.36,13.36,0,0,0,.11,2.1c.27,1.64,1.7,3,4.16,3a4.69,4.69,0,0,0,3-.87,5.89,5.89,0,0,0,.82-.85v1.41h2.44V280.92h-2.44Z"/><polygon class="cls-7" points="304.1 281.39 304.1 284.05 312.03 286.87 304.1 289.71 304.1 292.35 314.63 288.39 314.63 285.35 304.1 281.39"/><rect class="cls-8" x="896.17" y="482.89" width="510.59" height="588.43"/><rect class="cls-8" x="1406.75" y="777.11" width="340.39" height="294.22"/><rect class="cls-8" x="555.78" y="630" width="340.39" height="441.32"/><rect class="cls-8" x="1456.37" y="817.77" width="70.96" height="70.96"/><rect class="cls-8" x="1626.57" y="815.18" width="70.96" height="70.96"/><rect class="cls-8" x="775.59" y="670.66" width="70.96" height="70.96"/><rect class="cls-8" x="945.78" y="523.56" width="70.96" height="70.96"/><rect class="cls-8" x="1115.98" y="523.56" width="70.96" height="70.96"/><rect class="cls-8" x="1286.18" y="523.56" width="70.96" height="70.96"/><rect class="cls-8" x="945.78" y="670.66" width="70.96" height="70.96"/><rect class="cls-8" x="1115.98" y="670.66" width="70.96" height="70.96"/><rect class="cls-8" x="1286.18" y="670.66" width="70.96" height="70.96"/><rect class="cls-8" x="945.78" y="815.18" width="70.96" height="70.96"/><rect class="cls-8" x="1115.98" y="815.18" width="70.96" height="70.96"/><rect class="cls-8" x="1286.18" y="815.18" width="70.96" height="70.96"/><rect class="cls-8" x="775.59" y="815.18" width="70.96" height="70.96"/><rect class="cls-8" x="605.39" y="670.66" width="70.96" height="70.96"/><rect class="cls-8" x="605.39" y="815.18" width="70.96" height="70.96"/><polygon class="cls-8" points="1080.5 929.4 1080.5 1000.36 1080.5 1071.33 1151.46 1071.33 1151.46 1000.36 1151.46 929.4 1080.5 929.4"/><polygon class="cls-8" points="1151.46 929.4 1151.46 1000.36 1151.46 1071.33 1222.42 1071.33 1222.42 1000.36 1222.42 929.4 1151.46 929.4"/><rect class="cls-8" x="605.39" y="963.9" width="241.16" height="107.42"/><rect class="cls-8" x="1456.37" y="963.9" width="241.16" height="107.42"/><path class="cls-9" d="M1406.75,777.11V482.89H896.17V630H555.78v441.32h49.61V963.9H846.55v107.42h234V929.4h141.92v141.92h233.95V963.9h241.16v107.42h49.62V777.11Zm-730.39,109h-71v-71h71Zm0-144.51h-71v-71h71ZM846.55,886.14h-71v-71h71Zm0-144.51h-71v-71h71Zm170.2,144.51h-71v-71h71Zm0-144.51h-71v-71h71Zm0-147.11h-71v-71h71Zm170.19,291.62h-71v-71h71Zm0-144.51h-71v-71h71Zm0-147.11h-71v-71h71Zm99.24-71h71v71h-71Zm71,362.58h-71v-71h71Zm0-144.51h-71v-71h71Zm170.19,147.11h-71v-71h71Zm170.2-2.6h-71v-71h71Z"/><rect class="cls-9" x="598.33" y="409.34" width="255.29" height="147.11"/><rect class="cls-8" x="598.33" y="409.34" width="255.29" height="147.11"/><line class="cls-8" x1="640.87" y1="556.45" x2="640.87" y2="630"/><line class="cls-8" x1="811.07" y1="556.45" x2="811.07" y2="630"/><path class="cls-10" d="M1619.5,79.64l595.68,512.29V79.64Zm501.74,321.74-275.8-237.19h275.8Z"/><polygon class="cls-11" points="2177.31 79.64 1619.5 79.64 1663.77 117.71 2177.28 117.71 2176.94 559.04 2215.18 591.93 2215.18 117.71 2215.18 79.64 2177.31 79.64"/><line class="cls-12" x1="2177.31" y1="79.64" x2="2177.24" y2="102.9"/><line class="cls-12" x1="2166.29" y1="79.61" x2="2166.26" y2="91.24"/><line class="cls-12" x1="2156.01" y1="79.61" x2="2155.98" y2="91.24"/><line class="cls-12" x1="2145.74" y1="79.61" x2="2145.71" y2="91.24"/><line class="cls-12" x1="2135.46" y1="79.61" x2="2135.43" y2="91.24"/><line class="cls-12" x1="2123.1" y1="79.65" x2="2123.04" y2="102.92"/><line class="cls-12" x1="2112.08" y1="79.62" x2="2112.05" y2="91.26"/><line class="cls-12" x1="2101.81" y1="79.62" x2="2101.78" y2="91.26"/><line class="cls-12" x1="2091.54" y1="79.62" x2="2091.5" y2="91.26"/><line class="cls-12" x1="2081.26" y1="79.62" x2="2081.23" y2="91.26"/><line class="cls-12" x1="2068.9" y1="79.67" x2="2068.84" y2="102.93"/><line class="cls-12" x1="2057.88" y1="79.64" x2="2057.85" y2="91.27"/><line class="cls-12" x1="2047.61" y1="79.64" x2="2047.58" y2="91.27"/><line class="cls-12" x1="2037.33" y1="79.64" x2="2037.3" y2="91.27"/><line class="cls-12" x1="2027.06" y1="79.64" x2="2027.03" y2="91.27"/><line class="cls-12" x1="2014.7" y1="79.68" x2="2014.64" y2="102.95"/><line class="cls-12" x1="2003.68" y1="79.65" x2="2003.65" y2="91.29"/><line class="cls-12" x1="1993.41" y1="79.65" x2="1993.37" y2="91.29"/><line class="cls-12" x1="1983.13" y1="79.65" x2="1983.1" y2="91.29"/><line class="cls-12" x1="1972.86" y1="79.65" x2="1972.82" y2="91.29"/><line class="cls-12" x1="1960.5" y1="79.7" x2="1960.43" y2="102.96"/><line class="cls-12" x1="1949.48" y1="79.67" x2="1949.45" y2="91.3"/><line class="cls-12" x1="1939.2" y1="79.67" x2="1939.17" y2="91.3"/><line class="cls-12" x1="1928.93" y1="79.67" x2="1928.9" y2="91.3"/><line class="cls-12" x1="1918.65" y1="79.67" x2="1918.62" y2="91.3"/><line class="cls-12" x1="1906.29" y1="79.71" x2="1906.23" y2="102.98"/><line class="cls-12" x1="1895.28" y1="79.68" x2="1895.24" y2="91.32"/><line class="cls-12" x1="1885" y1="79.68" x2="1884.97" y2="91.32"/><line class="cls-12" x1="1874.73" y1="79.68" x2="1874.69" y2="91.32"/><line class="cls-12" x1="1864.45" y1="79.68" x2="1864.42" y2="91.32"/><line class="cls-12" x1="1852.09" y1="79.73" x2="1852.03" y2="102.99"/><line class="cls-12" x1="1841.07" y1="79.7" x2="1841.04" y2="91.33"/><line class="cls-12" x1="1830.8" y1="79.7" x2="1830.77" y2="91.33"/><line class="cls-12" x1="1820.52" y1="79.7" x2="1820.49" y2="91.33"/><line class="cls-12" x1="1810.25" y1="79.7" x2="1810.22" y2="91.33"/><line class="cls-12" x1="1797.89" y1="79.74" x2="1797.83" y2="103.01"/><line class="cls-12" x1="1786.87" y1="79.71" x2="1786.84" y2="91.35"/><line class="cls-12" x1="1776.6" y1="79.71" x2="1776.56" y2="91.35"/><line class="cls-12" x1="1766.32" y1="79.71" x2="1766.29" y2="91.35"/><line class="cls-12" x1="1756.05" y1="79.71" x2="1756.02" y2="91.35"/><line class="cls-12" x1="1743.69" y1="79.76" x2="1743.62" y2="103.02"/><line class="cls-12" x1="1732.67" y1="79.73" x2="1732.64" y2="91.36"/><line class="cls-12" x1="1722.39" y1="79.73" x2="1722.36" y2="91.36"/><line class="cls-12" x1="1712.12" y1="79.73" x2="1712.09" y2="91.36"/><line class="cls-12" x1="1701.84" y1="79.73" x2="1701.81" y2="91.36"/><line class="cls-12" x1="1689.49" y1="79.77" x2="1689.42" y2="103.04"/><line class="cls-12" x1="1678.47" y1="79.74" x2="1678.44" y2="91.38"/><line class="cls-12" x1="1668.19" y1="79.74" x2="1668.16" y2="91.38"/><line class="cls-12" x1="1657.92" y1="79.74" x2="1657.89" y2="91.38"/><line class="cls-12" x1="1647.64" y1="79.74" x2="1647.61" y2="91.38"/><line class="cls-12" x1="2215.15" y1="119.14" x2="2191.89" y2="119.2"/><line class="cls-12" x1="2215.18" y1="130.15" x2="2203.55" y2="130.19"/><line class="cls-12" x1="2215.18" y1="140.43" x2="2203.55" y2="140.46"/><line class="cls-12" x1="2215.18" y1="150.7" x2="2203.55" y2="150.73"/><line class="cls-12" x1="2215.18" y1="160.98" x2="2203.55" y2="161.01"/><line class="cls-12" x1="2215.14" y1="173.34" x2="2191.88" y2="173.4"/><line class="cls-12" x1="2215.17" y1="184.36" x2="2203.54" y2="184.39"/><line class="cls-12" x1="2215.17" y1="194.63" x2="2203.54" y2="194.66"/><line class="cls-12" x1="2215.17" y1="204.91" x2="2203.54" y2="204.94"/><line class="cls-12" x1="2215.17" y1="215.18" x2="2203.54" y2="215.21"/><line class="cls-12" x1="2215.12" y1="227.54" x2="2191.86" y2="227.6"/><line class="cls-12" x1="2215.15" y1="238.56" x2="2203.52" y2="238.59"/><line class="cls-12" x1="2215.15" y1="248.83" x2="2203.52" y2="248.86"/><line class="cls-12" x1="2215.15" y1="259.11" x2="2203.52" y2="259.14"/><line class="cls-12" x1="2215.15" y1="269.38" x2="2203.52" y2="269.41"/><line class="cls-12" x1="2215.11" y1="281.74" x2="2191.85" y2="281.8"/><line class="cls-12" x1="2215.14" y1="292.76" x2="2203.51" y2="292.79"/><line class="cls-12" x1="2215.14" y1="303.04" x2="2203.51" y2="303.07"/><line class="cls-12" x1="2215.14" y1="313.31" x2="2203.51" y2="313.34"/><line class="cls-12" x1="2215.14" y1="323.59" x2="2203.51" y2="323.62"/><line class="cls-12" x1="2215.09" y1="335.94" x2="2191.83" y2="336.01"/><line class="cls-12" x1="2215.12" y1="346.96" x2="2203.49" y2="346.99"/><line class="cls-12" x1="2215.12" y1="357.24" x2="2203.49" y2="357.27"/><line class="cls-12" x1="2215.12" y1="367.51" x2="2203.49" y2="367.54"/><line class="cls-12" x1="2215.12" y1="377.79" x2="2203.49" y2="377.82"/><line class="cls-12" x1="2215.08" y1="390.15" x2="2191.82" y2="390.21"/><line class="cls-12" x1="2215.11" y1="401.17" x2="2203.48" y2="401.2"/><line class="cls-12" x1="2215.11" y1="411.44" x2="2203.48" y2="411.47"/><line class="cls-12" x1="2215.11" y1="421.72" x2="2203.48" y2="421.75"/><line class="cls-12" x1="2215.11" y1="431.99" x2="2203.48" y2="432.02"/><line class="cls-12" x1="2215.06" y1="444.35" x2="2191.8" y2="444.41"/><line class="cls-12" x1="2215.09" y1="455.37" x2="2203.46" y2="455.4"/><line class="cls-12" x1="2215.09" y1="465.64" x2="2203.46" y2="465.67"/><line class="cls-12" x1="2215.09" y1="475.92" x2="2203.46" y2="475.95"/><line class="cls-12" x1="2215.09" y1="486.19" x2="2203.46" y2="486.22"/><line class="cls-12" x1="2215.05" y1="498.55" x2="2191.79" y2="498.61"/><line class="cls-12" x1="2215.08" y1="509.57" x2="2203.45" y2="509.6"/><line class="cls-12" x1="2215.08" y1="519.84" x2="2203.45" y2="519.88"/><line class="cls-12" x1="2215.08" y1="530.12" x2="2203.45" y2="530.15"/><line class="cls-12" x1="2215.08" y1="540.39" x2="2203.45" y2="540.43"/><line class="cls-12" x1="2215.04" y1="552.75" x2="2191.77" y2="552.82"/></g></g></svg>