<svg xmlns="http://www.w3.org/2000/svg" viewBox="0 0 1333.13 1297.89"><defs><style>.cls-1{fill:#cd4b95;}.cls-2{fill:#280e20;}.cls-3{fill:#f6d4e5;}</style></defs><title>xd</title><g id="Capa_2" data-name="Capa 2"><g id="Capa_1-2" data-name="Capa 1"><path class="cls-1" d="M215.76,1297.89C82.62,1286.63-1,1170.48,0,1059.86c2.54-276,1.75-552.09.41-828.13C-.16,111.43,103.77-.52,232.37,0,522.26,1.17,812.15.36,1102,.38c123.5,0,229.92,103.05,230.36,226.69q1.53,421.56,0,843.15c-.36,118.06-93.25,215-214.6,227.67q-306.07-.3-612.14-.56C409.06,1297.3,312.41,1297.69,215.76,1297.89ZM666.75,56q-206.19,0-412.36,0c-107.9,0-197.7,89.75-197.72,197.66q-.09,394.83,0,789.66c0,108,89.75,197.8,197.56,197.81,273.48,0,547-1.14,820.42.63,99.9.64,201.15-78.52,201.84-198.27q2.25-394.81-.14-789.65c-.9-122-103-200.15-203.7-198.42C937.39,57.77,802.05,56,666.75,56Z"/><path class="cls-2" d="M666.75,56c135.3,0,270.64,1.74,405.9-.57,100.72-1.73,202.8,76.38,203.7,198.42q2.91,394.8.14,789.65c-.69,119.75-101.94,198.91-201.84,198.27-273.46-1.77-546.94-.59-820.42-.63-107.81,0-197.54-89.82-197.56-197.81q-.09-394.83,0-789.66C56.69,145.79,146.49,56.08,254.39,56Q460.56,56,666.75,56ZM470.7,538.5c-6.25-1.41-6.22-6.58-7.92-10.18-30.69-65.06-61.69-130-91.38-195.5-6-13.32-13.19-18.11-27.34-17.47-22.86,1-45.8.2-68.7.29-24.19.08-24.31.2-13.75,21.23,42.81,85.27,85.17,170.77,129,255.51,9.23,17.85,8.76,31.25-.73,48.81-45.75,84.59-89.71,170.15-135,255-8.36,15.66-5.06,19.52,11.73,18.85,22.86-.91,45.83-.93,68.69.05,13.34.57,20.84-4,26.35-16.24,15.22-33.75,31.7-66.92,47.39-100.45,17.43-37.26,34.55-74.67,53.06-114.75C497.36,756.38,531.38,826,564.74,896c6.21,13,13.42,20.06,29.11,19.19a699.43,699.43,0,0,1,73-.06c19.46,1,20-5.21,12-20.42q-58.1-109.49-115-219.59c-11.79-22.67-31.47-45.68-31.67-68.66-.18-22.07,20-44.4,31.57-66.48,35.58-68.22,71-136.5,107.14-204.45,8.32-15.67,6.39-21.24-12.4-20.17a640.23,640.23,0,0,1-64.39,0c-14.08-.63-21.46,4.11-27.52,17.46C535.35,401.55,502.91,469.69,470.7,538.5Zm591.29,65h-1.75c0-88.71-.54-177.42.45-266.12.21-18.48-5.65-23.38-23-22.13-20,1.43-40.11,1.07-60.11.07-13.51-.66-17.2,4.42-16.91,17.31.74,33.61.25,67.25.25,100.87,0,33.92,0,33.92-33.69,34-99.08.31-179,58.43-206.87,152.21-17.36,58.42-15.5,117.54,3.42,175.13,17.57,53.49,52.16,93.42,106.34,112.76,76.23,27.23,150.43,15.78,223.24-14.53,9.73-4,8.76-11.31,8.75-19.27Q1061.9,738.71,1062,603.54Z"/><path class="cls-3" d="M470.7,538.5c32.21-68.81,64.65-136.95,95.83-205.67,6.06-13.35,13.44-18.09,27.52-17.46a640.23,640.23,0,0,0,64.39,0c18.79-1.07,20.72,4.5,12.4,20.17C634.74,403.46,599.28,471.74,563.7,540,552.18,562,532,584.37,532.13,606.44c.2,23,19.88,46,31.67,68.66q57.16,110,115,219.59c8.07,15.21,7.5,21.38-12,20.42a699.43,699.43,0,0,0-73,.06C578.16,916,571,909,564.74,896c-33.36-70-67.38-139.6-102.62-212.33-18.51,40.08-35.63,77.49-53.06,114.75-15.69,33.53-32.17,66.7-47.39,100.45-5.51,12.21-13,16.81-26.35,16.24-22.86-1-45.83-1-68.69-.05-16.79.67-20.09-3.19-11.73-18.85,45.28-84.85,89.24-170.41,135-255,9.49-17.56,10-31,.73-48.81-43.84-84.74-86.2-170.24-129-255.51-10.56-21-10.44-21.15,13.75-21.23,22.9-.09,45.84.73,68.7-.29,14.15-.64,21.3,4.15,27.34,17.47,29.69,65.52,60.69,130.44,91.38,195.5C464.48,531.92,464.45,537.09,470.7,538.5Z"/><path class="cls-3" d="M1062,603.54q0,135.16.07,270.33c0,8,1,15.22-8.75,19.27-72.81,30.31-147,41.76-223.24,14.53-54.18-19.34-88.77-59.27-106.34-112.76C704.81,737.32,703,678.2,720.31,619.78,748.19,526,828.1,467.88,927.18,467.57c33.68-.11,33.68-.11,33.69-34,0-33.62.49-67.26-.25-100.87-.29-12.89,3.4-18,16.91-17.31,20,1,40.16,1.36,60.11-.07,17.4-1.25,23.26,3.65,23,22.13-1,88.7-.45,177.41-.45,266.12Zm-99.43,91.19c0-40.67-.55-81.36.3-122,.29-13.68-4.43-18.21-17.66-20.34C893.37,544,841.46,574.58,823,627.77c-16.15,46.55-15.7,94,1.06,140.38,18.6,51.53,67.42,77.26,121.4,67.05,13.19-2.49,17.69-7.09,17.4-20.6C962,774.66,962.56,734.69,962.56,694.73Z"/><path class="cls-2" d="M962.56,694.73c0,40-.55,79.93.3,119.87.29,13.51-4.21,18.11-17.4,20.6-54,10.21-102.8-15.52-121.4-67.05-16.76-46.41-17.21-93.83-1.06-140.38,18.46-53.19,70.37-83.75,122.2-75.39,13.23,2.13,17.95,6.66,17.66,20.34C962,613.37,962.56,654.06,962.56,694.73Z"/></g></g></svg>